{
.appVersion = "895";
classes = (
{

glyphs = (
{
glyphname = .notdef;
layers = (
{
layerId = "FB41A910-D058-4278-9D39-63B3F9D49349";
paths = (
{
closed = 1;
nodes = (
"466 170 LINE",
"127 170 LINE",
"127 483 LINE",
"466 483 LINE",
"466 483 LINE"
);
}
);
vertWidth = 0;
width = 600;
}
);
note = .notdef;
},
{
glyphname = A;
layers = (
{
anchors = (
{
name = bottom;
position = "{300, 0}";
},
{
name = ogonek;
position = "{540, 10}";
},
{
name = top;
position = "{300, 650}";
}
);
layerId = "FB41A910-D058-4278-9D39-63B3F9D49349";
paths = (
{
closed = 1;
nodes = (
"31 34 OFFCURVE",
"43 13 OFFCURVE",
"68 3 CURVE SMOOTH",
"93 -5 OFFCURVE",
"115 1 OFFCURVE",
"129 40 CURVE SMOOTH",
"299 503 LINE",
"469 40 LINE SMOOTH",
"483 1 OFFCURVE",
"505 -5 OFFCURVE",
"530 3 CURVE SMOOTH",
"555 13 OFFCURVE",
"567 34 OFFCURVE",
"553 71 CURVE",
"335 633 LINE SMOOTH",
"328 651 OFFCURVE",
"313 661 OFFCURVE",
"298 661 CURVE SMOOTH",
"283 661 OFFCURVE",
"267 651 OFFCURVE",
"260 632 CURVE SMOOTH",
"45 71 LINE"
);
},
{
closed = 1;
nodes = (
"171 176 LINE",
"427 176 LINE",
"427 256 LINE",
"171 256 LINE"
);
}
);
vertWidth = 0;
width = 600;
}
);
note = A;
unicode = 0041;
},
{
glyphname = AE;
layers = (
{
layerId = "FB41A910-D058-4278-9D39-63B3F9D49349";
paths = (
{
closed = 1;
nodes = (
"42 34 OFFCURVE",
"47 13 OFFCURVE",
"72 3 CURVE SMOOTH",
"97 -5 OFFCURVE",
"122 0 OFFCURVE",
"133 40 CURVE SMOOTH",
"275 553 LINE",
"280 553 LINE",
"273 75 LINE SMOOTH",
"272 27 OFFCURVE",
"300 0 OFFCURVE",
"348 0 CURVE SMOOTH",
"501 0 LINE SMOOTH",
"538 0 OFFCURVE",
"552 18 OFFCURVE",
"552 41 CURVE SMOOTH",
"552 62 OFFCURVE",
"538 80 OFFCURVE",
"501 80 CURVE SMOOTH",
"360 80 LINE",
"360 570 LINE",
"501 570 LINE SMOOTH",
"538 570 OFFCURVE",
"552 587 OFFCURVE",
"552 611 CURVE SMOOTH",
"552 632 OFFCURVE",
"538 650 OFFCURVE",
"501 650 CURVE SMOOTH",
"261 650 LINE SMOOTH",
"237 650 OFFCURVE",
"223 635 OFFCURVE",
"215 610 CURVE SMOOTH",
"53 71 LINE SMOOTH"
);
},
{
closed = 1;
nodes = (
"293 175 LINE SMOOTH",
"330 175 OFFCURVE",
"344 192 OFFCURVE",
"344 215 CURVE SMOOTH",
"344 237 OFFCURVE",
"330 255 OFFCURVE",
"293 255 CURVE SMOOTH",
"166 255 LINE SMOOTH",
"129 255 OFFCURVE",
"115 238 OFFCURVE",
"115 212 CURVE SMOOTH",
"115 193 OFFCURVE",
"129 175 OFFCURVE",
"166 175 CURVE SMOOTH"
);
},
{
closed = 1;
nodes = (
"473 305 LINE SMOOTH",
"510 305 OFFCURVE",
"524 322 OFFCURVE",
"524 345 CURVE SMOOTH",
"524 367 OFFCURVE",
"510 385 OFFCURVE",
"473 385 CURVE SMOOTH",
"336 385 LINE SMOOTH",
"299 385 OFFCURVE",
"285 368 OFFCURVE",
"285 342 CURVE SMOOTH",
"285 323 OFFCURVE",
"299 305 OFFCURVE",
"336 305 CURVE SMOOTH"
);
}
);
vertWidth = 0;
width = 600;
}
);
note = AE;
unicode = 00C6;
},
{
glyphname = AEacute;
layers = (
{
anchors = (
{
name = _top;
position = "{359, 513}";
},
{
name = top;
position = "{378, 956}";
}
);
components = (
{
name = acutecomb.case;
transform = "{1, 0, 0, 1, 90, 30}";
}
);
layerId = "FB41A910-D058-4278-9D39-63B3F9D49349";
paths = (
{
closed = 1;
nodes = (
"42 34 OFFCURVE",
"47 13 OFFCURVE",
"72 3 CURVE SMOOTH",
"97 -5 OFFCURVE",
"122 0 OFFCURVE",
"133 40 CURVE SMOOTH",
"275 553 LINE",
"280 553 LINE",
"273 75 LINE SMOOTH",
"272 27 OFFCURVE",
"300 0 OFFCURVE",
"348 0 CURVE SMOOTH",
"501 0 LINE SMOOTH",
"538 0 OFFCURVE",
"552 18 OFFCURVE",
"552 41 CURVE SMOOTH",
"552 62 OFFCURVE",
"538 80 OFFCURVE",
"501 80 CURVE SMOOTH",
"360 80 LINE",
"360 570 LINE",
"501 570 LINE SMOOTH",
"538 570 OFFCURVE",
"552 587 OFFCURVE",
"552 611 CURVE SMOOTH",
"552 632 OFFCURVE",
"538 650 OFFCURVE",
"501 650 CURVE SMOOTH",
"261 650 LINE SMOOTH",
"237 650 OFFCURVE",
"223 635 OFFCURVE",
"215 610 CURVE SMOOTH",
"53 71 LINE SMOOTH"
);
},
{
closed = 1;
nodes = (
"293 175 LINE SMOOTH",
"330 175 OFFCURVE",
"344 192 OFFCURVE",
"344 215 CURVE SMOOTH",
"344 237 OFFCURVE",
"330 255 OFFCURVE",
"293 255 CURVE SMOOTH",
"166 255 LINE SMOOTH",
"129 255 OFFCURVE",
"115 238 OFFCURVE",
"115 212 CURVE SMOOTH",
"115 193 OFFCURVE",
"129 175 OFFCURVE",
"166 175 CURVE SMOOTH"
);
},
{
closed = 1;
nodes = (
"473 305 LINE SMOOTH",
"510 305 OFFCURVE",
"524 322 OFFCURVE",
"524 345 CURVE SMOOTH",
"524 367 OFFCURVE",
"510 385 OFFCURVE",
"473 385 CURVE SMOOTH",
"336 385 LINE SMOOTH",
"299 385 OFFCURVE",
"285 368 OFFCURVE",
"285 342 CURVE SMOOTH",
"285 323 OFFCURVE",
"299 305 OFFCURVE",
"336 305 CURVE SMOOTH"
);
}
);
vertWidth = 0;
width = 600;
}
);
note = AEacute;
unicode = 01FC;
},
{
glyphname = Alpha;
layers = (
{
layerId = "FB41A910-D058-4278-9D39-63B3F9D49349";
paths = (
{
closed = 1;
nodes = (
"31 34 OFFCURVE",
"43 13 OFFCURVE",
"68 3 CURVE SMOOTH",
"93 -5 OFFCURVE",
"115 1 OFFCURVE",
"129 40 CURVE SMOOTH",
"299 503 LINE",
"469 40 LINE SMOOTH",
"483 1 OFFCURVE",
"505 -5 OFFCURVE",
"530 3 CURVE SMOOTH",
"555 13 OFFCURVE",
"567 34 OFFCURVE",
"553 71 CURVE SMOOTH",
"345 620 LINE SMOOTH",
"335 646 OFFCURVE",
"323 659 OFFCURVE",
"299 659 CURVE SMOOTH",
"275 659 OFFCURVE",
"263 646 OFFCURVE",
"253 620 CURVE SMOOTH",
"45 71 LINE SMOOTH"
);
},
{
closed = 1;
nodes = (
"171 176 LINE",
"427 176 LINE",
"427 256 LINE",
"171 256 LINE"
);
}
);
vertWidth = 0;
width = 600;
}
);
note = Alpha;
unicode = 0391;
},
{
glyphname = Aogonek;
layers = (
{
anchors = (
{
name = bottom;
position = "{300, 0}";
},
{
name = ogonek;
position = "{540, 10}";
},
{
name = top;
position = "{300, 650}";
}
);
layerId = "FB41A910-D058-4278-9D39-63B3F9D49349";
paths = (
{
closed = 1;
nodes = (
"93 -5 OFFCURVE",
"115 1 OFFCURVE",
"129 40 CURVE SMOOTH",
"299 503 LINE",
"469 40 LINE SMOOTH",
"472 32 OFFCURVE",
"475 25 OFFCURVE",
"479 20 CURVE",
"442 -19 OFFCURVE",
"429 -46 OFFCURVE",
"429 -85 CURVE SMOOTH",
"429 -135 OFFCURVE",
"473 -176 OFFCURVE",
"542 -152 CURVE SMOOTH",
"569 -143 OFFCURVE",
"577 -126 OFFCURVE",
"575 -109 CURVE SMOOTH",
"573 -94 OFFCURVE",
"561 -83 OFFCURVE",
"543 -90 CURVE SMOOTH",
"506 -105 OFFCURVE",
"493 -93 OFFCURVE",
"493 -74 CURVE SMOOTH",
"493 -57 OFFCURVE",
"502 -34 OFFCURVE",
"535 5 CURVE",
"550 25 OFFCURVE",
"566 36 OFFCURVE",
"553 71 CURVE SMOOTH",
"345 620 LINE SMOOTH",
"335 646 OFFCURVE",
"323 659 OFFCURVE",
"299 659 CURVE SMOOTH",
"275 659 OFFCURVE",
"263 646 OFFCURVE",
"253 620 CURVE SMOOTH",
"45 71 LINE SMOOTH",
"31 34 OFFCURVE",
"43 13 OFFCURVE",
"68 3 CURVE SMOOTH"
);
},
{
closed = 1;
nodes = (
"427 176 LINE",
"427 256 LINE",
"171 256 LINE",
"171 176 LINE"
);
}
);
vertWidth = 0;
width = 600;
}
);
note = "";
unicode = 0104;
},
{
glyphname = B;
layers = (
{
anchors = (
{
name = bottom;
position = "{286, 0}";
},
{
name = center;
position = "{286, 325}";
},
{
name = top;
position = "{253, 661}";
}
);
layerId = "FB41A910-D058-4278-9D39-63B3F9D49349";
paths = (
{
closed = 1;
nodes = (
"306 0 LINE SMOOTH",
"445 0 OFFCURVE",
"535 70 OFFCURVE",
"535 194 CURVE SMOOTH",
"535 271 OFFCURVE",
"478 330 OFFCURVE",
"398 348 CURVE",
"439 365 OFFCURVE",
"478 417 OFFCURVE",
"478 475 CURVE SMOOTH",
"478 605 OFFCURVE",
"394 650 OFFCURVE",
"282 650 CURVE SMOOTH",
"146 650 LINE SMOOTH",
"98 650 OFFCURVE",
"71 623 OFFCURVE",
"71 575 CURVE SMOOTH",
"71 75 LINE SMOOTH",
"71 27 OFFCURVE",
"98 0 OFFCURVE",
"146 0 CURVE SMOOTH"
);
},
{
closed = 1;
nodes = (
"158 291 LINE",
"291 291 LINE SMOOTH",
"409 291 OFFCURVE",
"448 250 OFFCURVE",
"448 191 CURVE SMOOTH",
"448 113 OFFCURVE",
"384 80 OFFCURVE",
"306 80 CURVE SMOOTH",
"158 80 LINE"
);
},
{
closed = 1;
nodes = (
"158 570 LINE",
"284 570 LINE SMOOTH",
"374 570 OFFCURVE",
"394 528 OFFCURVE",
"394 473 CURVE SMOOTH",
"394 402 OFFCURVE",
"340 371 OFFCURVE",
"260 371 CURVE SMOOTH",
"158 371 LINE"
);
}
);
vertWidth = 0;
width = 600;
}
);
note = B;
unicode = 0042;
},
{
glyphname = C;
layers = (
{
anchors = (
{
name = bottom;
position = "{281, 0}";
},
{
name = top;
position = "{291, 677}";
}
);
layerId = "FB41A910-D058-4278-9D39-63B3F9D49349";
paths = (
{
closed = 1;
nodes = (
"555 183 OFFCURVE",
"557 163 OFFCURVE",
"547 142 CURVE SMOOTH",
"497 38 OFFCURVE",
"421 -9 OFFCURVE",
"312 -10 CURVE SMOOTH",
"135 -12 OFFCURVE",
"39 132 OFFCURVE",
"39 331 CURVE SMOOTH",
"39 501 OFFCURVE",
"126 661 OFFCURVE",
"312 659 CURVE SMOOTH",
"428 658 OFFCURVE",
"511 601 OFFCURVE",
"532 498 CURVE SMOOTH",
"536 479 OFFCURVE",
"535 460 OFFCURVE",
"511 450 CURVE SMOOTH",
"488 440 OFFCURVE",
"467 451 OFFCURVE",
"459 473 CURVE SMOOTH",
"430 549 OFFCURVE",
"390 573 OFFCURVE",
"312 573 CURVE SMOOTH",
"189 573 OFFCURVE",
"129 483 OFFCURVE",
"129 331 CURVE SMOOTH",
"129 174 OFFCURVE",
"190 78 OFFCURVE",
"312 76 CURVE SMOOTH",
"380 75 OFFCURVE",
"425 96 OFFCURVE",
"479 181 CURVE SMOOTH",
"490 199 OFFCURVE",
"513 208 OFFCURVE",
"533 196 CURVE SMOOTH"
);
}
);
vertWidth = 0;
width = 600;
}
);
note = C;
unicode = 0043;
},
{
glyphname = Ccedilla;
layers = (
{
layerId = "FB41A910-D058-4278-9D39-63B3F9D49349";
paths = (
{
closed = 1;
nodes = (
"422 -9 OFFCURVE",
"498 38 OFFCURVE",
"548 142 CURVE SMOOTH",
"558 163 OFFCURVE",
"556 183 OFFCURVE",
"534 196 CURVE SMOOTH",
"514 208 OFFCURVE",
"491 199 OFFCURVE",
"480 181 CURVE SMOOTH",
"426 96 OFFCURVE",
"381 75 OFFCURVE",
"323 76 CURVE SMOOTH",
"211 77 OFFCURVE",
"150 174 OFFCURVE",
"150 331 CURVE SMOOTH",
"150 483 OFFCURVE",
"210 573 OFFCURVE",
"323 573 CURVE SMOOTH",
"391 573 OFFCURVE",
"431 549 OFFCURVE",
"460 473 CURVE SMOOTH",
"468 451 OFFCURVE",
"489 440 OFFCURVE",
"512 450 CURVE SMOOTH",
"536 460 OFFCURVE",
"537 479 OFFCURVE",
"533 498 CURVE SMOOTH",
"512 601 OFFCURVE",
"429 658 OFFCURVE",
"323 659 CURVE SMOOTH",
"147 658 OFFCURVE",
"60 501 OFFCURVE",
"60 331 CURVE SMOOTH",
"60 132 OFFCURVE",
"156 -9 OFFCURVE",
"323 -10 CURVE SMOOTH"
);
},
{
closed = 1;
nodes = (
"381 -199 OFFCURVE",
"428 -158 OFFCURVE",
"428 -108 CURVE SMOOTH",
"428 -37 OFFCURVE",
"324 -38 OFFCURVE",
"324 1 CURVE",
"251 1 LINE",
"251 -61 OFFCURVE",
"366 -72 OFFCURVE",
"366 -108 CURVE SMOOTH",
"366 -129 OFFCURVE",
"334 -140 OFFCURVE",
"296 -140 CURVE SMOOTH",
"259 -140 OFFCURVE",
"229 -124 OFFCURVE",
"213 -115 CURVE SMOOTH",
"196 -105 OFFCURVE",
"181 -108 OFFCURVE",
"171 -125 CURVE SMOOTH",
"160 -145 OFFCURVE",
"171 -161 OFFCURVE",
"190 -172 CURVE SMOOTH",
"207 -183 OFFCURVE",
"240 -199 OFFCURVE",
"302 -199 CURVE SMOOTH"
);
}
);
vertWidth = 0;
width = 600;
}
);
note = "";
unicode = 00C7;
},
{
glyphname = Ccommaaccent;
layers = (
{
anchors = (
{
name = bottom;
position = "{311, 0}";
},
{
name = top;
position = "{311, 680}";
}
);
layerId = "FB41A910-D058-4278-9D39-63B3F9D49349";
paths = (
{
closed = 1;
nodes = (
"432 -9 OFFCURVE",
"508 38 OFFCURVE",
"558 142 CURVE SMOOTH",
"568 163 OFFCURVE",
"566 183 OFFCURVE",
"544 196 CURVE SMOOTH",
"524 208 OFFCURVE",
"501 199 OFFCURVE",
"490 181 CURVE SMOOTH",
"436 96 OFFCURVE",
"391 75 OFFCURVE",
"333 76 CURVE SMOOTH",
"221 77 OFFCURVE",
"160 174 OFFCURVE",
"160 331 CURVE SMOOTH",
"160 483 OFFCURVE",
"220 573 OFFCURVE",
"333 573 CURVE SMOOTH",
"401 573 OFFCURVE",
"441 549 OFFCURVE",
"470 473 CURVE SMOOTH",
"478 451 OFFCURVE",
"499 440 OFFCURVE",
"522 450 CURVE SMOOTH",
"546 460 OFFCURVE",
"547 479 OFFCURVE",
"543 498 CURVE SMOOTH",
"522 601 OFFCURVE",
"439 658 OFFCURVE",
"333 659 CURVE SMOOTH",
"157 658 OFFCURVE",
"70 501 OFFCURVE",
"70 331 CURVE SMOOTH",
"70 132 OFFCURVE",
"166 -9 OFFCURVE",
"333 -10 CURVE SMOOTH"
);
},
{
closed = 1;
nodes = (
"322 -154 OFFCURVE",
"327 -155 OFFCURVE",
"338 -146 CURVE",
"334 -195 OFFCURVE",
"301 -204 OFFCURVE",
"272 -201 CURVE SMOOTH",
"257 -200 OFFCURVE",
"248 -211 OFFCURVE",
"247 -226 CURVE SMOOTH",
"246 -240 OFFCURVE",
"257 -249 OFFCURVE",
"270 -250 CURVE SMOOTH",
"322 -254 OFFCURVE",
"382 -226 OFFCURVE",
"389 -125 CURVE SMOOTH",
"393 -80 OFFCURVE",
"370 -48 OFFCURVE",
"326 -45 CURVE SMOOTH",
"287 -42 OFFCURVE",
"264 -71 OFFCURVE",
"262 -100 CURVE SMOOTH",
"259 -129 OFFCURVE",
"288 -153 OFFCURVE",
"310 -154 CURVE SMOOTH"
);
}
);
vertWidth = 0;
width = 621;
}
);
note = "";
},
{
glyphname = D;
layers = (
{
anchors = (
{
name = bottom;
position = "{288, 0}";
},
{
name = center;
position = "{288, 325}";
},
{
name = top;
position = "{288, 668}";
}
);
layerId = "FB41A910-D058-4278-9D39-63B3F9D49349";
paths = (
{
closed = 1;
nodes = (
"256 0 LINE SMOOTH",
"428 0 OFFCURVE",
"561 123 OFFCURVE",
"561 330 CURVE SMOOTH",
"561 536 OFFCURVE",
"420 650 OFFCURVE",
"231 650 CURVE SMOOTH",
"146 650 LINE SMOOTH",
"98 650 OFFCURVE",
"71 623 OFFCURVE",
"71 575 CURVE SMOOTH",
"71 75 LINE SMOOTH",
"71 27 OFFCURVE",
"98 0 OFFCURVE",
"146 0 CURVE SMOOTH"
);
},
{
closed = 1;
nodes = (
"158 570 LINE",
"231 570 LINE SMOOTH",
"347 570 OFFCURVE",
"473 513 OFFCURVE",
"471 334 CURVE SMOOTH",
"469 156 OFFCURVE",
"365 79 OFFCURVE",
"257 79 CURVE SMOOTH",
"158 79 LINE"
);
}
);
vertWidth = 0;
width = 600;
}
);
note = D;
unicode = 0044;
},
{
glyphname = Dcroat;
layers = (
{
layerId = "FB41A910-D058-4278-9D39-63B3F9D49349";
paths = (
{
closed = 1;
nodes = (
"37 375 OFFCURVE",
"20 353 OFFCURVE",
"20 332 CURVE SMOOTH",
"20 309 OFFCURVE",
"39 289 OFFCURVE",
"63 289 CURVE SMOOTH",
"314 289 LINE SMOOTH",
"337 289 OFFCURVE",
"356 307 OFFCURVE",
"356 332 CURVE SMOOTH",
"356 356 OFFCURVE",
"339 375 OFFCURVE",
"316 375 CURVE SMOOTH",
"60 375 LINE SMOOTH"
);
},
{
closed = 1;
nodes = (
"249 0 LINE SMOOTH",
"421 0 OFFCURVE",
"554 123 OFFCURVE",
"554 330 CURVE SMOOTH",
"554 536 OFFCURVE",
"413 650 OFFCURVE",
"224 650 CURVE SMOOTH",
"155 650 LINE SMOOTH",
"107 650 OFFCURVE",
"80 623 OFFCURVE",
"80 575 CURVE SMOOTH",
"80 75 LINE SMOOTH",
"80 27 OFFCURVE",
"107 0 OFFCURVE",
"155 0 CURVE SMOOTH"
);
},
{
closed = 1;
nodes = (
"167 570 LINE",
"224 570 LINE SMOOTH",
"340 570 OFFCURVE",
"466 513 OFFCURVE",
"464 334 CURVE SMOOTH",
"462 156 OFFCURVE",
"358 79 OFFCURVE",
"250 79 CURVE SMOOTH",
"167 79 LINE"
);
}
);
vertWidth = 0;
width = 600;
}
);
note = Dcroat;
unicode = 0110;
},
{
glyphname = Delta;
layers = (
{
layerId = "FB41A910-D058-4278-9D39-63B3F9D49349";
paths = (
{
closed = 1;
nodes = (
"30 54 OFFCURVE",
"44 33 OFFCURVE",
"69 23 CURVE SMOOTH",
"94 15 OFFCURVE",
"114 21 OFFCURVE",
"130 60 CURVE SMOOTH",
"300 469 LINE",
"470 60 LINE SMOOTH",
"486 21 OFFCURVE",
"506 15 OFFCURVE",
"531 23 CURVE SMOOTH",
"556 33 OFFCURVE",
"570 54 OFFCURVE",
"554 91 CURVE SMOOTH",
"346 576 LINE SMOOTH",
"335 602 OFFCURVE",
"324 615 OFFCURVE",
"300 615 CURVE SMOOTH",
"276 615 OFFCURVE",
"265 602 OFFCURVE",
"254 576 CURVE SMOOTH",
"46 91 LINE SMOOTH"
);
},
{
closed = 1;
nodes = (
"84 20 LINE",
"515 20 LINE",
"515 100 LINE",
"84 100 LINE"
);
}
);
vertWidth = 0;
width = 600;
}
);
note = Delta;
unicode = 2206;
},
{
glyphname = E;
layers = (
{
anchors = (
{
name = bottom;
position = "{231, 0}";
},
{
name = ogonek;
position = "{438, 10}";
},
{
name = top;
position = "{231, 670}";
},
{
name = topleft;
position = "{241, 453}";
}
);
layerId = "FB41A910-D058-4278-9D39-63B3F9D49349";
paths = (
{
closed = 1;
nodes = (
"188 212 LINE",
"188 570 LINE",
"479 570 LINE SMOOTH",
"516 570 OFFCURVE",
"530 587 OFFCURVE",
"530 611 CURVE SMOOTH",
"530 632 OFFCURVE",
"516 650 OFFCURVE",
"479 650 CURVE SMOOTH",
"176 650 LINE SMOOTH",
"128 650 OFFCURVE",
"101 623 OFFCURVE",
"101 575 CURVE SMOOTH",
"101 212 LINE"
);
},
{
closed = 1;
nodes = (
"101 75 LINE SMOOTH",
"101 27 OFFCURVE",
"128 0 OFFCURVE",
"176 0 CURVE SMOOTH",
"479 0 LINE SMOOTH",
"516 0 OFFCURVE",
"530 18 OFFCURVE",
"530 41 CURVE SMOOTH",
"530 62 OFFCURVE",
"516 80 OFFCURVE",
"479 80 CURVE SMOOTH",
"188 80 LINE",
"188 438 LINE",
"101 438 LINE"
);
},
{
closed = 1;
nodes = (
"399 305 LINE SMOOTH",
"436 305 OFFCURVE",
"450 322 OFFCURVE",
"450 345 CURVE SMOOTH",
"450 367 OFFCURVE",
"436 385 OFFCURVE",
"399 385 CURVE SMOOTH",
"152 385 LINE SMOOTH",
"115 385 OFFCURVE",
"101 368 OFFCURVE",
"101 342 CURVE SMOOTH",
"101 323 OFFCURVE",
"115 305 OFFCURVE",
"152 305 CURVE SMOOTH"
);
}
);
vertWidth = 0;
width = 600;
}
);
note = E;
unicode = 0045;
},
{
glyphname = Eng;
layers = (
{
layerId = "FB41A910-D058-4278-9D39-63B3F9D49349";
paths = (
{
closed = 1;
nodes = (
"66 60 LINE SMOOTH",
"66 16 OFFCURVE",
"86 -1 OFFCURVE",
"115 -1 CURVE SMOOTH",
"144 -1 OFFCURVE",
"165 16 OFFCURVE",
"165 60 CURVE SMOOTH",
"165 585 LINE SMOOTH",
"165 629 OFFCURVE",
"145 645 OFFCURVE",
"115 645 CURVE SMOOTH",
"87 645 OFFCURVE",
"66 629 OFFCURVE",
"66 585 CURVE SMOOTH"
);
},
{
closed = 1;
nodes = (
"436 134 LINE SMOOTH",
"436 105 OFFCURVE",
"426 94 OFFCURVE",
"410 94 CURVE SMOOTH",
"393 94 OFFCURVE",
"378 105 OFFCURVE",
"358 119 CURVE SMOOTH",
"338 133 OFFCURVE",
"311 125 OFFCURVE",
"297 105 CURVE SMOOTH",
"283 86 OFFCURVE",
"282 58 OFFCURVE",
"310 37 CURVE SMOOTH",
"340 15 OFFCURVE",
"374 0 OFFCURVE",
"419 0 CURVE SMOOTH",
"503 0 OFFCURVE",
"535 69 OFFCURVE",
"535 141 CURVE SMOOTH",
"535 439 LINE SMOOTH",
"535 554 OFFCURVE",
"471 656 OFFCURVE",
"350 656 CURVE SMOOTH",
"198 656 OFFCURVE",
"153 537 OFFCURVE",
"133 434 CURVE",
"165 322 LINE",
"165 489 OFFCURVE",
"251 562 OFFCURVE",
"336 562 CURVE SMOOTH",
"398 562 OFFCURVE",
"436 525 OFFCURVE",
"436 439 CURVE SMOOTH"
);
}
);
vertWidth = 0;
width = 600;
}
);
note = Eng;
unicode = 014A;
},
{
glyphname = Eth;
layers = (
{
anchors = (
{
name = bottom;
position = "{288, 0}";
},
{
name = center;
position = "{288, 325}";
},
{
name = top;
position = "{288, 668}";
}
);
components = (
{
name = D;
}
);
layerId = "FB41A910-D058-4278-9D39-63B3F9D49349";
paths = (
{
closed = 1;
nodes = (
"37 375 OFFCURVE",
"20 353 OFFCURVE",
"20 332 CURVE SMOOTH",
"20 309 OFFCURVE",
"39 289 OFFCURVE",
"63 289 CURVE SMOOTH",
"314 289 LINE SMOOTH",
"337 289 OFFCURVE",
"356 307 OFFCURVE",
"356 332 CURVE SMOOTH",
"356 356 OFFCURVE",
"339 375 OFFCURVE",
"316 375 CURVE SMOOTH",
"60 375 LINE SMOOTH"
);
}
);
vertWidth = 0;
width = 600;
}
);
note = Eth;
unicode = 00D0;
},
{
glyphname = Euro;
layers = (
{
anchors = (
{
name = bottom;
position = "{354, 0}";
},
{
name = top;
position = "{364, 677}";
}
);
layerId = "FB41A910-D058-4278-9D39-63B3F9D49349";
paths = (
{
closed = 1;
nodes = (
"421 -9 OFFCURVE",
"481 6 OFFCURVE",
"529 37 CURVE SMOOTH",
"552 52 OFFCURVE",
"553 75 OFFCURVE",
"536 96 CURVE SMOOTH",
"519 117 OFFCURVE",
"500 118 OFFCURVE",
"476 104 CURVE SMOOTH",
"440 82 OFFCURVE",
"400 75 OFFCURVE",
"355 76 CURVE SMOOTH",
"272 77 OFFCURVE",
"207 129 OFFCURVE",
"178 220 CURVE",
"444 220 LINE SMOOTH",
"467 220 OFFCURVE",
"485 237 OFFCURVE",
"485 261 CURVE SMOOTH",
"485 286 OFFCURVE",
"468 304 OFFCURVE",
"446 304 CURVE SMOOTH",
"163 304 LINE",
"162 314 OFFCURVE",
"162 322 OFFCURVE",
"162 331 CURVE SMOOTH",
"162 350 LINE",
"459 350 LINE SMOOTH",
"482 350 OFFCURVE",
"500 367 OFFCURVE",
"500 391 CURVE SMOOTH",
"500 416 OFFCURVE",
"483 434 OFFCURVE",
"461 434 CURVE SMOOTH",
"177 434 LINE",
"205 523 OFFCURVE",
"271 573 OFFCURVE",
"355 573 CURVE SMOOTH",
"405 573 OFFCURVE",
"447 565 OFFCURVE",
"478 544 CURVE SMOOTH",
"501 529 OFFCURVE",
"519 526 OFFCURVE",
"538 544 CURVE SMOOTH",
"558 564 OFFCURVE",
"560 586 OFFCURVE",
"539 604 CURVE SMOOTH",
"495 640 OFFCURVE",
"435 658 OFFCURVE",
"355 659 CURVE SMOOTH",
"215 661 OFFCURVE",
"119 561 OFFCURVE",
"85 434 CURVE",
"54 434 LINE SMOOTH",
"32 434 OFFCURVE",
"15 412 OFFCURVE",
"15 391 CURVE SMOOTH",
"15 369 OFFCURVE",
"33 350 OFFCURVE",
"58 350 CURVE SMOOTH",
"72 350 LINE",
"72 331 LINE SMOOTH",
"72 322 OFFCURVE",
"72 314 OFFCURVE",
"73 304 CURVE",
"54 304 LINE SMOOTH",
"32 304 OFFCURVE",
"15 282 OFFCURVE",
"15 261 CURVE SMOOTH",
"15 239 OFFCURVE",
"33 220 OFFCURVE",
"58 220 CURVE SMOOTH",
"85 220 LINE",
"120 80 OFFCURVE",
"220 -11 OFFCURVE",
"355 -10 CURVE SMOOTH"
);
}
);
vertWidth = 0;
width = 600;
}
);
note = Euro;
unicode = 20AC;
},
{
glyphname = F;
layers = (
{
anchors = (
{
name = bottom;
position = "{251, 0}";
},
{
name = top;
position = "{251, 670}";
}
);
layerId = "FB41A910-D058-4278-9D39-63B3F9D49349";
paths = (
{
closed = 1;
nodes = (
"158 192 LINE",
"158 570 LINE",
"479 570 LINE SMOOTH",
"516 570 OFFCURVE",
"530 587 OFFCURVE",
"530 610 CURVE SMOOTH",
"530 632 OFFCURVE",
"516 650 OFFCURVE",
"479 650 CURVE SMOOTH",
"146 650 LINE SMOOTH",
"98 650 OFFCURVE",
"71 623 OFFCURVE",
"71 575 CURVE SMOOTH",
"71 192 LINE"
);
},
{
closed = 1;
nodes = (
"399 265 LINE SMOOTH",
"436 265 OFFCURVE",
"450 282 OFFCURVE",
"450 305 CURVE SMOOTH",
"450 327 OFFCURVE",
"436 345 OFFCURVE",
"399 345 CURVE SMOOTH",
"122 345 LINE SMOOTH",
"85 345 OFFCURVE",
"71 328 OFFCURVE",
"71 302 CURVE SMOOTH",
"71 283 OFFCURVE",
"85 265 OFFCURVE",
"122 265 CURVE SMOOTH"
);
},
{
closed = 1;
nodes = (
"71 125 LINE",
"158 137 LINE",
"158 438 LINE",
"71 438 LINE"
);
},
{
closed = 1;
nodes = (
"71 50 LINE SMOOTH",
"71 13 OFFCURVE",
"88 -1 OFFCURVE",
"114 -1 CURVE SMOOTH",
"140 -1 OFFCURVE",
"158 13 OFFCURVE",
"158 50 CURVE SMOOTH",
"158 217 LINE SMOOTH",
"158 254 OFFCURVE",
"141 268 OFFCURVE",
"115 268 CURVE SMOOTH",
"89 268 OFFCURVE",
"71 254 OFFCURVE",
"71 217 CURVE SMOOTH"
);
}
);
vertWidth = 0;
width = 600;
}
);
note = F;
unicode = 0046;
},
{
glyphname = G;
layers = (
{
anchors = (
{
name = bottom;
position = "{300, 0}";
},
{
name = top;
position = "{300, 680}";
}
);
layerId = "FB41A910-D058-4278-9D39-63B3F9D49349";
paths = (
{
closed = 1;
nodes = (
"421 -9 OFFCURVE",
"485 32 OFFCURVE",
"529 108 CURVE SMOOTH",
"558 158 OFFCURVE",
"570 232 OFFCURVE",
"570 270 CURVE SMOOTH",
"570 301 OFFCURVE",
"560 313 OFFCURVE",
"532 313 CURVE SMOOTH",
"519 313 OFFCURVE",
"480 313 OFFCURVE",
"480 313 CURVE",
"480 321 OFFCURVE",
"512 250 OFFCURVE",
"479 181 CURVE SMOOTH",
"434 87 OFFCURVE",
"380 75 OFFCURVE",
"312 76 CURVE SMOOTH",
"190 77 OFFCURVE",
"129 174 OFFCURVE",
"129 341 CURVE SMOOTH",
"129 484 OFFCURVE",
"189 574 OFFCURVE",
"312 574 CURVE SMOOTH",
"390 574 OFFCURVE",
"430 550 OFFCURVE",
"459 474 CURVE SMOOTH",
"467 452 OFFCURVE",
"488 441 OFFCURVE",
"511 451 CURVE SMOOTH",
"535 461 OFFCURVE",
"536 480 OFFCURVE",
"532 499 CURVE SMOOTH",
"511 602 OFFCURVE",
"428 659 OFFCURVE",
"312 659 CURVE SMOOTH",
"126 659 OFFCURVE",
"39 502 OFFCURVE",
"39 341 CURVE SMOOTH",
"39 132 OFFCURVE",
"135 -9 OFFCURVE",
"312 -9 CURVE SMOOTH"
);
},
{
closed = 1;
nodes = (
"505 233 LINE SMOOTH",
"532 233 OFFCURVE",
"546 249 OFFCURVE",
"546 273 CURVE SMOOTH",
"546 296 OFFCURVE",
"532 313 OFFCURVE",
"495 313 CURVE SMOOTH",
"358 313 LINE SMOOTH",
"311 313 OFFCURVE",
"297 297 OFFCURVE",
"297 274 CURVE SMOOTH",
"297 250 OFFCURVE",
"311 233 OFFCURVE",
"358 233 CURVE SMOOTH"
);
}
);
vertWidth = 0;
width = 600;
}
);
note = G;
unicode = 0047;
},
{
glyphname = Gamma;
layers = (
{
layerId = "FB41A910-D058-4278-9D39-63B3F9D49349";
paths = (
{
closed = 1;
nodes = (
"495 570 LINE SMOOTH",
"532 570 OFFCURVE",
"546 586 OFFCURVE",
"546 610 CURVE SMOOTH",
"546 634 OFFCURVE",
"532 650 OFFCURVE",
"495 650 CURVE SMOOTH",
"137 650 LINE SMOOTH",
"100 650 OFFCURVE",
"86 635 OFFCURVE",
"86 611 CURVE SMOOTH",
"86 587 OFFCURVE",
"100 570 OFFCURVE",
"137 570 CURVE SMOOTH"
);
},
{
closed = 1;
nodes = (
"167 598 LINE SMOOTH",
"167 636 OFFCURVE",
"150 650 OFFCURVE",
"124 650 CURVE SMOOTH",
"98 650 OFFCURVE",
"80 636 OFFCURVE",
"80 598 CURVE SMOOTH",
"80 52 LINE SMOOTH",
"80 14 OFFCURVE",
"97 0 OFFCURVE",
"123 0 CURVE SMOOTH",
"149 0 OFFCURVE",
"167 14 OFFCURVE",
"167 52 CURVE SMOOTH"
);
}
);
vertWidth = 0;
width = 600;
}
);
note = Gamma;
unicode = 0393;
},
{
glyphname = Gcommaaccent;
layers = (
{
anchors = (
{
name = bottom;
position = "{300, 0}";
},
{
name = top;
position = "{300, 680}";
}
);
components = (
{
name = G;
}
);
layerId = "FB41A910-D058-4278-9D39-63B3F9D49349";
paths = (
{
closed = 1;
nodes = (
"302 -154 OFFCURVE",
"307 -155 OFFCURVE",
"318 -146 CURVE",
"314 -195 OFFCURVE",
"281 -204 OFFCURVE",
"252 -201 CURVE SMOOTH",
"237 -200 OFFCURVE",
"228 -211 OFFCURVE",
"227 -226 CURVE SMOOTH",
"226 -240 OFFCURVE",
"237 -249 OFFCURVE",
"250 -250 CURVE SMOOTH",
"302 -254 OFFCURVE",
"362 -226 OFFCURVE",
"369 -125 CURVE SMOOTH",
"373 -80 OFFCURVE",
"350 -48 OFFCURVE",
"306 -45 CURVE SMOOTH",
"267 -42 OFFCURVE",
"244 -71 OFFCURVE",
"242 -100 CURVE SMOOTH",
"239 -129 OFFCURVE",
"268 -153 OFFCURVE",
"290 -154 CURVE SMOOTH"
);
}
);
vertWidth = 0;
width = 600;
}
);
note = "";
unicode = 0122;
},
{
glyphname = Germandbls;
layers = (
{
layerId = "FB41A910-D058-4278-9D39-63B3F9D49349";
paths = (
{
closed = 1;
nodes = (
"81 651 LINE SMOOTH",
"49 651 OFFCURVE",
"31 633 OFFCURVE",
"31 601 CURVE SMOOTH",
"31 43 LINE SMOOTH",
"31 15 OFFCURVE",
"46 0 OFFCURVE",
"74 0 CURVE SMOOTH",
"103 0 OFFCURVE",
"118 15 OFFCURVE",
"118 43 CURVE SMOOTH",
"118 569 LINE",
"416 569 LINE",
"304 341 LINE SMOOTH",
"292 317 OFFCURVE",
"308 304 OFFCURVE",
"346 298 CURVE SMOOTH",
"421 286 OFFCURVE",
"479 260 OFFCURVE",
"479 177 CURVE SMOOTH",
"479 102 OFFCURVE",
"407 79 OFFCURVE",
"372 79 CURVE SMOOTH",
"329 79 OFFCURVE",
"283 91 OFFCURVE",
"249 120 CURVE SMOOTH",
"224 142 OFFCURVE",
"205 148 OFFCURVE",
"185 128 CURVE SMOOTH",
"164 107 OFFCURVE",
"159 83 OFFCURVE",
"181 60 CURVE SMOOTH",
"227 14 OFFCURVE",
"300 -12 OFFCURVE",
"365 -12 CURVE SMOOTH",
"469 -12 OFFCURVE",
"569 50 OFFCURVE",
"569 167 CURVE SMOOTH",
"569 257 OFFCURVE",
"530 323 OFFCURVE",
"407 364 CURVE",
"520 592 LINE SMOOTH",
"537 626 OFFCURVE",
"521 651 OFFCURVE",
"483 651 CURVE SMOOTH"
);
}
);
vertWidth = 0;
width = 600;
}
);
note = "";
unicode = 1E9E;
},
{
glyphname = H;
layers = (
{
anchors = (
{
name = bottom;
position = "{309, 0}";
},
{
name = center;
position = "{309, 325}";
},
{
name = top;
position = "{309, 670}";
},
{
name = topleft;
position = "{303, 550}";
}
);
layerId = "FB41A910-D058-4278-9D39-63B3F9D49349";
paths = (
{
closed = 1;
nodes = (
"472 296 LINE SMOOTH",
"509 296 OFFCURVE",
"523 312 OFFCURVE",
"523 336 CURVE SMOOTH",
"523 360 OFFCURVE",
"509 376 OFFCURVE",
"472 376 CURVE SMOOTH",
"128 376 LINE SMOOTH",
"91 376 OFFCURVE",
"77 361 OFFCURVE",
"77 337 CURVE SMOOTH",
"77 313 OFFCURVE",
"91 296 OFFCURVE",
"128 296 CURVE SMOOTH"
);
},
{
closed = 1;
nodes = (
"158 598 LINE SMOOTH",
"158 636 OFFCURVE",
"141 650 OFFCURVE",
"115 650 CURVE SMOOTH",
"89 650 OFFCURVE",
"71 636 OFFCURVE",
"71 598 CURVE SMOOTH",
"71 52 LINE SMOOTH",
"71 14 OFFCURVE",
"88 0 OFFCURVE",
"114 0 CURVE SMOOTH",
"140 0 OFFCURVE",
"158 14 OFFCURVE",
"158 52 CURVE SMOOTH"
);
},
{
closed = 1;
nodes = (
"529 598 LINE SMOOTH",
"529 636 OFFCURVE",
"512 650 OFFCURVE",
"486 650 CURVE SMOOTH",
"460 650 OFFCURVE",
"442 636 OFFCURVE",
"442 598 CURVE SMOOTH",
"442 52 LINE SMOOTH",
"442 14 OFFCURVE",
"459 0 OFFCURVE",
"485 0 CURVE SMOOTH",
"511 0 OFFCURVE",
"529 14 OFFCURVE",
"529 52 CURVE SMOOTH"
);
}
);
vertWidth = 0;
width = 600;
}
);
note = H;
unicode = 0048;
},
{
glyphname = Hbar;
layers = (
{
anchors = (
{
name = bottom;
position = "{301, 0}";
},
{
name = center;
position = "{301, 325}";
},
{
name = top;
position = "{301, 670}";
},
{
name = topleft;
position = "{295, 550}";
}
);
layerId = "FB41A910-D058-4278-9D39-63B3F9D49349";
paths = (
{
closed = 1;
nodes = (
"472 296 LINE SMOOTH",
"509 296 OFFCURVE",
"523 312 OFFCURVE",
"523 336 CURVE SMOOTH",
"523 360 OFFCURVE",
"509 376 OFFCURVE",
"472 376 CURVE SMOOTH",
"129 376 LINE SMOOTH",
"92 376 OFFCURVE",
"78 361 OFFCURVE",
"78 337 CURVE SMOOTH",
"78 313 OFFCURVE",
"92 296 OFFCURVE",
"129 296 CURVE SMOOTH"
);
},
{
closed = 1;
nodes = (
"159 598 LINE SMOOTH",
"159 636 OFFCURVE",
"142 650 OFFCURVE",
"116 650 CURVE SMOOTH",
"90 650 OFFCURVE",
"72 636 OFFCURVE",
"72 598 CURVE SMOOTH",
"72 52 LINE SMOOTH",
"72 14 OFFCURVE",
"89 0 OFFCURVE",
"115 0 CURVE SMOOTH",
"141 0 OFFCURVE",
"159 14 OFFCURVE",
"159 52 CURVE SMOOTH"
);
},
{
closed = 1;
nodes = (
"529 598 LINE SMOOTH",
"529 636 OFFCURVE",
"512 650 OFFCURVE",
"486 650 CURVE SMOOTH",
"460 650 OFFCURVE",
"442 636 OFFCURVE",
"442 598 CURVE SMOOTH",
"442 52 LINE SMOOTH",
"442 14 OFFCURVE",
"459 0 OFFCURVE",
"485 0 CURVE SMOOTH",
"511 0 OFFCURVE",
"529 14 OFFCURVE",
"529 52 CURVE SMOOTH"
);
},
{
closed = 1;
nodes = (
"542 466 LINE SMOOTH",
"579 466 OFFCURVE",
"593 482 OFFCURVE",
"593 506 CURVE SMOOTH",
"593 530 OFFCURVE",
"579 546 OFFCURVE",
"542 546 CURVE SMOOTH",
"59 546 LINE SMOOTH",
"22 546 OFFCURVE",
"8 531 OFFCURVE",
"8 507 CURVE SMOOTH",
"8 483 OFFCURVE",
"22 466 OFFCURVE",
"59 466 CURVE SMOOTH"
);
}
);
vertWidth = 0;
width = 600;
}
);
note = Hbar;
unicode = 0126;
},
{
glyphname = I;
layers = (
{
anchors = (
{
name = bottom;
position = "{240, 0}";
},
{
name = ogonek;
position = "{431, 10}";
},
{
name = top;
position = "{240, 670}";
},
{
name = topleft;
position = "{20, 650}";
}
);
layerId = "FB41A910-D058-4278-9D39-63B3F9D49349";
paths = (
{
closed = 1;
nodes = (
"479 571 LINE SMOOTH",
"516 571 OFFCURVE",
"530 588 OFFCURVE",
"530 611 CURVE SMOOTH",
"530 633 OFFCURVE",
"516 651 OFFCURVE",
"479 651 CURVE SMOOTH",
"121 651 LINE SMOOTH",
"84 651 OFFCURVE",
"70 634 OFFCURVE",
"70 612 CURVE SMOOTH",
"70 589 OFFCURVE",
"84 571 OFFCURVE",
"121 571 CURVE SMOOTH"
);
},
{
closed = 1;
nodes = (
"344 579 LINE SMOOTH",
"344 617 OFFCURVE",
"327 631 OFFCURVE",
"301 631 CURVE SMOOTH",
"275 631 OFFCURVE",
"257 617 OFFCURVE",
"257 579 CURVE SMOOTH",
"257 80 LINE SMOOTH",
"257 42 OFFCURVE",
"274 28 OFFCURVE",
"300 28 CURVE SMOOTH",
"326 28 OFFCURVE",
"344 42 OFFCURVE",
"344 80 CURVE SMOOTH"
);
},
{
closed = 1;
nodes = (
"479 0 LINE SMOOTH",
"516 0 OFFCURVE",
"530 17 OFFCURVE",
"530 40 CURVE SMOOTH",
"530 62 OFFCURVE",
"516 80 OFFCURVE",
"479 80 CURVE SMOOTH",
"121 80 LINE SMOOTH",
"84 80 OFFCURVE",
"70 63 OFFCURVE",
"70 41 CURVE SMOOTH",
"70 18 OFFCURVE",
"84 0 OFFCURVE",
"121 0 CURVE SMOOTH"
);
}
);
vertWidth = 0;
width = 600;
}
);
note = I;
unicode = 0049;
},
{
glyphname = IJ;
layers = (
{
anchors = (
{
name = bottom;
position = "{134, 0}";
},
{
name = ogonek;
position = "{325, 10}";
},
{
name = top;
position = "{134, 670}";
},
{
name = topleft;
position = "{-86, 650}";
}
);
layerId = "FB41A910-D058-4278-9D39-63B3F9D49349";
paths = (
{
closed = 1;
nodes = (
"242 571 LINE SMOOTH",
"279 571 OFFCURVE",
"293 588 OFFCURVE",
"293 611 CURVE SMOOTH",
"293 633 OFFCURVE",
"279 651 OFFCURVE",
"242 651 CURVE SMOOTH",
"105 651 LINE SMOOTH",
"68 651 OFFCURVE",
"54 634 OFFCURVE",
"54 612 CURVE SMOOTH",
"54 589 OFFCURVE",
"68 571 OFFCURVE",
"105 571 CURVE SMOOTH"
);
},
{
closed = 1;
nodes = (
"217 579 LINE SMOOTH",
"217 617 OFFCURVE",
"200 631 OFFCURVE",
"174 631 CURVE SMOOTH",
"148 631 OFFCURVE",
"130 617 OFFCURVE",
"130 579 CURVE SMOOTH",
"130 80 LINE SMOOTH",
"130 42 OFFCURVE",
"147 28 OFFCURVE",
"173 28 CURVE SMOOTH",
"199 28 OFFCURVE",
"217 42 OFFCURVE",
"217 80 CURVE SMOOTH"
);
},
{
closed = 1;
nodes = (
"242 0 LINE SMOOTH",
"279 0 OFFCURVE",
"293 17 OFFCURVE",
"293 40 CURVE SMOOTH",
"293 62 OFFCURVE",
"279 80 OFFCURVE",
"242 80 CURVE SMOOTH",
"105 80 LINE SMOOTH",
"68 80 OFFCURVE",
"54 63 OFFCURVE",
"54 41 CURVE SMOOTH",
"54 18 OFFCURVE",
"68 0 OFFCURVE",
"105 0 CURVE SMOOTH"
);
},
{
closed = 1;
nodes = (
"546 599 LINE SMOOTH",
"546 636 OFFCURVE",
"529 648 OFFCURVE",
"504 648 CURVE SMOOTH",
"479 648 OFFCURVE",
"459 636 OFFCURVE",
"459 599 CURVE SMOOTH",
"459 242 LINE SMOOTH",
"459 165 OFFCURVE",
"476 151 OFFCURVE",
"503 151 CURVE SMOOTH",
"528 151 OFFCURVE",
"546 165 OFFCURVE",
"546 242 CURVE SMOOTH"
);
},
{
closed = 1;
nodes = (
"332 82 OFFCURVE",
"320 67 OFFCURVE",
"320 40 CURVE SMOOTH",
"320 13 OFFCURVE",
"332 -3 OFFCURVE",
"374 -3 CURVE SMOOTH",
"434 -4 OFFCURVE",
"546 47 OFFCURVE",
"546 241 CURVE",
"459 241 LINE",
"459 87 OFFCURVE",
"386 82 OFFCURVE",
"374 82 CURVE SMOOTH"
);
},
{
closed = 1;
nodes = (
"495 571 LINE SMOOTH",
"532 571 OFFCURVE",
"546 588 OFFCURVE",
"546 611 CURVE SMOOTH",
"546 633 OFFCURVE",
"532 651 OFFCURVE",
"495 651 CURVE SMOOTH",
"378 651 LINE SMOOTH",
"341 651 OFFCURVE",
"327 634 OFFCURVE",
"327 612 CURVE SMOOTH",
"327 589 OFFCURVE",
"341 571 OFFCURVE",
"378 571 CURVE SMOOTH"
);
}
);
vertWidth = 0;
width = 600;
}
);
note = IJ;
unicode = 0132;
},
{
glyphname = Iotatonos;
layers = (
{
anchors = (
{
name = _top;
position = "{118.582, 486.875}";
},
{
name = top;
position = "{366, 670}";
},
{
name = bottom;
position = "{366, 0}";
},
{
name = ogonek;
position = "{557, 10}";
},
{
name = topleft;
position = "{146, 650}";
}
);
components = (
{
name = acutecomb;
transform = "{0.93969, 0.34202, -0.34202, 0.93969, 31, -59}";
}
);
layerId = "FB41A910-D058-4278-9D39-63B3F9D49349";
paths = (
{
closed = 1;
nodes = (
"504 571 LINE SMOOTH",
"541 571 OFFCURVE",
"555 588 OFFCURVE",
"555 611 CURVE SMOOTH",
"555 633 OFFCURVE",
"541 651 OFFCURVE",
"504 651 CURVE SMOOTH",
"227 651 LINE SMOOTH",
"190 651 OFFCURVE",
"176 634 OFFCURVE",
"176 612 CURVE SMOOTH",
"176 589 OFFCURVE",
"190 571 OFFCURVE",
"227 571 CURVE SMOOTH"
);
},
{
closed = 1;
nodes = (
"409 579 LINE SMOOTH",
"409 617 OFFCURVE",
"392 631 OFFCURVE",
"366 631 CURVE SMOOTH",
"340 631 OFFCURVE",
"322 617 OFFCURVE",
"322 579 CURVE SMOOTH",
"322 80 LINE SMOOTH",
"322 42 OFFCURVE",
"339 28 OFFCURVE",
"365 28 CURVE SMOOTH",
"391 28 OFFCURVE",
"409 42 OFFCURVE",
"409 80 CURVE SMOOTH"
);
},
{
closed = 1;
nodes = (
"504 0 LINE SMOOTH",
"541 0 OFFCURVE",
"555 17 OFFCURVE",
"555 40 CURVE SMOOTH",
"555 62 OFFCURVE",
"541 80 OFFCURVE",
"504 80 CURVE SMOOTH",
"227 80 LINE SMOOTH",
"190 80 OFFCURVE",
"176 63 OFFCURVE",
"176 41 CURVE SMOOTH",
"176 18 OFFCURVE",
"190 0 OFFCURVE",
"227 0 CURVE SMOOTH"
);
}
);
vertWidth = 0;
width = 600;
}
);
note = Iotatonos;
unicode = 038A;
},
{
glyphname = J;
layers = (
{
anchors = (
{
name = bottom;
position = "{252, 0}";
},
{
name = top;
position = "{252, 670}";
}
);
layerId = "FB41A910-D058-4278-9D39-63B3F9D49349";
paths = (
{
closed = 1;
nodes = (
"443 599 LINE SMOOTH",
"443 637 OFFCURVE",
"426 648 OFFCURVE",
"401 648 CURVE SMOOTH",
"376 648 OFFCURVE",
"356 636 OFFCURVE",
"356 599 CURVE SMOOTH",
"356 205 LINE SMOOTH",
"356 122 OFFCURVE",
"313 76 OFFCURVE",
"241 76 CURVE SMOOTH",
"195 76 OFFCURVE",
"165 99 OFFCURVE",
"148 133 CURVE SMOOTH",
"135 160 OFFCURVE",
"119 170 OFFCURVE",
"93 160 CURVE",
"93 160 LINE",
"67 150 OFFCURVE",
"55 131 OFFCURVE",
"66 105 CURVE SMOOTH",
"90 49 OFFCURVE",
"146 -10 OFFCURVE",
"241 -10 CURVE SMOOTH",
"361 -10 OFFCURVE",
"443 72 OFFCURVE",
"443 205 CURVE SMOOTH"
);
},
{
closed = 1;
nodes = (
"502 571 LINE SMOOTH",
"539 571 OFFCURVE",
"553 588 OFFCURVE",
"553 611 CURVE SMOOTH",
"553 633 OFFCURVE",
"539 651 OFFCURVE",
"502 651 CURVE SMOOTH",
"215 651 LINE SMOOTH",
"178 651 OFFCURVE",
"164 634 OFFCURVE",
"164 612 CURVE SMOOTH",
"164 589 OFFCURVE",
"178 571 OFFCURVE",
"215 571 CURVE SMOOTH"
);
}
);
vertWidth = 0;
width = 600;
}
);
note = J;
unicode = 004A;
},
{
glyphname = K;
layers = (
{
anchors = (
{
name = bottom;
position = "{278, 0}";
},
{
name = top;
position = "{278, 670}";
}
);
layerId = "FB41A910-D058-4278-9D39-63B3F9D49349";
paths = (
{
closed = 1;
nodes = (
"105 122 LINE",
"125 122 LINE",
"476 575 LINE",
"497 606 OFFCURVE",
"491 628 OFFCURVE",
"471 641 CURVE SMOOTH",
"450 656 OFFCURVE",
"428 655 OFFCURVE",
"406 625 CURVE",
"105 224 LINE"
);
},
{
closed = 1;
nodes = (
"225 340 LINE",
"446 25 LINE",
"468 -5 OFFCURVE",
"490 -6 OFFCURVE",
"511 9 CURVE SMOOTH",
"531 22 OFFCURVE",
"537 44 OFFCURVE",
"516 75 CURVE",
"283 407 LINE"
);
},
{
closed = 1;
nodes = (
"158 598 LINE SMOOTH",
"158 636 OFFCURVE",
"141 650 OFFCURVE",
"115 650 CURVE SMOOTH",
"89 650 OFFCURVE",
"71 636 OFFCURVE",
"71 598 CURVE SMOOTH",
"71 52 LINE SMOOTH",
"71 14 OFFCURVE",
"88 0 OFFCURVE",
"114 0 CURVE SMOOTH",
"140 0 OFFCURVE",
"158 14 OFFCURVE",
"158 52 CURVE SMOOTH"
);
}
);
vertWidth = 0;
width = 600;
}
);
note = K;
unicode = 004B;
},
{
glyphname = Kcommaaccent;
layers = (
{
anchors = (
{
name = bottom;
position = "{288, 0}";
},
{
name = top;
position = "{288, 670}";
}
);
components = (
{
name = K;
transform = "{1, 0, 0, 1, 10, 0}";
}
);
layerId = "FB41A910-D058-4278-9D39-63B3F9D49349";
paths = (
{
closed = 1;
nodes = (
"302 -154 OFFCURVE",
"307 -155 OFFCURVE",
"318 -146 CURVE",
"314 -195 OFFCURVE",
"281 -204 OFFCURVE",
"252 -201 CURVE SMOOTH",
"237 -200 OFFCURVE",
"228 -211 OFFCURVE",
"227 -226 CURVE SMOOTH",
"226 -240 OFFCURVE",
"237 -249 OFFCURVE",
"250 -250 CURVE SMOOTH",
"302 -254 OFFCURVE",
"362 -226 OFFCURVE",
"369 -125 CURVE SMOOTH",
"373 -80 OFFCURVE",
"350 -48 OFFCURVE",
"306 -45 CURVE SMOOTH",
"267 -42 OFFCURVE",
"244 -71 OFFCURVE",
"242 -100 CURVE SMOOTH",
"239 -129 OFFCURVE",
"268 -153 OFFCURVE",
"290 -154 CURVE SMOOTH"
);
}
);
vertWidth = 0;
width = 600;
}
);
note = "";
unicode = 0136;
},
{
glyphname = L;
layers = (
{
anchors = (
{
name = bottom;
position = "{238, 0}";
},
{
name = center;
position = "{238, 325}";
},
{
name = top;
position = "{238, 670}";
},
{
name = topright;
position = "{465, 650}";
}
);
layerId = "FB41A910-D058-4278-9D39-63B3F9D49349";
paths = (
{
closed = 1;
nodes = (
"71 74 LINE SMOOTH",
"71 26 OFFCURVE",
"98 -1 OFFCURVE",
"146 -1 CURVE SMOOTH",
"479 -1 LINE SMOOTH",
"516 -1 OFFCURVE",
"530 17 OFFCURVE",
"530 43 CURVE SMOOTH",
"530 69 OFFCURVE",
"516 86 OFFCURVE",
"479 86 CURVE SMOOTH",
"158 86 LINE",
"158 438 LINE",
"71 438 LINE"
);
},
{
closed = 1;
nodes = (
"71 376 OFFCURVE",
"89 362 OFFCURVE",
"115 362 CURVE SMOOTH",
"141 362 OFFCURVE",
"158 376 OFFCURVE",
"158 413 CURVE SMOOTH",
"158 600 LINE SMOOTH",
"158 637 OFFCURVE",
"140 651 OFFCURVE",
"114 651 CURVE SMOOTH",
"88 651 OFFCURVE",
"71 637 OFFCURVE",
"71 600 CURVE SMOOTH",
"71 413 LINE SMOOTH"
);
}
);
vertWidth = 0;
width = 600;
}
);
note = L;
unicode = 004C;
},
{
glyphname = Lambda;
layers = (
{
layerId = "FB41A910-D058-4278-9D39-63B3F9D49349";
paths = (
{
closed = 1;
nodes = (
"32 34 OFFCURVE",
"44 13 OFFCURVE",
"69 3 CURVE SMOOTH",
"94 -5 OFFCURVE",
"116 1 OFFCURVE",
"130 40 CURVE SMOOTH",
"300 503 LINE",
"470 40 LINE SMOOTH",
"484 1 OFFCURVE",
"506 -5 OFFCURVE",
"531 3 CURVE SMOOTH",
"556 13 OFFCURVE",
"568 34 OFFCURVE",
"554 71 CURVE SMOOTH",
"346 620 LINE SMOOTH",
"336 646 OFFCURVE",
"324 659 OFFCURVE",
"300 659 CURVE SMOOTH",
"276 659 OFFCURVE",
"264 646 OFFCURVE",
"254 620 CURVE SMOOTH",
"46 71 LINE SMOOTH"
);
}
);
vertWidth = 0;
width = 600;
}
);
note = Lambda;
unicode = 039B;
},
{
glyphname = Lcommaaccent;
layers = (
{
anchors = (
{
name = bottom;
position = "{238, 0}";
},
{
name = center;
position = "{238, 325}";
},
{
name = top;
position = "{238, 670}";
},
{
name = topright;
position = "{465, 650}";
}
);
components = (
{
name = L;
}
);
layerId = "FB41A910-D058-4278-9D39-63B3F9D49349";
paths = (
{
closed = 1;
nodes = (
"302 -154 OFFCURVE",
"307 -155 OFFCURVE",
"318 -146 CURVE",
"314 -195 OFFCURVE",
"281 -204 OFFCURVE",
"252 -201 CURVE SMOOTH",
"237 -200 OFFCURVE",
"228 -211 OFFCURVE",
"227 -226 CURVE SMOOTH",
"226 -240 OFFCURVE",
"237 -249 OFFCURVE",
"250 -250 CURVE SMOOTH",
"302 -254 OFFCURVE",
"362 -226 OFFCURVE",
"369 -125 CURVE SMOOTH",
"373 -80 OFFCURVE",
"350 -48 OFFCURVE",
"306 -45 CURVE SMOOTH",
"267 -42 OFFCURVE",
"244 -71 OFFCURVE",
"242 -100 CURVE SMOOTH",
"239 -129 OFFCURVE",
"268 -153 OFFCURVE",
"290 -154 CURVE SMOOTH"
);
}
);
vertWidth = 0;
width = 600;
}
);
note = "";
unicode = 013B;
},
{
glyphname = Lslash;
layers = (
{
anchors = (
{
name = bottom;
position = "{279, 0}";
},
{
name = center;
position = "{279, 325}";
},
{
name = top;
position = "{279, 670}";
},
{
name = topright;
position = "{506, 650}";
}
);
components = (
{
name = L;
transform = "{1, 0, 0, 1, 41, 0}";
}
);
layerId = "FB41A910-D058-4278-9D39-63B3F9D49349";
paths = (
{
closed = 1;
nodes = (
"64 95 OFFCURVE",
"87 99 OFFCURVE",
"103 120 CURVE SMOOTH",
"378 497 LINE SMOOTH",
"393 517 OFFCURVE",
"387 542 OFFCURVE",
"370 556 CURVE SMOOTH",
"350 568 OFFCURVE",
"327 563 OFFCURVE",
"313 543 CURVE SMOOTH",
"38 165 LINE SMOOTH",
"23 145 OFFCURVE",
"27 120 OFFCURVE",
"45 108 CURVE SMOOTH"
);
}
);
vertWidth = 0;
width = 600;
}
);
note = Lslash;
unicode = 0141;
},
{
glyphname = M;
layers = (
{
anchors = (
{
name = bottom;
position = "{310, 0}";
},
{
name = top;
position = "{310, 670}";
}
);
layerId = "FB41A910-D058-4278-9D39-63B3F9D49349";
paths = (
{
closed = 1;
nodes = (
"531 606 LINE SMOOTH",
"531 643 OFFCURVE",
"514 657 OFFCURVE",
"488 657 CURVE SMOOTH",
"463 657 OFFCURVE",
"448 642 OFFCURVE",
"436 615 CURVE SMOOTH",
"300 297 LINE",
"164 615 LINE SMOOTH",
"152 642 OFFCURVE",
"137 657 OFFCURVE",
"112 657 CURVE SMOOTH",
"86 657 OFFCURVE",
"68 643 OFFCURVE",
"68 606 CURVE SMOOTH",
"68 50 LINE SMOOTH",
"68 13 OFFCURVE",
"85 -1 OFFCURVE",
"111 -1 CURVE SMOOTH",
"137 -1 OFFCURVE",
"155 13 OFFCURVE",
"155 50 CURVE SMOOTH",
"155 432 LINE",
"245 231 LINE SMOOTH",
"264 189 OFFCURVE",
"279 182 OFFCURVE",
"300 182 CURVE SMOOTH",
"321 182 OFFCURVE",
"336 188 OFFCURVE",
"355 231 CURVE SMOOTH",
"444 432 LINE",
"444 50 LINE SMOOTH",
"444 13 OFFCURVE",
"461 -1 OFFCURVE",
"487 -1 CURVE SMOOTH",
"513 -1 OFFCURVE",
"531 13 OFFCURVE",
"531 50 CURVE SMOOTH"
);
}
);
vertWidth = 0;
width = 600;
}
);
note = M;
unicode = 004D;
},
{
glyphname = N;
layers = (
{
anchors = (
{
name = bottom;
position = "{310, 0}";
},
{
name = top;
position = "{310, 670}";
}
);
layerId = "FB41A910-D058-4278-9D39-63B3F9D49349";
paths = (
{
closed = 1;
nodes = (
"446 178 LINE",
"162 629 LINE SMOOTH",
"142 661 OFFCURVE",
"111 658 OFFCURVE",
"91 643 CURVE SMOOTH",
"71 625 OFFCURVE",
"72 612 OFFCURVE",
"92 581 CURVE SMOOTH",
"446 21 LINE"
);
},
{
closed = 1;
nodes = (
"158 599 LINE SMOOTH",
"158 637 OFFCURVE",
"141 651 OFFCURVE",
"115 651 CURVE SMOOTH",
"89 651 OFFCURVE",
"71 637 OFFCURVE",
"71 599 CURVE SMOOTH",
"71 52 LINE SMOOTH",
"71 14 OFFCURVE",
"88 0 OFFCURVE",
"114 0 CURVE SMOOTH",
"140 0 OFFCURVE",
"158 14 OFFCURVE",
"158 52 CURVE SMOOTH"
);
},
{
closed = 1;
nodes = (
"529 598 LINE SMOOTH",
"529 636 OFFCURVE",
"512 650 OFFCURVE",
"486 650 CURVE SMOOTH",
"460 650 OFFCURVE",
"442 636 OFFCURVE",
"442 598 CURVE SMOOTH",
"442 52 LINE SMOOTH",
"442 14 OFFCURVE",
"459 0 OFFCURVE",
"485 0 CURVE SMOOTH",
"511 0 OFFCURVE",
"529 14 OFFCURVE",
"529 52 CURVE SMOOTH"
);
}
);
vertWidth = 0;
width = 600;
}
);
note = N;
unicode = 004E;
},
{
glyphname = Ncommaaccent;
layers = (
{
anchors = (
{
name = bottom;
position = "{310, 0}";
},
{
name = top;
position = "{310, 670}";
}
);
components = (
{
name = N;
}
);
layerId = "FB41A910-D058-4278-9D39-63B3F9D49349";
paths = (
{
closed = 1;
nodes = (
"302 -154 OFFCURVE",
"307 -155 OFFCURVE",
"318 -146 CURVE",
"314 -195 OFFCURVE",
"281 -204 OFFCURVE",
"252 -201 CURVE SMOOTH",
"237 -200 OFFCURVE",
"228 -211 OFFCURVE",
"227 -226 CURVE SMOOTH",
"226 -240 OFFCURVE",
"237 -249 OFFCURVE",
"250 -250 CURVE SMOOTH",
"302 -254 OFFCURVE",
"362 -226 OFFCURVE",
"369 -125 CURVE SMOOTH",
"373 -80 OFFCURVE",
"350 -48 OFFCURVE",
"306 -45 CURVE SMOOTH",
"267 -42 OFFCURVE",
"244 -71 OFFCURVE",
"242 -100 CURVE SMOOTH",
"239 -129 OFFCURVE",
"268 -153 OFFCURVE",
"290 -154 CURVE SMOOTH"
);
}
);
vertWidth = 0;
width = 600;
}
);
note = "";
unicode = 0145;
},
{
glyphname = O;
layers = (
{
anchors = (
{
name = bottom;
position = "{300, 0}";
},
{
name = center;
position = "{300, 325}";
},
{
name = ogonek;
position = "{541, 10}";
},
{
name = top;
position = "{300, 690}";
},
{
name = topleft;
position = "{19, 650}";
},
{
name = topright;
position = "{581, 650}";
}
);
layerId = "FB41A910-D058-4278-9D39-63B3F9D49349";
paths = (
{
closed = 1;
nodes = (
"476 663 OFFCURVE",
"561 506 OFFCURVE",
"561 331 CURVE SMOOTH",
"561 132 OFFCURVE",
"467 -9 OFFCURVE",
"300 -10 CURVE SMOOTH",
"133 -9 OFFCURVE",
"39 132 OFFCURVE",
"39 331 CURVE SMOOTH",
"39 506 OFFCURVE",
"124 663 OFFCURVE",
"300 664 CURVE SMOOTH"
);
},
{
closed = 1;
nodes = (
"129 170 OFFCURVE",
"188 76 OFFCURVE",
"300 76 CURVE SMOOTH",
"412 76 OFFCURVE",
"471 170 OFFCURVE",
"471 331 CURVE SMOOTH",
"471 492 OFFCURVE",
"413 578 OFFCURVE",
"300 578 CURVE SMOOTH",
"187 578 OFFCURVE",
"129 492 OFFCURVE",
"129 331 CURVE SMOOTH"
);
}
);
vertWidth = 0;
width = 600;
}
);
note = O;
unicode = 004F;
},
{
glyphname = OE;
layers = (
{
layerId = "FB41A910-D058-4278-9D39-63B3F9D49349";
paths = (
{
closed = 1;
nodes = (
"320 -11 OFFCURVE",
"374 132 OFFCURVE",
"374 331 CURVE SMOOTH",
"374 506 OFFCURVE",
"339 665 OFFCURVE",
"203 664 CURVE SMOOTH",
"87 663 OFFCURVE",
"2 506 OFFCURVE",
"2 331 CURVE SMOOTH",
"2 132 OFFCURVE",
"96 -9 OFFCURVE",
"203 -10 CURVE SMOOTH"
);
},
{
closed = 1;
nodes = (
"145 76 OFFCURVE",
"86 170 OFFCURVE",
"86 331 CURVE SMOOTH",
"86 492 OFFCURVE",
"144 578 OFFCURVE",
"203 578 CURVE SMOOTH",
"266 578 OFFCURVE",
"324 492 OFFCURVE",
"324 331 CURVE SMOOTH",
"324 170 OFFCURVE",
"265 76 OFFCURVE",
"203 76 CURVE SMOOTH"
);
},
{
closed = 1;
nodes = (
"542 0 LINE SMOOTH",
"579 0 OFFCURVE",
"593 18 OFFCURVE",
"593 41 CURVE SMOOTH",
"593 62 OFFCURVE",
"579 80 OFFCURVE",
"542 80 CURVE SMOOTH",
"411 80 LINE",
"411 305 LINE",
"482 305 LINE SMOOTH",
"519 305 OFFCURVE",
"533 322 OFFCURVE",
"533 345 CURVE SMOOTH",
"533 367 OFFCURVE",
"519 385 OFFCURVE",
"482 385 CURVE SMOOTH",
"411 385 LINE",
"411 570 LINE",
"542 570 LINE SMOOTH",
"579 570 OFFCURVE",
"593 587 OFFCURVE",
"593 611 CURVE SMOOTH",
"593 632 OFFCURVE",
"579 650 OFFCURVE",
"542 650 CURVE SMOOTH",
"399 650 LINE SMOOTH",
"351 650 OFFCURVE",
"324 623 OFFCURVE",
"324 575 CURVE SMOOTH",
"324 75 LINE SMOOTH",
"324 27 OFFCURVE",
"351 0 OFFCURVE",
"399 0 CURVE SMOOTH"
);
}
);
vertWidth = 0;
width = 600;
}
);
note = OE;
unicode = 0152;
},
{
glyphname = Omegatonos;
layers = (
{
anchors = (
{
name = _top;
position = "{118.582, 486.875}";
},
{
name = top;
position = "{-15.079, 909.657}";
}
);
components = (
{
name = acutecomb;
transform = "{0.93969, 0.34202, -0.34202, 0.93969, 31, -59}";
}
);
layerId = "FB41A910-D058-4278-9D39-63B3F9D49349";
paths = (
{
closed = 1;
nodes = (
"280 160 LINE SMOOTH",
"280 171 OFFCURVE",
"275 179 OFFCURVE",
"265 184 CURVE SMOOTH",
"203 216 OFFCURVE",
"170 288 OFFCURVE",
"170 371 CURVE SMOOTH",
"170 492 OFFCURVE",
"228 578 OFFCURVE",
"321 578 CURVE SMOOTH",
"414 578 OFFCURVE",
"472 492 OFFCURVE",
"472 371 CURVE SMOOTH",
"472 293 OFFCURVE",
"443 224 OFFCURVE",
"387 190 CURVE SMOOTH",
"378 184 OFFCURVE",
"373 177 OFFCURVE",
"373 166 CURVE",
"373 43 LINE",
"373 16 OFFCURVE",
"390 0 OFFCURVE",
"417 0 CURVE SMOOTH",
"531 0 LINE SMOOTH",
"569 0 OFFCURVE",
"583 18 OFFCURVE",
"583 44 CURVE SMOOTH",
"583 70 OFFCURVE",
"569 87 OFFCURVE",
"531 87 CURVE SMOOTH",
"450 87 LINE",
"450 136 LINE",
"526 191 OFFCURVE",
"562 279 OFFCURVE",
"562 371 CURVE SMOOTH",
"562 506 OFFCURVE",
"477 663 OFFCURVE",
"321 664 CURVE SMOOTH",
"165 665 OFFCURVE",
"80 506 OFFCURVE",
"80 371 CURVE SMOOTH",
"80 274 OFFCURVE",
"119 181 OFFCURVE",
"203 128 CURVE",
"203 87 LINE",
"122 87 LINE SMOOTH",
"84 87 OFFCURVE",
"70 70 OFFCURVE",
"70 44 CURVE SMOOTH",
"70 18 OFFCURVE",
"84 0 OFFCURVE",
"122 0 CURVE SMOOTH",
"236 0 LINE SMOOTH",
"263 0 OFFCURVE",
"280 16 OFFCURVE",
"280 43 CURVE SMOOTH"
);
}
);
vertWidth = 0;
width = 600;
}
);
note = Omegatonos;
unicode = 038F;
},
{
glyphname = Oslash;
layers = (
{
anchors = (
{
name = bottom;
position = "{300, 0}";
},
{
name = center;
position = "{300, 325}";
},
{
name = ogonek;
position = "{541, 10}";
},
{
name = top;
position = "{300, 690}";
},
{
name = topleft;
position = "{19, 650}";
},
{
name = topright;
position = "{581, 650}";
}
);
layerId = "FB41A910-D058-4278-9D39-63B3F9D49349";
paths = (
{
closed = 1;
nodes = (
"467 -9 OFFCURVE",
"561 132 OFFCURVE",
"561 331 CURVE SMOOTH",
"561 506 OFFCURVE",
"476 663 OFFCURVE",
"300 664 CURVE SMOOTH",
"124 663 OFFCURVE",
"39 506 OFFCURVE",
"39 331 CURVE SMOOTH",
"39 132 OFFCURVE",
"133 -9 OFFCURVE",
"300 -10 CURVE SMOOTH"
);
},
{
closed = 1;
nodes = (
"188 76 OFFCURVE",
"129 170 OFFCURVE",
"129 331 CURVE SMOOTH",
"129 492 OFFCURVE",
"187 578 OFFCURVE",
"300 578 CURVE SMOOTH",
"413 578 OFFCURVE",
"471 492 OFFCURVE",
"471 331 CURVE SMOOTH",
"471 170 OFFCURVE",
"412 76 OFFCURVE",
"300 76 CURVE SMOOTH"
);
},
{
closed = 1;
nodes = (
"145 -38 OFFCURVE",
"168 -29 OFFCURVE",
"179 -6 CURVE SMOOTH",
"487 622 LINE SMOOTH",
"497 645 OFFCURVE",
"489 668 OFFCURVE",
"469 678 CURVE SMOOTH",
"448 687 OFFCURVE",
"426 678 OFFCURVE",
"415 656 CURVE SMOOTH",
"107 27 LINE SMOOTH",
"96 5 OFFCURVE",
"104 -19 OFFCURVE",
"124 -28 CURVE SMOOTH"
);
}
);
vertWidth = 0;
width = 600;
}
);
note = Oslash;
unicode = 00D8;
},
{
glyphname = P;
layers = (
{
anchors = (
{
name = bottom;
position = "{277, 0}";
},
{
name = top;
position = "{277, 670}";
}
);
layerId = "FB41A910-D058-4278-9D39-63B3F9D49349";
paths = (
{
closed = 1;
nodes = (
"146 651 LINE SMOOTH",
"98 651 OFFCURVE",
"71 624 OFFCURVE",
"71 576 CURVE SMOOTH",
"71 193 LINE",
"158 193 LINE",
"158 571 LINE",
"309 571 LINE SMOOTH",
"442 571 OFFCURVE",
"465 522 OFFCURVE",
"465 460 CURVE SMOOTH",
"465 375 OFFCURVE",
"402 339 OFFCURVE",
"309 339 CURVE SMOOTH",
"122 339 LINE SMOOTH",
"85 339 OFFCURVE",
"71 329 OFFCURVE",
"71 303 CURVE SMOOTH",
"71 277 OFFCURVE",
"85 259 OFFCURVE",
"122 259 CURVE SMOOTH",
"299 259 LINE SMOOTH",
"456 259 OFFCURVE",
"548 331 OFFCURVE",
"548 462 CURVE SMOOTH",
"548 602 OFFCURVE",
"456 651 OFFCURVE",
"309 651 CURVE SMOOTH"
);
},
{
closed = 1;
nodes = (
"71 106 LINE",
"158 118 LINE",
"158 439 LINE",
"71 439 LINE"
);
},
{
closed = 1;
nodes = (
"71 50 LINE SMOOTH",
"71 13 OFFCURVE",
"88 -1 OFFCURVE",
"114 -1 CURVE SMOOTH",
"140 -1 OFFCURVE",
"158 13 OFFCURVE",
"158 50 CURVE SMOOTH",
"158 218 LINE SMOOTH",
"158 255 OFFCURVE",
"141 269 OFFCURVE",
"115 269 CURVE SMOOTH",
"89 269 OFFCURVE",
"71 255 OFFCURVE",
"71 218 CURVE SMOOTH"
);
}
);
vertWidth = 0;
width = 600;
}
);
note = P;
unicode = 0050;
},
{
glyphname = Phi;
layers = (
{
layerId = "FB41A910-D058-4278-9D39-63B3F9D49349";
paths = (
{
closed = 1;
nodes = (
"343 598 LINE SMOOTH",
"343 636 OFFCURVE",
"326 650 OFFCURVE",
"300 650 CURVE SMOOTH",
"274 650 OFFCURVE",
"256 636 OFFCURVE",
"256 598 CURVE SMOOTH",
"256 52 LINE SMOOTH",
"256 14 OFFCURVE",
"273 0 OFFCURVE",
"299 0 CURVE SMOOTH",
"325 0 OFFCURVE",
"343 14 OFFCURVE",
"343 52 CURVE SMOOTH"
);
},
{
closed = 1;
nodes = (
"457 79 OFFCURVE",
"548 172 OFFCURVE",
"548 324 CURVE SMOOTH",
"548 479 OFFCURVE",
"450 574 OFFCURVE",
"296 574 CURVE SMOOTH",
"147 574 OFFCURVE",
"50 474 OFFCURVE",
"50 327 CURVE SMOOTH",
"50 176 OFFCURVE",
"151 79 OFFCURVE",
"304 79 CURVE SMOOTH"
);
},
{
closed = 1;
nodes = (
"196 159 OFFCURVE",
"135 221 OFFCURVE",
"135 327 CURVE SMOOTH",
"135 431 OFFCURVE",
"194 494 OFFCURVE",
"297 494 CURVE SMOOTH",
"403 494 OFFCURVE",
"463 434 OFFCURVE",
"463 325 CURVE SMOOTH",
"463 218 OFFCURVE",
"408 159 OFFCURVE",
"302 159 CURVE SMOOTH"
);
}
);
vertWidth = 0;
width = 600;
}
);
note = Phi;
unicode = 03A6;
},
{
glyphname = Pi;
layers = (
{
layerId = "FB41A910-D058-4278-9D39-63B3F9D49349";
paths = (
{
closed = 1;
nodes = (
"499 569 LINE SMOOTH",
"536 569 OFFCURVE",
"550 586 OFFCURVE",
"550 609 CURVE SMOOTH",
"550 633 OFFCURVE",
"536 650 OFFCURVE",
"499 650 CURVE SMOOTH",
"101 650 LINE SMOOTH",
"64 650 OFFCURVE",
"50 633 OFFCURVE",
"50 610 CURVE SMOOTH",
"50 587 OFFCURVE",
"64 569 OFFCURVE",
"101 569 CURVE SMOOTH"
);
},
{
closed = 1;
nodes = (
"208 598 LINE SMOOTH",
"208 636 OFFCURVE",
"191 650 OFFCURVE",
"165 650 CURVE SMOOTH",
"139 650 OFFCURVE",
"121 636 OFFCURVE",
"121 598 CURVE SMOOTH",
"121 52 LINE SMOOTH",
"121 14 OFFCURVE",
"138 0 OFFCURVE",
"164 0 CURVE SMOOTH",
"190 0 OFFCURVE",
"208 14 OFFCURVE",
"208 52 CURVE SMOOTH"
);
},
{
closed = 1;
nodes = (
"479 598 LINE SMOOTH",
"479 636 OFFCURVE",
"462 650 OFFCURVE",
"436 650 CURVE SMOOTH",
"410 650 OFFCURVE",
"392 636 OFFCURVE",
"392 598 CURVE SMOOTH",
"392 52 LINE SMOOTH",
"392 14 OFFCURVE",
"409 0 OFFCURVE",
"435 0 CURVE SMOOTH",
"461 0 OFFCURVE",
"479 14 OFFCURVE",
"479 52 CURVE SMOOTH"
);
}
);
vertWidth = 0;
width = 600;
}
);
note = Pi;
unicode = 03A0;
},
{
glyphname = Psi;
layers = (
{
layerId = "FB41A910-D058-4278-9D39-63B3F9D49349";
paths = (
{
closed = 1;
nodes = (
"420 119 OFFCURVE",
"532 182 OFFCURVE",
"532 376 CURVE SMOOTH",
"532 600 LINE SMOOTH",
"532 637 OFFCURVE",
"515 651 OFFCURVE",
"489 651 CURVE",
"463 651 OFFCURVE",
"445 637 OFFCURVE",
"445 600 CURVE SMOOTH",
"445 376 LINE SMOOTH",
"445 228 OFFCURVE",
"370 206 OFFCURVE",
"300 206 CURVE SMOOTH",
"230 206 OFFCURVE",
"154 228 OFFCURVE",
"154 376 CURVE SMOOTH",
"154 600 LINE SMOOTH",
"154 637 OFFCURVE",
"137 651 OFFCURVE",
"111 651 CURVE SMOOTH",
"85 651 OFFCURVE",
"67 637 OFFCURVE",
"67 600 CURVE SMOOTH",
"67 376 LINE SMOOTH",
"67 182 OFFCURVE",
"180 121 OFFCURVE",
"300 120 CURVE SMOOTH"
);
},
{
closed = 1;
nodes = (
"342 598 LINE SMOOTH",
"342 636 OFFCURVE",
"325 650 OFFCURVE",
"299 650 CURVE SMOOTH",
"273 650 OFFCURVE",
"255 636 OFFCURVE",
"255 598 CURVE SMOOTH",
"255 52 LINE SMOOTH",
"255 14 OFFCURVE",
"272 0 OFFCURVE",
"298 0 CURVE SMOOTH",
"324 0 OFFCURVE",
"342 14 OFFCURVE",
"342 52 CURVE SMOOTH"
);
}
);
vertWidth = 0;
width = 600;
}
);
note = Psi;
unicode = 03A8;
},
{
glyphname = Q;
layers = (
{
anchors = (
{
name = bottom;
position = "{300, 0}";
},
{
name = top;
position = "{300, 680}";
}
);
layerId = "FB41A910-D058-4278-9D39-63B3F9D49349";
paths = (
{
closed = 1;
nodes = (
"465 3 OFFCURVE",
"562 132 OFFCURVE",
"562 331 CURVE SMOOTH",
"562 502 OFFCURVE",
"477 659 OFFCURVE",
"301 660 CURVE SMOOTH",
"125 659 OFFCURVE",
"40 502 OFFCURVE",
"40 331 CURVE SMOOTH",
"40 132 OFFCURVE",
"134 -23 OFFCURVE",
"301 -10 CURVE SMOOTH"
);
},
{
closed = 1;
nodes = (
"545 38 LINE",
"525 51 OFFCURVE",
"510 45 OFFCURVE",
"496 25 CURVE SMOOTH",
"484 8 OFFCURVE",
"471 -3 OFFCURVE",
"463 -3 CURVE SMOOTH",
"433 -3 OFFCURVE",
"366 104 OFFCURVE",
"338 166 CURVE SMOOTH",
"326 192 OFFCURVE",
"310 209 OFFCURVE",
"278 200 CURVE SMOOTH",
"249 192 OFFCURVE",
"251 164 OFFCURVE",
"261 143 CURVE SMOOTH",
"300 62 OFFCURVE",
"384 -76 OFFCURVE",
"456 -76 CURVE SMOOTH",
"504 -76 OFFCURVE",
"533 -49 OFFCURVE",
"557 -12 CURVE SMOOTH",
"569 8 OFFCURVE",
"565 25 OFFCURVE",
"545 38 CURVE"
);
},
{
closed = 1;
nodes = (
"189 76 OFFCURVE",
"130 170 OFFCURVE",
"130 331 CURVE SMOOTH",
"130 488 OFFCURVE",
"188 574 OFFCURVE",
"301 574 CURVE SMOOTH",
"414 574 OFFCURVE",
"472 488 OFFCURVE",
"472 331 CURVE SMOOTH",
"472 170 OFFCURVE",
"413 76 OFFCURVE",
"301 76 CURVE SMOOTH"
);
}
);
vertWidth = 0;
width = 600;
}
);
note = Q;
unicode = 0051;
},
{
glyphname = R;
layers = (
{
anchors = (
{
name = bottom;
position = "{299, 0}";
},
{
name = top;
position = "{299, 670}";
}
);
layerId = "FB41A910-D058-4278-9D39-63B3F9D49349";
paths = (
{
closed = 1;
nodes = (
"158 212 LINE",
"158 570 LINE",
"274 570 LINE SMOOTH",
"407 570 OFFCURVE",
"430 529 OFFCURVE",
"430 467 CURVE SMOOTH",
"430 396 OFFCURVE",
"367 365 OFFCURVE",
"274 365 CURVE SMOOTH",
"122 365 LINE SMOOTH",
"85 365 OFFCURVE",
"71 348 OFFCURVE",
"71 322 CURVE SMOOTH",
"71 296 OFFCURVE",
"85 285 OFFCURVE",
"122 285 CURVE SMOOTH",
"264 285 LINE SMOOTH",
"421 285 OFFCURVE",
"513 350 OFFCURVE",
"513 463 CURVE SMOOTH",
"513 601 OFFCURVE",
"421 650 OFFCURVE",
"274 650 CURVE SMOOTH",
"146 650 LINE SMOOTH",
"98 650 OFFCURVE",
"71 623 OFFCURVE",
"71 575 CURVE SMOOTH",
"71 212 LINE"
);
},
{
closed = 1;
nodes = (
"140 -1 OFFCURVE",
"158 13 OFFCURVE",
"158 50 CURVE SMOOTH",
"158 237 LINE SMOOTH",
"158 274 OFFCURVE",
"141 288 OFFCURVE",
"115 288 CURVE SMOOTH",
"89 288 OFFCURVE",
"71 274 OFFCURVE",
"71 237 CURVE SMOOTH",
"71 50 LINE SMOOTH",
"71 13 OFFCURVE",
"88 -1 OFFCURVE",
"114 -1 CURVE SMOOTH"
);
},
{
closed = 1;
nodes = (
"158 137 LINE",
"158 438 LINE",
"71 438 LINE",
"71 125 LINE"
);
},
{
closed = 1;
nodes = (
"553 -2 OFFCURVE",
"556 17 OFFCURVE",
"556 38 CURVE SMOOTH",
"556 59 OFFCURVE",
"547 80 OFFCURVE",
"508 80 CURVE SMOOTH",
"454 80 OFFCURVE",
"412 244 OFFCURVE",
"353 321 CURVE",
"244 321 LINE",
"339 231 OFFCURVE",
"381 -2 OFFCURVE",
"499 -2 CURVE SMOOTH"
);
}
);
vertWidth = 0;
width = 600;
}
);
note = R;
unicode = 0052;
},
{
glyphname = Rcommaaccent;
layers = (
{
anchors = (
{
name = bottom;
position = "{299, 0}";
},
{
name = top;
position = "{299, 670}";
}
);
components = (
{
name = R;
}
);
layerId = "FB41A910-D058-4278-9D39-63B3F9D49349";
paths = (
{
closed = 1;
nodes = (
"302 -154 OFFCURVE",
"307 -155 OFFCURVE",
"318 -146 CURVE",
"314 -195 OFFCURVE",
"281 -204 OFFCURVE",
"252 -201 CURVE SMOOTH",
"237 -200 OFFCURVE",
"228 -211 OFFCURVE",
"227 -226 CURVE SMOOTH",
"226 -240 OFFCURVE",
"237 -249 OFFCURVE",
"250 -250 CURVE SMOOTH",
"302 -254 OFFCURVE",
"362 -226 OFFCURVE",
"369 -125 CURVE SMOOTH",
"373 -80 OFFCURVE",
"350 -48 OFFCURVE",
"306 -45 CURVE SMOOTH",
"267 -42 OFFCURVE",
"244 -71 OFFCURVE",
"242 -100 CURVE SMOOTH",
"239 -129 OFFCURVE",
"268 -153 OFFCURVE",
"290 -154 CURVE SMOOTH"
);
}
);
vertWidth = 0;
width = 600;
}
);
note = "";
unicode = 0156;
},
{
glyphname = S;
layers = (
{
anchors = (
{
name = bottom;
position = "{274, 0}";
},
{
name = top;
position = "{284, 690}";
}
);
layerId = "FB41A910-D058-4278-9D39-63B3F9D49349";
paths = (
{
closed = 1;
nodes = (
"421 -8 OFFCURVE",
"500 67 OFFCURVE",
"500 183 CURVE SMOOTH",
"500 264 OFFCURVE",
"446 319 OFFCURVE",
"327 375 CURVE SMOOTH",
"242 415 OFFCURVE",
"207 449 OFFCURVE",
"207 504 CURVE SMOOTH",
"207 546 OFFCURVE",
"241 579 OFFCURVE",
"284 579 CURVE SMOOTH",
"310 579 OFFCURVE",
"346 573 OFFCURVE",
"388 552 CURVE SMOOTH",
"416 538 OFFCURVE",
"436 544 OFFCURVE",
"449 570 CURVE SMOOTH",
"459 590 OFFCURVE",
"451 608 OFFCURVE",
"427 623 CURVE SMOOTH",
"389 646 OFFCURVE",
"341 660 OFFCURVE",
"283 660 CURVE SMOOTH",
"190 660 OFFCURVE",
"117 591 OFFCURVE",
"117 502 CURVE SMOOTH",
"117 424 OFFCURVE",
"168 359 OFFCURVE",
"266 312 CURVE SMOOTH",
"326 283 OFFCURVE",
"414 246 OFFCURVE",
"414 184 CURVE SMOOTH",
"414 122 OFFCURVE",
"364 76 OFFCURVE",
"291 76 CURVE SMOOTH",
"252 76 OFFCURVE",
"211 92 OFFCURVE",
"167 126 CURVE SMOOTH",
"144 143 OFFCURVE",
"127 148 OFFCURVE",
"106 129 CURVE SMOOTH",
"86 110 OFFCURVE",
"83 85 OFFCURVE",
"106 66 CURVE SMOOTH",
"159 24 OFFCURVE",
"225 -8 OFFCURVE",
"299 -8 CURVE SMOOTH"
);
}
);
vertWidth = 0;
width = 600;
}
);
note = S;
unicode = 0053;
},
{
glyphname = SF010000;
layers = (
{
layerId = "FB41A910-D058-4278-9D39-63B3F9D49349";
paths = (
{
closed = 1;
nodes = (
"242 -231 LINE",
"328 -231 LINE",
"328 279 LINE",
"600 279 LINE",
"600 366 LINE",
"242 366 LINE",
"242 366 LINE"
);
}
);
vertWidth = 0;
width = 600;
}
);
note = SF010000;
unicode = 250C;
},
{
glyphname = SF020000;
layers = (
{
layerId = "FB41A910-D058-4278-9D39-63B3F9D49349";
paths = (
{
closed = 1;
nodes = (
"600 279 LINE",
"600 366 LINE",
"328 366 LINE",
"328 910 LINE",
"242 910 LINE",
"242 279 LINE",
"242 279 LINE"
);
}
);
vertWidth = 0;
width = 600;
}
);
note = SF020000;
unicode = 2514;
},
{
glyphname = SF030000;
layers = (
{
layerId = "FB41A910-D058-4278-9D39-63B3F9D49349";
paths = (
{
closed = 1;
nodes = (
"241 -231 LINE",
"327 -231 LINE",
"327 366 LINE",
"0 366 LINE",
"0 279 LINE",
"241 279 LINE",
"241 279 LINE"
);
}
);
vertWidth = 0;
width = 600;
}
);
note = SF030000;
unicode = 2510;
},
{
glyphname = SF040000;
layers = (
{
layerId = "FB41A910-D058-4278-9D39-63B3F9D49349";
paths = (
{
closed = 1;
nodes = (
"327 910 LINE",
"241 910 LINE",
"241 366 LINE",
"0 366 LINE",
"0 279 LINE",
"327 279 LINE",
"327 279 LINE"
);
}
);
vertWidth = 0;
width = 600;
}
);
note = SF040000;
unicode = 2518;
},
{
glyphname = SF050000;
layers = (
{
layerId = "FB41A910-D058-4278-9D39-63B3F9D49349";
paths = (
{
closed = 1;
nodes = (
"241 -231 LINE",
"327 -231 LINE",
"327 280 LINE",
"599 280 LINE",
"599 366 LINE",
"327 366 LINE",
"327 910 LINE",
"241 910 LINE",
"241 366 LINE",
"0 366 LINE",
"0 280 LINE",
"241 280 LINE",
"241 280 LINE"
);
}
);
vertWidth = 0;
width = 600;
}
);
note = SF050000;
unicode = 253C;
},
{
glyphname = SF060000;
layers = (
{
layerId = "FB41A910-D058-4278-9D39-63B3F9D49349";
paths = (
{
closed = 1;
nodes = (
"241 -231 LINE",
"327 -231 LINE",
"327 279 LINE",
"599 279 LINE",
"599 366 LINE",
"0 366 LINE",
"0 279 LINE",
"241 279 LINE",
"241 279 LINE"
);
}
);
vertWidth = 0;
width = 600;
}
);
note = SF060000;
unicode = 252C;
},
{
glyphname = SF070000;
layers = (
{
layerId = "FB41A910-D058-4278-9D39-63B3F9D49349";
paths = (
{
closed = 1;
nodes = (
"599 366 LINE",
"327 366 LINE",
"327 910 LINE",
"241 910 LINE",
"241 366 LINE",
"0 366 LINE",
"0 279 LINE",
"599 279 LINE",
"599 279 LINE"
);
}
);
vertWidth = 0;
width = 600;
}
);
note = SF070000;
unicode = 2534;
},
{
glyphname = SF080000;
layers = (
{
layerId = "FB41A910-D058-4278-9D39-63B3F9D49349";
paths = (
{
closed = 1;
nodes = (
"328 -231 LINE",
"328 279 LINE",
"600 279 LINE",
"600 366 LINE",
"328 366 LINE",
"328 910 LINE",
"242 910 LINE",
"242 -231 LINE",
"242 -231 LINE"
);
}
);
vertWidth = 0;
width = 600;
}
);
note = SF080000;
unicode = 251C;
},
{
glyphname = SF090000;
layers = (
{
layerId = "FB41A910-D058-4278-9D39-63B3F9D49349";
paths = (
{
closed = 1;
nodes = (
"241 -231 LINE",
"327 -231 LINE",
"327 910 LINE",
"241 910 LINE",
"241 366 LINE",
"0 366 LINE",
"0 279 LINE",
"241 279 LINE",
"241 279 LINE"
);
}
);
vertWidth = 0;
width = 600;
}
);
note = SF090000;
unicode = 2524;
},
{
glyphname = SF100000;
layers = (
{
layerId = "FB41A910-D058-4278-9D39-63B3F9D49349";
paths = (
{
closed = 1;
nodes = (
"599 366 LINE",
"0 366 LINE",
"0 280 LINE",
"599 280 LINE",
"599 280 LINE"
);
}
);
vertWidth = 0;
width = 600;
}
);
note = SF100000;
unicode = 2500;
},
{
glyphname = SF110000;
layers = (
{
layerId = "FB41A910-D058-4278-9D39-63B3F9D49349";
paths = (
{
closed = 1;
nodes = (
"327 -245 LINE",
"327 924 LINE",
"241 924 LINE",
"241 -245 LINE",
"241 -245 LINE"
);
}
);
vertWidth = 0;
width = 600;
}
);
note = SF110000;
unicode = 2502;
},
{
glyphname = SF190000;
layers = (
{
layerId = "FB41A910-D058-4278-9D39-63B3F9D49349";
paths = (
{
closed = 1;
nodes = (
"242 366 LINE",
"242 279 LINE",
"0 279 LINE",
"0 192 LINE",
"242 192 LINE",
"242 -231 LINE",
"328 -231 LINE",
"328 910 LINE",
"242 910 LINE",
"242 453 LINE",
"0 453 LINE",
"0 366 LINE",
"0 366 LINE"
);
}
);
vertWidth = 0;
width = 600;
}
);
note = SF190000;
unicode = 2561;
},
{
glyphname = SF200000;
layers = (
{
layerId = "FB41A910-D058-4278-9D39-63B3F9D49349";
paths = (
{
closed = 1;
nodes = (
"155 -231 LINE",
"242 -231 LINE",
"242 910 LINE",
"155 910 LINE",
"155 366 LINE",
"0 366 LINE",
"0 279 LINE",
"155 279 LINE",
"155 279 LINE"
);
},
{
closed = 1;
nodes = (
"415 -231 LINE",
"415 910 LINE",
"328 910 LINE",
"328 -231 LINE",
"328 -231 LINE"
);
}
);
vertWidth = 0;
width = 600;
}
);
note = SF200000;
unicode = 2562;
},
{
glyphname = SF230000;
layers = (
{
layerId = "FB41A910-D058-4278-9D39-63B3F9D49349";
paths = (
{
closed = 1;
nodes = (
"155 192 LINE",
"155 -231 LINE",
"241 -231 LINE",
"241 279 LINE",
"0 279 LINE",
"0 192 LINE",
"0 192 LINE"
);
},
{
closed = 1;
nodes = (
"0 366 LINE",
"241 366 LINE",
"241 910 LINE",
"154 910 LINE",
"154 453 LINE",
"0 453 LINE",
"0 378 LINE",
"0 378 LINE"
);
},
{
closed = 1;
nodes = (
"414 -231 LINE",
"414 910 LINE",
"328 910 LINE",
"328 -231 LINE",
"328 -231 LINE"
);
}
);
vertWidth = 0;
width = 600;
}
);
note = SF230000;
unicode = 2563;
},
{
glyphname = SF240000;
layers = (
{
layerId = "FB41A910-D058-4278-9D39-63B3F9D49349";
paths = (
{
closed = 1;
nodes = (
"242 -231 LINE",
"242 910 LINE",
"155 910 LINE",
"155 -231 LINE",
"155 -231 LINE"
);
},
{
closed = 1;
nodes = (
"415 -231 LINE",
"415 910 LINE",
"328 910 LINE",
"328 -231 LINE",
"328 -231 LINE"
);
}
);
vertWidth = 0;
width = 600;
}
);
note = SF240000;
unicode = 2551;
},
{
glyphname = SF250000;
layers = (
{
layerId = "FB41A910-D058-4278-9D39-63B3F9D49349";
paths = (
{
closed = 1;
nodes = (
"155 192 LINE",
"155 -231 LINE",
"241 -231 LINE",
"241 279 LINE",
"0 279 LINE",
"0 192 LINE",
"0 192 LINE"
);
},
{
closed = 1;
nodes = (
"327 366 LINE",
"328 -231 LINE",
"414 -231 LINE",
"414 453 LINE",
"0 453 LINE",
"0 366 LINE",
"0 366 LINE"
);
}
);
vertWidth = 0;
width = 600;
}
);
note = SF250000;
unicode = 2557;
},
{
glyphname = SF260000;
layers = (
{
layerId = "FB41A910-D058-4278-9D39-63B3F9D49349";
paths = (
{
closed = 1;
nodes = (
"0 377 LINE",
"0 365 LINE",
"241 365 LINE",
"241 909 LINE",
"154 909 LINE",
"153 453 LINE",
"0 453 LINE",
"0 435 LINE",
"0 435 LINE"
);
},
{
closed = 1;
nodes = (
"415 192 LINE",
"415 910 LINE",
"328 910 LINE",
"328 279 LINE",
"0 278 LINE",
"2 192 LINE",
"2 192 LINE"
);
}
);
vertWidth = 0;
width = 600;
}
);
note = SF260000;
unicode = 255D;
},
{
glyphname = SF360000;
layers = (
{
layerId = "FB41A910-D058-4278-9D39-63B3F9D49349";
paths = (
{
closed = 1;
nodes = (
"328 -231 LINE",
"328 192 LINE",
"599 192 LINE",
"599 279 LINE",
"328 279 LINE",
"328 366 LINE",
"599 366 LINE",
"599 453 LINE",
"328 453 LINE",
"328 910 LINE",
"242 910 LINE",
"242 -231 LINE",
"242 -231 LINE"
);
}
);
vertWidth = 0;
width = 600;
}
);
note = SF360000;
unicode = 255E;
},
{
glyphname = SF370000;
layers = (
{
layerId = "FB41A910-D058-4278-9D39-63B3F9D49349";
paths = (
{
closed = 1;
nodes = (
"415 -231 LINE",
"415 279 LINE",
"600 279 LINE",
"599 366 LINE",
"415 366 LINE",
"415 910 LINE",
"328 910 LINE",
"328 -231 LINE",
"328 -231 LINE"
);
},
{
closed = 1;
nodes = (
"242 -231 LINE",
"242 910 LINE",
"155 910 LINE",
"155 -231 LINE",
"155 -231 LINE"
);
}
);
vertWidth = 0;
width = 600;
}
);
note = SF370000;
unicode = 255F;
},
{
glyphname = SF380000;
layers = (
{
layerId = "FB41A910-D058-4278-9D39-63B3F9D49349";
paths = (
{
closed = 1;
nodes = (
"600 366 LINE",
"600 453 LINE",
"415 453 LINE",
"415 910 LINE",
"328 910 LINE",
"328 366 LINE",
"328 366 LINE"
);
},
{
closed = 1;
nodes = (
"242 910 LINE",
"155 910 LINE",
"155 192 LINE",
"600 192 LINE",
"600 279 LINE",
"242 279 LINE",
"242 279 LINE"
);
}
);
vertWidth = 0;
width = 600;
}
);
note = SF380000;
unicode = 255A;
},
{
glyphname = SF390000;
layers = (
{
layerId = "FB41A910-D058-4278-9D39-63B3F9D49349";
paths = (
{
closed = 1;
nodes = (
"415 -231 LINE",
"415 192 LINE",
"600 192 LINE",
"600 279 LINE",
"328 279 LINE",
"328 -231 LINE",
"328 -231 LINE"
);
},
{
closed = 1;
nodes = (
"242 366 LINE",
"600 366 LINE",
"600 453 LINE",
"155 453 LINE",
"155 -231 LINE",
"242 -231 LINE",
"242 -231 LINE"
);
}
);
vertWidth = 0;
width = 600;
}
);
note = SF390000;
unicode = 2554;
},
{
glyphname = SF400000;
layers = (
{
layerId = "FB41A910-D058-4278-9D39-63B3F9D49349";
paths = (
{
closed = 1;
nodes = (
"599 366 LINE",
"599 453 LINE",
"414 453 LINE",
"414 911 LINE",
"328 911 LINE",
"328 366 LINE",
"328 366 LINE"
);
},
{
closed = 1;
nodes = (
"241 366 LINE",
"241 911 LINE",
"155 911 LINE",
"155 454 LINE",
"0 453 LINE",
"0 366 LINE",
"0 366 LINE"
);
},
{
closed = 1;
nodes = (
"599 192 LINE",
"599 279 LINE",
"0 279 LINE",
"0 192 LINE",
"0 192 LINE"
);
}
);
vertWidth = 0;
width = 600;
}
);
note = SF400000;
unicode = 2569;
},
{
glyphname = SF410000;
layers = (
{
layerId = "FB41A910-D058-4278-9D39-63B3F9D49349";
paths = (
{
closed = 1;
nodes = (
"414 -231 LINE",
"414 192 LINE",
"599 192 LINE",
"599 279 LINE",
"328 278 LINE",
"328 -231 LINE",
"328 -231 LINE"
);
},
{
closed = 1;
nodes = (
"155 192 LINE",
"155 -231 LINE",
"241 -231 LINE",
"241 279 LINE",
"0 279 LINE",
"0 192 LINE",
"0 192 LINE"
);
},
{
closed = 1;
nodes = (
"599 366 LINE",
"600 453 LINE",
"0 453 LINE",
"0 366 LINE",
"0 366 LINE"
);
}
);
vertWidth = 0;
width = 600;
}
);
note = SF410000;
unicode = 2566;
},
{
glyphname = SF420000;
layers = (
{
layerId = "FB41A910-D058-4278-9D39-63B3F9D49349";
paths = (
{
closed = 1;
nodes = (
"415 -231 LINE",
"415 192 LINE",
"600 192 LINE",
"600 279 LINE",
"328 279 LINE",
"328 -231 LINE",
"328 -231 LINE"
);
},
{
closed = 1;
nodes = (
"600 366 LINE",
"600 453 LINE",
"415 453 LINE",
"415 910 LINE",
"328 910 LINE",
"328 366 LINE",
"328 366 LINE"
);
},
{
closed = 1;
nodes = (
"242 -231 LINE",
"242 910 LINE",
"155 910 LINE",
"155 -231 LINE",
"155 -231 LINE"
);
}
);
vertWidth = 0;
width = 600;
}
);
note = SF420000;
unicode = 2560;
},
{
glyphname = SF430000;
layers = (
{
layerId = "FB41A910-D058-4278-9D39-63B3F9D49349";
paths = (
{
closed = 1;
nodes = (
"0 366 LINE",
"599 366 LINE",
"599 453 LINE",
"0 453 LINE",
"0 437 LINE",
"0 437 LINE"
);
},
{
closed = 1;
nodes = (
"599 192 LINE",
"599 279 LINE",
"0 279 LINE",
"0 192 LINE",
"0 192 LINE"
);
}
);
vertWidth = 0;
width = 600;
}
);
note = SF430000;
unicode = 2550;
},
{
glyphname = SF440000;
layers = (
{
layerId = "FB41A910-D058-4278-9D39-63B3F9D49349";
paths = (
{
closed = 1;
nodes = (
"0 378 LINE",
"0 366 LINE",
"241 366 LINE",
"241 910 LINE",
"155 910 LINE",
"155 454 LINE",
"0 453 LINE",
"0 436 LINE",
"0 436 LINE"
);
},
{
closed = 1;
nodes = (
"155 192 LINE",
"155 -231 LINE",
"241 -231 LINE",
"241 279 LINE",
"0 279 LINE",
"0 192 LINE",
"0 192 LINE"
);
},
{
closed = 1;
nodes = (
"599 366 LINE",
"599 453 LINE",
"414 453 LINE",
"414 910 LINE",
"328 910 LINE",
"328 366 LINE",
"328 366 LINE"
);
},
{
closed = 1;
nodes = (
"414 -231 LINE",
"414 192 LINE",
"599 192 LINE",
"599 279 LINE",
"328 278 LINE",
"328 -231 LINE",
"328 -231 LINE"
);
}
);
vertWidth = 0;
width = 600;
}
);
note = SF440000;
unicode = 256C;
},
{
glyphname = SF450000;
layers = (
{
layerId = "FB41A910-D058-4278-9D39-63B3F9D49349";
paths = (
{
closed = 1;
nodes = (
"0 453 LINE",
"0 366 LINE",
"599 366 LINE",
"599 453 LINE",
"328 453 LINE",
"328 910 LINE",
"242 910 LINE",
"242 453 LINE",
"242 453 LINE"
);
},
{
closed = 1;
nodes = (
"599 192 LINE",
"599 279 LINE",
"0 279 LINE",
"0 192 LINE",
"0 192 LINE"
);
}
);
vertWidth = 0;
width = 600;
}
);
note = SF450000;
unicode = 2567;
},
{
glyphname = SF460000;
layers = (
{
layerId = "FB41A910-D058-4278-9D39-63B3F9D49349";
paths = (
{
closed = 1;
nodes = (
"242 366 LINE",
"242 910 LINE",
"155 910 LINE",
"155 366 LINE",
"0 366 LINE",
"0 279 LINE",
"600 279 LINE",
"599 366 LINE",
"415 366 LINE",
"415 910 LINE",
"328 910 LINE",
"328 366 LINE",
"328 366 LINE"
);
}
);
vertWidth = 0;
width = 600;
}
);
note = SF460000;
unicode = 2568;
},
{
glyphname = SF470000;
layers = (
{
layerId = "FB41A910-D058-4278-9D39-63B3F9D49349";
paths = (
{
closed = 1;
nodes = (
"242 192 LINE",
"242 -231 LINE",
"328 -231 LINE",
"328 192 LINE",
"599 192 LINE",
"599 279 LINE",
"0 279 LINE",
"0 192 LINE",
"0 192 LINE"
);
},
{
closed = 1;
nodes = (
"599 366 LINE",
"599 453 LINE",
"0 453 LINE",
"0 366 LINE",
"0 366 LINE"
);
}
);
vertWidth = 0;
width = 600;
}
);
note = SF470000;
unicode = 2564;
},
{
glyphname = SF480000;
layers = (
{
layerId = "FB41A910-D058-4278-9D39-63B3F9D49349";
paths = (
{
closed = 1;
nodes = (
"155 -231 LINE",
"242 -231 LINE",
"242 279 LINE",
"328 279 LINE",
"328 -231 LINE",
"415 -231 LINE",
"415 279 LINE",
"600 279 LINE",
"599 366 LINE",
"0 366 LINE",
"0 279 LINE",
"155 279 LINE",
"155 279 LINE"
);
}
);
vertWidth = 0;
width = 600;
}
);
note = SF480000;
unicode = 2565;
},
{
glyphname = SF530000;
layers = (
{
layerId = "FB41A910-D058-4278-9D39-63B3F9D49349";
paths = (
{
closed = 1;
nodes = (
"415 -231 LINE",
"415 279 LINE",
"601 279 LINE",
"600 366 LINE",
"415 366 LINE",
"415 910 LINE",
"328 910 LINE",
"328 -231 LINE",
"328 -231 LINE"
);
},
{
closed = 1;
nodes = (
"155 -231 LINE",
"242 -231 LINE",
"242 910 LINE",
"155 910 LINE",
"155 366 LINE",
"0 366 LINE",
"0 279 LINE",
"155 279 LINE",
"155 279 LINE"
);
}
);
vertWidth = 0;
width = 600;
}
);
note = SF530000;
unicode = 256B;
},
{
glyphname = SF540000;
layers = (
{
layerId = "FB41A910-D058-4278-9D39-63B3F9D49349";
paths = (
{
closed = 1;
nodes = (
"0 453 LINE",
"0 366 LINE",
"599 366 LINE",
"599 453 LINE",
"328 453 LINE",
"328 910 LINE",
"242 910 LINE",
"242 453 LINE",
"242 453 LINE"
);
},
{
closed = 1;
nodes = (
"242 192 LINE",
"242 -231 LINE",
"328 -231 LINE",
"328 192 LINE",
"599 192 LINE",
"599 279 LINE",
"0 279 LINE",
"0 192 LINE",
"0 192 LINE"
);
}
);
vertWidth = 0;
width = 600;
}
);
note = SF540000;
unicode = 256A;
},
{
glyphname = Scommaaccent;
layers = (
{
anchors = (
{
name = bottom;
position = "{274, 0}";
},
{
name = top;
position = "{284, 690}";
}
);
components = (
{
name = S;
}
);
layerId = "FB41A910-D058-4278-9D39-63B3F9D49349";
paths = (
{
closed = 1;
nodes = (
"302 -154 OFFCURVE",
"307 -155 OFFCURVE",
"318 -146 CURVE",
"314 -195 OFFCURVE",
"281 -204 OFFCURVE",
"252 -201 CURVE SMOOTH",
"237 -200 OFFCURVE",
"228 -211 OFFCURVE",
"227 -226 CURVE SMOOTH",
"226 -240 OFFCURVE",
"237 -249 OFFCURVE",
"250 -250 CURVE SMOOTH",
"302 -254 OFFCURVE",
"362 -226 OFFCURVE",
"369 -125 CURVE SMOOTH",
"373 -80 OFFCURVE",
"350 -48 OFFCURVE",
"306 -45 CURVE SMOOTH",
"267 -42 OFFCURVE",
"244 -71 OFFCURVE",
"242 -100 CURVE SMOOTH",
"239 -129 OFFCURVE",
"268 -153 OFFCURVE",
"290 -154 CURVE SMOOTH"
);
}
);
vertWidth = 0;
width = 600;
}
);
note = "";
unicode = 0218;
},
{
glyphname = Sigma;
layers = (
{
layerId = "FB41A910-D058-4278-9D39-63B3F9D49349";
paths = (
{
closed = 1;
nodes = (
"473 571 LINE SMOOTH",
"510 571 OFFCURVE",
"524 588 OFFCURVE",
"524 611 CURVE SMOOTH",
"524 633 OFFCURVE",
"510 651 OFFCURVE",
"473 651 CURVE SMOOTH",
"116 651 LINE SMOOTH",
"79 651 OFFCURVE",
"65 634 OFFCURVE",
"65 612 CURVE SMOOTH",
"65 589 OFFCURVE",
"79 571 OFFCURVE",
"116 571 CURVE SMOOTH"
);
},
{
closed = 1;
nodes = (
"473 0 LINE SMOOTH",
"510 0 OFFCURVE",
"524 17 OFFCURVE",
"524 40 CURVE SMOOTH",
"524 62 OFFCURVE",
"510 80 OFFCURVE",
"473 80 CURVE SMOOTH",
"116 80 LINE SMOOTH",
"79 80 OFFCURVE",
"65 63 OFFCURVE",
"65 41 CURVE SMOOTH",
"65 18 OFFCURVE",
"79 0 OFFCURVE",
"116 0 CURVE SMOOTH"
);
},
{
closed = 1;
nodes = (
"145 624 LINE SMOOTH",
"123 654 OFFCURVE",
"101 655 OFFCURVE",
"80 640 CURVE SMOOTH",
"60 627 OFFCURVE",
"54 605 OFFCURVE",
"75 574 CURVE SMOOTH",
"222 366 LINE SMOOTH",
"242 338 OFFCURVE",
"242 310 OFFCURVE",
"222 282 CURVE SMOOTH",
"78 78 LINE SMOOTH",
"57 47 OFFCURVE",
"63 25 OFFCURVE",
"83 12 CURVE SMOOTH",
"104 -3 OFFCURVE",
"126 -2 OFFCURVE",
"148 28 CURVE SMOOTH",
"302 247 LINE SMOOTH",
"339 300 OFFCURVE",
"339 348 OFFCURVE",
"302 401 CURVE SMOOTH"
);
}
);
vertWidth = 0;
width = 600;
}
);
note = Sigma;
unicode = 03A3;
},
{
glyphname = T;
layers = (
{
anchors = (
{
name = bottom;
position = "{285, 0}";
},
{
name = center;
position = "{285, 325}";
},
{
name = top;
position = "{285, 670}";
}
);
layerId = "FB41A910-D058-4278-9D39-63B3F9D49349";
paths = (
{
closed = 1;
nodes = (
"499 569 LINE SMOOTH",
"536 569 OFFCURVE",
"550 586 OFFCURVE",
"550 609 CURVE SMOOTH",
"550 633 OFFCURVE",
"536 650 OFFCURVE",
"499 650 CURVE SMOOTH",
"101 650 LINE SMOOTH",
"64 650 OFFCURVE",
"50 633 OFFCURVE",
"50 610 CURVE SMOOTH",
"50 587 OFFCURVE",
"64 569 OFFCURVE",
"101 569 CURVE SMOOTH"
);
},
{
closed = 1;
nodes = (
"343 598 LINE SMOOTH",
"343 636 OFFCURVE",
"326 650 OFFCURVE",
"300 650 CURVE SMOOTH",
"274 650 OFFCURVE",
"256 636 OFFCURVE",
"256 598 CURVE SMOOTH",
"256 52 LINE SMOOTH",
"256 14 OFFCURVE",
"273 0 OFFCURVE",
"299 0 CURVE SMOOTH",
"325 0 OFFCURVE",
"343 14 OFFCURVE",
"343 52 CURVE SMOOTH"
);
}
);
vertWidth = 0;
width = 600;
}
);
note = T;
unicode = 0054;
},
{
glyphname = Tbar;
layers = (
{
anchors = (
{
name = bottom;
position = "{285, 0}";
},
{
name = center;
position = "{285, 325}";
},
{
name = top;
position = "{285, 670}";
}
);
components = (
{
name = T;
}
);
layerId = "FB41A910-D058-4278-9D39-63B3F9D49349";
paths = (
{
closed = 1;
nodes = (
"438 279 LINE SMOOTH",
"475 279 OFFCURVE",
"489 296 OFFCURVE",
"489 319 CURVE SMOOTH",
"489 343 OFFCURVE",
"475 360 OFFCURVE",
"438 360 CURVE SMOOTH",
"161 360 LINE SMOOTH",
"124 360 OFFCURVE",
"110 343 OFFCURVE",
"110 320 CURVE SMOOTH",
"110 297 OFFCURVE",
"124 279 OFFCURVE",
"161 279 CURVE SMOOTH"
);
}
);
vertWidth = 0;
width = 600;
}
);
note = Tbar;
unicode = 0166;
},
{
glyphname = Tcedilla;
layers = (
{
anchors = (
{
name = bottom;
position = "{285, 0}";
},
{
name = center;
position = "{285, 325}";
},
{
name = top;
position = "{285, 670}";
}
);
layerId = "FB41A910-D058-4278-9D39-63B3F9D49349";
paths = (
{
closed = 1;
nodes = (
"257 569 LINE",
"257 2 LINE SMOOTH",
"257 -60 OFFCURVE",
"372 -82 OFFCURVE",
"372 -108 CURVE SMOOTH",
"372 -129 OFFCURVE",
"340 -140 OFFCURVE",
"312 -140 CURVE SMOOTH",
"275 -140 OFFCURVE",
"245 -124 OFFCURVE",
"229 -115 CURVE SMOOTH",
"212 -105 OFFCURVE",
"197 -108 OFFCURVE",
"187 -125 CURVE SMOOTH",
"176 -145 OFFCURVE",
"187 -161 OFFCURVE",
"206 -172 CURVE SMOOTH",
"223 -183 OFFCURVE",
"256 -199 OFFCURVE",
"318 -199 CURVE SMOOTH",
"397 -199 OFFCURVE",
"444 -158 OFFCURVE",
"444 -108 CURVE SMOOTH",
"444 -37 OFFCURVE",
"344 -38 OFFCURVE",
"344 11 CURVE",
"344 569 LINE",
"489 569 LINE SMOOTH",
"526 569 OFFCURVE",
"540 586 OFFCURVE",
"540 609 CURVE SMOOTH",
"540 633 OFFCURVE",
"526 650 OFFCURVE",
"489 650 CURVE SMOOTH",
"112 650 LINE SMOOTH",
"75 650 OFFCURVE",
"61 633 OFFCURVE",
"61 610 CURVE SMOOTH",
"61 587 OFFCURVE",
"75 569 OFFCURVE",
"112 569 CURVE SMOOTH"
);
}
);
vertWidth = 0;
width = 600;
}
);
note = "";
unicode = 0162;
},
{
glyphname = Tcommaaccent1;
layers = (
{
anchors = (
{
name = bottom;
position = "{285, 0}";
},
{
name = center;
position = "{285, 325}";
},
{
name = top;
position = "{285, 670}";
}
);
components = (
{
name = T;
}
);
layerId = "FB41A910-D058-4278-9D39-63B3F9D49349";
paths = (
{
closed = 1;
nodes = (
"302 -154 OFFCURVE",
"307 -155 OFFCURVE",
"318 -146 CURVE",
"314 -195 OFFCURVE",
"281 -204 OFFCURVE",
"252 -201 CURVE SMOOTH",
"237 -200 OFFCURVE",
"228 -211 OFFCURVE",
"227 -226 CURVE SMOOTH",
"226 -240 OFFCURVE",
"237 -249 OFFCURVE",
"250 -250 CURVE SMOOTH",
"302 -254 OFFCURVE",
"362 -226 OFFCURVE",
"369 -125 CURVE SMOOTH",
"373 -80 OFFCURVE",
"350 -48 OFFCURVE",
"306 -45 CURVE SMOOTH",
"267 -42 OFFCURVE",
"244 -71 OFFCURVE",
"242 -100 CURVE SMOOTH",
"239 -129 OFFCURVE",
"268 -153 OFFCURVE",
"290 -154 CURVE SMOOTH"
);
}
);
vertWidth = 0;
width = 600;
}
);
note = "";
},
{
glyphname = Theta;
layers = (
{
layerId = "FB41A910-D058-4278-9D39-63B3F9D49349";
paths = (
{
closed = 1;
nodes = (
"477 663 OFFCURVE",
"562 506 OFFCURVE",
"562 331 CURVE SMOOTH",
"562 132 OFFCURVE",
"468 -9 OFFCURVE",
"301 -10 CURVE SMOOTH",
"134 -9 OFFCURVE",
"40 132 OFFCURVE",
"40 331 CURVE SMOOTH",
"40 506 OFFCURVE",
"125 663 OFFCURVE",
"301 664 CURVE SMOOTH"
);
},
{
closed = 1;
nodes = (
"130 170 OFFCURVE",
"189 76 OFFCURVE",
"301 76 CURVE SMOOTH",
"413 76 OFFCURVE",
"472 170 OFFCURVE",
"472 331 CURVE SMOOTH",
"472 492 OFFCURVE",
"414 578 OFFCURVE",
"301 578 CURVE SMOOTH",
"188 578 OFFCURVE",
"130 492 OFFCURVE",
"130 331 CURVE SMOOTH"
);
},
{
closed = 1;
nodes = (
"388 286 LINE SMOOTH",
"425 286 OFFCURVE",
"439 302 OFFCURVE",
"439 326 CURVE SMOOTH",
"439 350 OFFCURVE",
"425 366 OFFCURVE",
"388 366 CURVE SMOOTH",
"215 366 LINE SMOOTH",
"178 366 OFFCURVE",
"164 351 OFFCURVE",
"164 327 CURVE SMOOTH",
"164 303 OFFCURVE",
"178 286 OFFCURVE",
"215 286 CURVE SMOOTH"
);
}
);
vertWidth = 0;
width = 600;
}
);
note = Theta;
unicode = 0398;
},
{
glyphname = Thorn;
layers = (
{
layerId = "FB41A910-D058-4278-9D39-63B3F9D49349";
paths = (
{
closed = 1;
nodes = (
"134 349 LINE",
"165 383 OFFCURVE",
"222 412 OFFCURVE",
"295 412 CURVE SMOOTH",
"362 412 OFFCURVE",
"447 372 OFFCURVE",
"447 252 CURVE SMOOTH",
"447 132 OFFCURVE",
"362 92 OFFCURVE",
"295 92 CURVE SMOOTH",
"222 92 OFFCURVE",
"165 121 OFFCURVE",
"134 155 CURVE",
"134 45 LINE",
"171 23 OFFCURVE",
"240 5 OFFCURVE",
"301 5 CURVE SMOOTH",
"426 5 OFFCURVE",
"545 99 OFFCURVE",
"545 252 CURVE SMOOTH",
"545 405 OFFCURVE",
"426 499 OFFCURVE",
"301 499 CURVE SMOOTH",
"240 499 OFFCURVE",
"171 481 OFFCURVE",
"134 459 CURVE"
);
},
{
closed = 1;
nodes = (
"60 -69 LINE SMOOTH",
"60 -106 OFFCURVE",
"77 -120 OFFCURVE",
"100 -120 CURVE SMOOTH",
"123 -120 OFFCURVE",
"141 -118 OFFCURVE",
"141 -69 CURVE SMOOTH",
"141 542 LINE SMOOTH",
"141 579 OFFCURVE",
"124 593 OFFCURVE",
"100 593 CURVE SMOOTH",
"78 593 OFFCURVE",
"60 579 OFFCURVE",
"60 542 CURVE SMOOTH"
);
}
);
vertWidth = 0;
width = 600;
}
);
note = Thorn;
unicode = 00DE;
},
{
glyphname = U;
layers = (
{
anchors = (
{
name = bottom;
position = "{300, 0}";
},
{
name = ogonek;
position = "{526, 10}";
},
{
name = top;
position = "{300, 670}";
},
{
name = topright;
position = "{562, 650}";
}
);
layerId = "FB41A910-D058-4278-9D39-63B3F9D49349";
paths = (
{
closed = 1;
nodes = (
"420 -11 OFFCURVE",
"532 52 OFFCURVE",
"532 246 CURVE SMOOTH",
"532 600 LINE SMOOTH",
"532 637 OFFCURVE",
"515 651 OFFCURVE",
"489 651 CURVE SMOOTH",
"463 651 OFFCURVE",
"445 637 OFFCURVE",
"445 600 CURVE SMOOTH",
"445 246 LINE SMOOTH",
"445 98 OFFCURVE",
"370 76 OFFCURVE",
"300 76 CURVE SMOOTH",
"230 76 OFFCURVE",
"154 98 OFFCURVE",
"154 246 CURVE SMOOTH",
"154 600 LINE SMOOTH",
"154 637 OFFCURVE",
"137 651 OFFCURVE",
"111 651 CURVE SMOOTH",
"85 651 OFFCURVE",
"67 637 OFFCURVE",
"67 600 CURVE SMOOTH",
"67 246 LINE SMOOTH",
"67 52 OFFCURVE",
"180 -9 OFFCURVE",
"300 -10 CURVE SMOOTH"
);
}
);
vertWidth = 0;
width = 600;
}
);
note = U;
unicode = 0055;
},
{
glyphname = U1D53D;
layers = (
{
anchors = (
{
name = bottom;
position = "{251, 0}";
},
{
name = top;
position = "{251, 670}";
}
);
layerId = "FB41A910-D058-4278-9D39-63B3F9D49349";
paths = (
{
closed = 1;
nodes = (
"140 -1 OFFCURVE",
"158 13 OFFCURVE",
"158 50 CURVE SMOOTH",
"158 265 LINE",
"399 265 LINE SMOOTH",
"436 265 OFFCURVE",
"450 282 OFFCURVE",
"450 305 CURVE SMOOTH",
"450 327 OFFCURVE",
"436 345 OFFCURVE",
"399 345 CURVE SMOOTH",
"158 345 LINE",
"158 570 LINE",
"479 570 LINE SMOOTH",
"516 570 OFFCURVE",
"530 587 OFFCURVE",
"530 610 CURVE SMOOTH",
"530 632 OFFCURVE",
"516 650 OFFCURVE",
"479 650 CURVE SMOOTH",
"146 650 LINE SMOOTH",
"98 650 OFFCURVE",
"71 623 OFFCURVE",
"71 575 CURVE SMOOTH",
"71 50 LINE SMOOTH",
"71 13 OFFCURVE",
"88 -1 OFFCURVE",
"114 -1 CURVE SMOOTH"
);
},
{
closed = 1;
nodes = (
"101 594 LINE SMOOTH",
"101 603 OFFCURVE",
"106 609 OFFCURVE",
"115 609 CURVE SMOOTH",
"124 609 OFFCURVE",
"130 603 OFFCURVE",
"130 594 CURVE SMOOTH",
"130 45 LINE SMOOTH",
"130 36 OFFCURVE",
"125 30 OFFCURVE",
"116 30 CURVE SMOOTH",
"107 30 OFFCURVE",
"101 36 OFFCURVE",
"101 45 CURVE SMOOTH"
);
}
);
vertWidth = 0;
width = 600;
}
);
note = u1D53D;
},
{
glyphname = U1D53E;
layers = (
{
anchors = (
{
name = bottom;
position = "{300, 0}";
},
{
name = top;
position = "{300, 680}";
}
);
layerId = "FB41A910-D058-4278-9D39-63B3F9D49349";
paths = (
{
closed = 1;
nodes = (
"421 -9 OFFCURVE",
"485 32 OFFCURVE",
"529 108 CURVE SMOOTH",
"558 158 OFFCURVE",
"570 232 OFFCURVE",
"570 270 CURVE SMOOTH",
"570 301 OFFCURVE",
"560 313 OFFCURVE",
"532 313 CURVE SMOOTH",
"358 313 LINE SMOOTH",
"311 313 OFFCURVE",
"297 297 OFFCURVE",
"297 274 CURVE SMOOTH",
"297 250 OFFCURVE",
"311 233 OFFCURVE",
"358 233 CURVE SMOOTH",
"493 233 LINE",
"492 217 OFFCURVE",
"487 198 OFFCURVE",
"479 181 CURVE SMOOTH",
"434 87 OFFCURVE",
"380 75 OFFCURVE",
"312 76 CURVE SMOOTH",
"190 77 OFFCURVE",
"129 174 OFFCURVE",
"129 341 CURVE SMOOTH",
"129 484 OFFCURVE",
"189 574 OFFCURVE",
"312 574 CURVE SMOOTH",
"390 574 OFFCURVE",
"430 550 OFFCURVE",
"459 474 CURVE SMOOTH",
"467 452 OFFCURVE",
"488 441 OFFCURVE",
"511 451 CURVE SMOOTH",
"535 461 OFFCURVE",
"536 480 OFFCURVE",
"532 499 CURVE SMOOTH",
"511 602 OFFCURVE",
"428 659 OFFCURVE",
"312 659 CURVE SMOOTH",
"126 659 OFFCURVE",
"39 502 OFFCURVE",
"39 341 CURVE SMOOTH",
"39 132 OFFCURVE",
"135 -9 OFFCURVE",
"312 -9 CURVE SMOOTH"
);
},
{
closed = 1;
nodes = (
"529 288 LINE SMOOTH",
"538 288 OFFCURVE",
"544 283 OFFCURVE",
"544 274 CURVE SMOOTH",
"544 265 OFFCURVE",
"538 259 OFFCURVE",
"529 259 CURVE SMOOTH",
"339 259 LINE SMOOTH",
"330 259 OFFCURVE",
"324 264 OFFCURVE",
"324 273 CURVE SMOOTH",
"324 282 OFFCURVE",
"330 288 OFFCURVE",
"339 288 CURVE SMOOTH"
);
},
{
closed = 1;
nodes = (
"161 29 OFFCURVE",
"69 125 OFFCURVE",
"69 338 CURVE SMOOTH",
"69 518 OFFCURVE",
"160 623 OFFCURVE",
"297 631 CURVE SMOOTH",
"307 631 OFFCURVE",
"312 625 OFFCURVE",
"312 616 CURVE SMOOTH",
"312 607 OFFCURVE",
"308 601 OFFCURVE",
"298 601 CURVE SMOOTH",
"170 594 OFFCURVE",
"103 501 OFFCURVE",
"103 339 CURVE SMOOTH",
"103 151 OFFCURVE",
"171 59 OFFCURVE",
"302 51 CURVE SMOOTH",
"312 51 OFFCURVE",
"317 45 OFFCURVE",
"317 36 CURVE SMOOTH",
"317 27 OFFCURVE",
"312 21 OFFCURVE",
"302 21 CURVE SMOOTH"
);
}
);
vertWidth = 0;
width = 600;
}
);
note = u1D53E;
},
{
glyphname = U1D54A;
layers = (
{
anchors = (
{
name = bottom;
position = "{274, 0}";
},
{
name = top;
position = "{284, 690}";
}
);
layerId = "FB41A910-D058-4278-9D39-63B3F9D49349";
paths = (
{
closed = 1;
nodes = (
"421 -8 OFFCURVE",
"500 67 OFFCURVE",
"500 183 CURVE SMOOTH",
"500 264 OFFCURVE",
"446 319 OFFCURVE",
"327 375 CURVE SMOOTH",
"242 415 OFFCURVE",
"207 449 OFFCURVE",
"207 504 CURVE SMOOTH",
"207 546 OFFCURVE",
"241 579 OFFCURVE",
"284 579 CURVE SMOOTH",
"310 579 OFFCURVE",
"346 573 OFFCURVE",
"388 552 CURVE SMOOTH",
"416 538 OFFCURVE",
"436 544 OFFCURVE",
"449 570 CURVE SMOOTH",
"459 590 OFFCURVE",
"451 608 OFFCURVE",
"427 623 CURVE SMOOTH",
"389 646 OFFCURVE",
"341 660 OFFCURVE",
"283 660 CURVE SMOOTH",
"190 660 OFFCURVE",
"117 591 OFFCURVE",
"117 502 CURVE SMOOTH",
"117 424 OFFCURVE",
"168 359 OFFCURVE",
"266 312 CURVE SMOOTH",
"326 283 OFFCURVE",
"414 246 OFFCURVE",
"414 184 CURVE SMOOTH",
"414 122 OFFCURVE",
"364 76 OFFCURVE",
"291 76 CURVE SMOOTH",
"252 76 OFFCURVE",
"211 92 OFFCURVE",
"167 126 CURVE SMOOTH",
"144 143 OFFCURVE",
"127 148 OFFCURVE",
"106 129 CURVE SMOOTH",
"86 110 OFFCURVE",
"83 85 OFFCURVE",
"106 66 CURVE SMOOTH",
"159 24 OFFCURVE",
"225 -8 OFFCURVE",
"299 -8 CURVE SMOOTH"
);
},
{
closed = 1;
nodes = (
"174 435 OFFCURVE",
"223 400 OFFCURVE",
"289 362 CURVE SMOOTH",
"297 358 OFFCURVE",
"299 351 OFFCURVE",
"295 345 CURVE SMOOTH",
"291 339 OFFCURVE",
"285 337 OFFCURVE",
"278 342 CURVE SMOOTH",
"207 387 OFFCURVE",
"150 426 OFFCURVE",
"150 503 CURVE SMOOTH",
"150 597 OFFCURVE",
"220 624 OFFCURVE",
"272 628 CURVE SMOOTH",
"280 629 OFFCURVE",
"284 624 OFFCURVE",
"284 617 CURVE SMOOTH",
"284 610 OFFCURVE",
"280 606 OFFCURVE",
"272 605 CURVE SMOOTH",
"220 601 OFFCURVE",
"174 572 OFFCURVE",
"174 503 CURVE SMOOTH"
);
},
{
closed = 1;
nodes = (
"213 25 OFFCURVE",
"163 60 OFFCURVE",
"124 90 CURVE SMOOTH",
"116 96 OFFCURVE",
"118 104 OFFCURVE",
"124 110 CURVE SMOOTH",
"131 115 OFFCURVE",
"135 115 OFFCURVE",
"142 109 CURVE SMOOTH",
"179 80 OFFCURVE",
"222 49 OFFCURVE",
"281 45 CURVE SMOOTH",
"290 45 OFFCURVE",
"294 40 OFFCURVE",
"294 33 CURVE SMOOTH",
"294 25 OFFCURVE",
"290 20 OFFCURVE",
"281 20 CURVE SMOOTH"
);
}
);
vertWidth = 0;
width = 600;
}
);
note = u1D54A;
},
{
glyphname = U1D54E;
layers = (
{
anchors = (
{
name = bottom;
position = "{318, 0}";
},
{
name = top;
position = "{318, 670}";
}
);
layerId = "FB41A910-D058-4278-9D39-63B3F9D49349";
paths = (
{
closed = 1;
nodes = (
"115 30 LINE SMOOTH",
"119 3 OFFCURVE",
"134 -10 OFFCURVE",
"154 -10 CURVE SMOOTH",
"179 -10 OFFCURVE",
"194 6 OFFCURVE",
"203 28 CURVE SMOOTH",
"300 254 LINE",
"397 28 LINE SMOOTH",
"404 11 OFFCURVE",
"421 -10 OFFCURVE",
"446 -10 CURVE SMOOTH",
"466 -10 OFFCURVE",
"481 3 OFFCURVE",
"485 30 CURVE SMOOTH",
"562 596 LINE SMOOTH",
"567 633 OFFCURVE",
"552 649 OFFCURVE",
"527 653 CURVE SMOOTH",
"502 655 OFFCURVE",
"483 644 OFFCURVE",
"478 607 CURVE SMOOTH",
"419 166 LINE",
"346 346 LINE SMOOTH",
"334 376 OFFCURVE",
"319 386 OFFCURVE",
"300 386 CURVE SMOOTH",
"281 386 OFFCURVE",
"266 376 OFFCURVE",
"254 346 CURVE SMOOTH",
"181 166 LINE",
"122 607 LINE SMOOTH",
"117 644 OFFCURVE",
"98 655 OFFCURVE",
"73 653 CURVE SMOOTH",
"48 649 OFFCURVE",
"33 633 OFFCURVE",
"38 596 CURVE SMOOTH"
);
},
{
closed = 1;
nodes = (
"67 611 LINE SMOOTH",
"66 619 OFFCURVE",
"69 624 OFFCURVE",
"75 625 CURVE SMOOTH",
"84 626 OFFCURVE",
"89 623 OFFCURVE",
"90 614 CURVE SMOOTH",
"168 30 LINE SMOOTH",
"169 22 OFFCURVE",
"167 17 OFFCURVE",
"160 16 CURVE SMOOTH",
"152 15 OFFCURVE",
"147 18 OFFCURVE",
"146 27 CURVE SMOOTH"
);
},
{
closed = 1;
nodes = (
"295 339 LINE SMOOTH",
"292 347 OFFCURVE",
"296 352 OFFCURVE",
"302 354 CURVE SMOOTH",
"310 356 OFFCURVE",
"314 353 OFFCURVE",
"318 344 CURVE SMOOTH",
"448 31 LINE SMOOTH",
"451 23 OFFCURVE",
"448 18 OFFCURVE",
"441 16 CURVE SMOOTH",
"434 14 OFFCURVE",
"430 17 OFFCURVE",
"426 26 CURVE SMOOTH"
);
}
);
vertWidth = 0;
width = 600;
}
);
note = u1D54E;
},
{
glyphname = U1D54F;
layers = (
{
anchors = (
{
name = bottom;
position = "{271, 0}";
},
{
name = top;
position = "{271, 670}";
}
);
layerId = "FB41A910-D058-4278-9D39-63B3F9D49349";
paths = (
{
closed = 1;
nodes = (
"167 620 LINE SMOOTH",
"146 651 OFFCURVE",
"127 656 OFFCURVE",
"105 644 CURVE SMOOTH",
"83 632 OFFCURVE",
"71 610 OFFCURVE",
"92 579 CURVE SMOOTH",
"455 30 LINE SMOOTH",
"476 -1 OFFCURVE",
"495 -6 OFFCURVE",
"517 6 CURVE SMOOTH",
"538 18 OFFCURVE",
"551 40 OFFCURVE",
"530 71 CURVE SMOOTH"
);
},
{
closed = 1;
nodes = (
"346 322 LINE",
"512 579 LINE SMOOTH",
"532 610 OFFCURVE",
"521 632 OFFCURVE",
"499 644 CURVE SMOOTH",
"477 656 OFFCURVE",
"458 651 OFFCURVE",
"437 620 CURVE SMOOTH",
"294 405 LINE"
);
},
{
closed = 1;
nodes = (
"264 359 LINE",
"69 71 LINE SMOOTH",
"48 40 OFFCURVE",
"61 18 OFFCURVE",
"82 6 CURVE SMOOTH",
"104 -6 OFFCURVE",
"122 -1 OFFCURVE",
"144 30 CURVE SMOOTH",
"318 281 LINE"
);
},
{
closed = 1;
nodes = (
"115 597 LINE SMOOTH",
"110 604 OFFCURVE",
"111 612 OFFCURVE",
"118 617 CURVE SMOOTH",
"126 622 OFFCURVE",
"134 620 OFFCURVE",
"139 613 CURVE SMOOTH",
"510 53 LINE SMOOTH",
"515 46 OFFCURVE",
"514 38 OFFCURVE",
"507 33 CURVE SMOOTH",
"499 28 OFFCURVE",
"491 30 OFFCURVE",
"486 37 CURVE SMOOTH"
);
}
);
vertWidth = 0;
width = 600;
}
);
note = u1D54F;
},
{
glyphname = U1D557;
layers = (
{
layerId = "FB41A910-D058-4278-9D39-63B3F9D49349";
paths = (
{
closed = 1;
nodes = (
"279 0 OFFCURVE",
"293 18 OFFCURVE",
"293 51 CURVE SMOOTH",
"293 395 LINE",
"413 395 LINE SMOOTH",
"446 395 OFFCURVE",
"464 409 OFFCURVE",
"464 434 CURVE SMOOTH",
"464 459 OFFCURVE",
"446 473 OFFCURVE",
"413 473 CURVE SMOOTH",
"293 473 LINE",
"293 510 LINE SMOOTH",
"293 583 OFFCURVE",
"311 614 OFFCURVE",
"352 614 CURVE SMOOTH",
"380 614 OFFCURVE",
"400 605 OFFCURVE",
"438 576 CURVE SMOOTH",
"457 560 OFFCURVE",
"481 566 OFFCURVE",
"494 590 CURVE SMOOTH",
"506 611 OFFCURVE",
"500 627 OFFCURVE",
"468 654 CURVE SMOOTH",
"437 680 OFFCURVE",
"392 697 OFFCURVE",
"354 697 CURVE SMOOTH",
"258 697 OFFCURVE",
"210 635 OFFCURVE",
"210 512 CURVE SMOOTH",
"210 473 LINE",
"179 473 LINE SMOOTH",
"146 473 OFFCURVE",
"128 459 OFFCURVE",
"128 434 CURVE SMOOTH",
"128 409 OFFCURVE",
"146 395 OFFCURVE",
"179 395 CURVE SMOOTH",
"210 395 LINE",
"210 51 LINE SMOOTH",
"210 18 OFFCURVE",
"225 0 OFFCURVE",
"252 0 CURVE SMOOTH"
);
},
{
closed = 1;
nodes = (
"252 29 CURVE SMOOTH",
"243 29 OFFCURVE",
"238 35 OFFCURVE",
"238 46 CURVE SMOOTH",
"239 508 LINE SMOOTH",
"239 637 OFFCURVE",
"280 666 OFFCURVE",
"340 669 CURVE SMOOTH",
"347 669 OFFCURVE",
"351 665 OFFCURVE",
"351 658 CURVE SMOOTH",
"351 651 OFFCURVE",
"347 646 OFFCURVE",
"340 646 CURVE SMOOTH",
"280 645 OFFCURVE",
"264 601 OFFCURVE",
"264 508 CURVE SMOOTH",
"265 46 LINE SMOOTH",
"265 35 OFFCURVE",
"260 29 OFFCURVE"
);
}
);
vertWidth = 0;
width = 600;
}
);
note = u1D557;
},
{
glyphname = U1D558;
layers = (
{
layerId = "FB41A910-D058-4278-9D39-63B3F9D49349";
paths = (
{
closed = 1;
nodes = (
"427 -217 OFFCURVE",
"510 -130 OFFCURVE",
"510 31 CURVE SMOOTH",
"510 422 LINE SMOOTH",
"510 455 OFFCURVE",
"496 473 OFFCURVE",
"469 473 CURVE SMOOTH",
"443 473 OFFCURVE",
"429 455 OFFCURVE",
"429 422 CURVE SMOOTH",
"429 31 LINE SMOOTH",
"429 -74 OFFCURVE",
"372 -132 OFFCURVE",
"276 -133 CURVE SMOOTH",
"220 -134 OFFCURVE",
"166 -123 OFFCURVE",
"115 -98 CURVE SMOOTH",
"94 -88 OFFCURVE",
"77 -92 OFFCURVE",
"66 -118 CURVE SMOOTH",
"56 -142 OFFCURVE",
"66 -160 OFFCURVE",
"87 -171 CURVE SMOOTH",
"145 -201 OFFCURVE",
"214 -212 OFFCURVE",
"285 -214 CURVE SMOOTH"
);
},
{
closed = 1;
nodes = (
"356 -10 OFFCURVE",
"404 13 OFFCURVE",
"447 72 CURVE",
"447 167 LINE",
"402 96 OFFCURVE",
"358 66 OFFCURVE",
"298 66 CURVE SMOOTH",
"229 66 OFFCURVE",
"184 132 OFFCURVE",
"184 233 CURVE SMOOTH",
"184 337 OFFCURVE",
"229 404 OFFCURVE",
"299 404 CURVE SMOOTH",
"360 404 OFFCURVE",
"409 360 OFFCURVE",
"429 288 CURVE",
"450 382 LINE",
"431 443 OFFCURVE",
"364 483 OFFCURVE",
"282 483 CURVE SMOOTH",
"170 483 OFFCURVE",
"90 378 OFFCURVE",
"90 233 CURVE SMOOTH",
"90 92 OFFCURVE",
"170 -10 OFFCURVE",
"279 -10 CURVE SMOOTH"
);
},
{
closed = 1;
nodes = (
"225 24 OFFCURVE",
"123 68 OFFCURVE",
"123 235 CURVE SMOOTH",
"123 407 OFFCURVE",
"223 446 OFFCURVE",
"275 450 CURVE SMOOTH",
"282 451 OFFCURVE",
"286 447 OFFCURVE",
"286 442 CURVE",
"286 442 LINE",
"286 435 OFFCURVE",
"282 431 OFFCURVE",
"276 430 CURVE SMOOTH",
"236 425 OFFCURVE",
"151 392 OFFCURVE",
"151 235 CURVE SMOOTH",
"151 80 OFFCURVE",
"239 44 OFFCURVE",
"285 40 CURVE SMOOTH",
"291 39 OFFCURVE",
"295 36 OFFCURVE",
"295 30 CURVE",
"295 30 LINE",
"295 23 OFFCURVE",
"291 19 OFFCURVE",
"284 19 CURVE SMOOTH"
);
},
{
closed = 1;
nodes = (
"457 65 LINE SMOOTH",
"457 74 OFFCURVE",
"462 79 OFFCURVE",
"471 79 CURVE SMOOTH",
"480 79 OFFCURVE",
"485 74 OFFCURVE",
"485 65 CURVE SMOOTH",
"485 42 LINE",
"485 -100 OFFCURVE",
"430 -185 OFFCURVE",
"286 -188 CURVE",
"275 -188 LINE SMOOTH",
"266 -188 OFFCURVE",
"260 -182 OFFCURVE",
"260 -173 CURVE",
"260 -173 LINE",
"260 -164 OFFCURVE",
"266 -158 OFFCURVE",
"275 -158 CURVE SMOOTH",
"285 -158 LINE",
"411 -156 OFFCURVE",
"456 -85 OFFCURVE",
"457 42 CURVE"
);
}
);
vertWidth = 0;
width = 600;
}
);
note = u1D558;
},
{
glyphname = U1D563;
layers = (
{
layerId = "FB41A910-D058-4278-9D39-63B3F9D49349";
paths = (
{
closed = 1;
nodes = (
"500 395 LINE",
"513 419 OFFCURVE",
"507 441 OFFCURVE",
"481 454 CURVE SMOOTH",
"442 473 OFFCURVE",
"407 483 OFFCURVE",
"358 483 CURVE SMOOTH",
"282 483 OFFCURVE",
"202 433 OFFCURVE",
"176 367 CURVE",
"203 309 LINE",
"243 369 OFFCURVE",
"305 393 OFFCURVE",
"356 393 CURVE SMOOTH",
"387 393 OFFCURVE",
"410 387 OFFCURVE",
"439 376 CURVE SMOOTH",
"466 366 OFFCURVE",
"487 371 OFFCURVE",
"500 395 CURVE"
);
},
{
closed = 1;
nodes = (
"120 51 LINE SMOOTH",
"120 18 OFFCURVE",
"134 0 OFFCURVE",
"161 0 CURVE SMOOTH",
"188 0 OFFCURVE",
"203 18 OFFCURVE",
"203 51 CURVE SMOOTH",
"203 411 LINE",
"193 453 OFFCURVE",
"179 474 OFFCURVE",
"156 474 CURVE SMOOTH",
"135 474 OFFCURVE",
"120 456 OFFCURVE",
"120 423 CURVE SMOOTH"
);
},
{
closed = 1;
nodes = (
"176 46 LINE SMOOTH",
"176 37 OFFCURVE",
"171 31 OFFCURVE",
"162 31 CURVE SMOOTH",
"153 31 OFFCURVE",
"147 37 OFFCURVE",
"147 46 CURVE SMOOTH",
"147 426 LINE SMOOTH",
"147 435 OFFCURVE",
"152 441 OFFCURVE",
"161 441 CURVE SMOOTH",
"170 441 OFFCURVE",
"176 435 OFFCURVE",
"176 426 CURVE SMOOTH"
);
}
);
vertWidth = 0;
width = 600;
}
);
note = u1D563;
},
{
glyphname = U1D564;
layers = (
{
layerId = "FB41A910-D058-4278-9D39-63B3F9D49349";
paths = (
{
closed = 1;
nodes = (
"401 -10 OFFCURVE",
"500 43 OFFCURVE",
"500 133 CURVE SMOOTH",
"500 197 OFFCURVE",
"457 239 OFFCURVE",
"351 272 CURVE SMOOTH",
"258 302 OFFCURVE",
"209 317 OFFCURVE",
"209 355 CURVE SMOOTH",
"209 394 OFFCURVE",
"261 407 OFFCURVE",
"306 407 CURVE SMOOTH",
"356 407 OFFCURVE",
"394 387 OFFCURVE",
"415 375 CURVE SMOOTH",
"436 363 OFFCURVE",
"455 367 OFFCURVE",
"467 388 CURVE SMOOTH",
"482 414 OFFCURVE",
"467 434 OFFCURVE",
"443 449 CURVE SMOOTH",
"422 462 OFFCURVE",
"380 482 OFFCURVE",
"306 482 CURVE SMOOTH",
"202 482 OFFCURVE",
"130 430 OFFCURVE",
"130 354 CURVE SMOOTH",
"130 271 OFFCURVE",
"190 229 OFFCURVE",
"307 201 CURVE SMOOTH",
"377 184 OFFCURVE",
"420 162 OFFCURVE",
"420 136 CURVE SMOOTH",
"420 94 OFFCURVE",
"357 71 OFFCURVE",
"310 71 CURVE SMOOTH",
"246 71 OFFCURVE",
"200 82 OFFCURVE",
"165 112 CURVE SMOOTH",
"147 127 OFFCURVE",
"127 128 OFFCURVE",
"110 110 CURVE SMOOTH",
"91 89 OFFCURVE",
"100 66 OFFCURVE",
"122 46 CURVE SMOOTH",
"140 28 OFFCURVE",
"200 -10 OFFCURVE",
"310 -10 CURVE SMOOTH"
);
},
{
closed = 1;
nodes = (
"320 241 CURVE SMOOTH",
"316 233 OFFCURVE",
"310 231 OFFCURVE",
"302 234 CURVE SMOOTH",
"226 258 OFFCURVE",
"159 278 OFFCURVE",
"159 355 CURVE",
"159 425 OFFCURVE",
"236 455 OFFCURVE",
"306 455 CURVE SMOOTH",
"313 455 OFFCURVE",
"317 454 OFFCURVE",
"317 446 CURVE SMOOTH",
"317 440 OFFCURVE",
"313 437 OFFCURVE",
"306 437 CURVE SMOOTH",
"252 437 OFFCURVE",
"181 418 OFFCURVE",
"181 356 CURVE",
"181 299 OFFCURVE",
"252 276 OFFCURVE",
"311 257 CURVE SMOOTH",
"320 254 OFFCURVE",
"324 248 OFFCURVE"
);
},
{
closed = 1;
nodes = (
"309 32 CURVE SMOOTH",
"309 25 OFFCURVE",
"304 20 OFFCURVE",
"295 20 CURVE SMOOTH",
"242 22 OFFCURVE",
"173 37 OFFCURVE",
"143 67 CURVE",
"142 68 LINE",
"142 68 LINE",
"131 78 OFFCURVE",
"129 84 OFFCURVE",
"129 86 CURVE",
"128 87 OFFCURVE",
"128 88 OFFCURVE",
"131 92 CURVE",
"133 93 OFFCURVE",
"136 96 OFFCURVE",
"138 96 CURVE",
"140 96 OFFCURVE",
"143 95 OFFCURVE",
"147 92 CURVE",
"183 61 OFFCURVE",
"229 46 OFFCURVE",
"295 44 CURVE SMOOTH",
"304 44 OFFCURVE",
"309 39 OFFCURVE"
);
}
);
vertWidth = 0;
width = 600;
}
);
note = u1D564;
},
{
glyphname = U1D568;
layers = (
{
layerId = "FB41A910-D058-4278-9D39-63B3F9D49349";
paths = (
{
closed = 1;
nodes = (
"228 -9 OFFCURVE",
"236 1 OFFCURVE",
"245 31 CURVE SMOOTH",
"300 213 LINE",
"355 31 LINE SMOOTH",
"364 1 OFFCURVE",
"372 -9 OFFCURVE",
"400 -9 CURVE SMOOTH",
"419 -9 OFFCURVE",
"433 5 OFFCURVE",
"438 27 CURVE SMOOTH",
"533 414 LINE SMOOTH",
"542 451 OFFCURVE",
"526 467 OFFCURVE",
"505 472 CURVE SMOOTH",
"481 478 OFFCURVE",
"461 468 OFFCURVE",
"453 432 CURVE SMOOTH",
"390 139 LINE",
"347 283 LINE SMOOTH",
"338 313 OFFCURVE",
"320 322 OFFCURVE",
"300 322 CURVE SMOOTH",
"280 322 OFFCURVE",
"262 313 OFFCURVE",
"253 283 CURVE SMOOTH",
"210 139 LINE",
"147 432 LINE SMOOTH",
"139 468 OFFCURVE",
"119 478 OFFCURVE",
"95 472 CURVE SMOOTH",
"74 467 OFFCURVE",
"58 451 OFFCURVE",
"67 414 CURVE SMOOTH",
"162 27 LINE SMOOTH",
"167 5 OFFCURVE",
"181 -9 OFFCURVE",
"200 -9 CURVE SMOOTH"
);
},
{
closed = 1;
nodes = (
"94 427 LINE SMOOTH",
"92 435 OFFCURVE",
"95 440 OFFCURVE",
"101 442 CURVE SMOOTH",
"109 444 OFFCURVE",
"115 441 OFFCURVE",
"117 432 CURVE SMOOTH",
"211 35 LINE SMOOTH",
"213 27 OFFCURVE",
"211 22 OFFCURVE",
"204 20 CURVE SMOOTH",
"197 18 OFFCURVE",
"191 21 OFFCURVE",
"189 30 CURVE SMOOTH"
);
},
{
closed = 1;
nodes = (
"298 284 LINE SMOOTH",
"295 292 OFFCURVE",
"299 297 OFFCURVE",
"305 299 CURVE SMOOTH",
"313 301 OFFCURVE",
"318 298 OFFCURVE",
"321 289 CURVE SMOOTH",
"405 31 LINE SMOOTH",
"408 23 OFFCURVE",
"405 18 OFFCURVE",
"398 16 CURVE SMOOTH",
"391 14 OFFCURVE",
"386 17 OFFCURVE",
"383 26 CURVE SMOOTH"
);
}
);
vertWidth = 0;
width = 600;
}
);
note = u1D568;
},
{
glyphname = U1D569;
layers = (
{
layerId = "FB41A910-D058-4278-9D39-63B3F9D49349";
paths = (
{
closed = 1;
nodes = (
"416 24 LINE SMOOTH",
"438 -5 OFFCURVE",
"459 -8 OFFCURVE",
"479 6 CURVE SMOOTH",
"498 19 OFFCURVE",
"505 41 OFFCURVE",
"482 70 CURVE SMOOTH",
"192 446 LINE SMOOTH",
"169 476 OFFCURVE",
"148 478 OFFCURVE",
"128 464 CURVE SMOOTH",
"110 451 OFFCURVE",
"102 430 OFFCURVE",
"125 400 CURVE SMOOTH"
);
},
{
closed = 1;
nodes = (
"341 231 LINE",
"472 400 LINE SMOOTH",
"495 430 OFFCURVE",
"487 451 OFFCURVE",
"469 464 CURVE SMOOTH",
"449 478 OFFCURVE",
"428 476 OFFCURVE",
"405 446 CURVE SMOOTH",
"289 295 LINE"
);
},
{
closed = 1;
nodes = (
"138 431 OFFCURVE",
"141 438 OFFCURVE",
"146 441 CURVE SMOOTH",
"152 446 OFFCURVE",
"158 445 OFFCURVE",
"165 436 CURVE SMOOTH",
"460 53 LINE SMOOTH",
"467 44 OFFCURVE",
"465 37 OFFCURVE",
"459 34 CURVE SMOOTH",
"453 29 OFFCURVE",
"447 30 OFFCURVE",
"440 39 CURVE SMOOTH",
"145 422 LINE SMOOTH"
);
},
{
closed = 1;
nodes = (
"255 246 LINE",
"119 70 LINE SMOOTH",
"96 41 OFFCURVE",
"103 19 OFFCURVE",
"122 6 CURVE SMOOTH",
"142 -8 OFFCURVE",
"163 -5 OFFCURVE",
"185 24 CURVE SMOOTH",
"308 183 LINE"
);
}
);
vertWidth = 0;
width = 600;
}
);
note = u1D569;
},
{
glyphname = U211D;
layers = (
{
anchors = (
{
name = bottom;
position = "{299, 0}";
},
{
name = top;
position = "{299, 670}";
}
);
layerId = "FB41A910-D058-4278-9D39-63B3F9D49349";
paths = (
{
closed = 1;
nodes = (
"553 -2 OFFCURVE",
"556 17 OFFCURVE",
"556 38 CURVE SMOOTH",
"556 59 OFFCURVE",
"547 80 OFFCURVE",
"508 80 CURVE SMOOTH",
"459 80 OFFCURVE",
"420 214 OFFCURVE",
"369 297 CURVE",
"462 321 OFFCURVE",
"513 378 OFFCURVE",
"513 463 CURVE SMOOTH",
"513 601 OFFCURVE",
"421 650 OFFCURVE",
"274 650 CURVE SMOOTH",
"146 650 LINE SMOOTH",
"98 650 OFFCURVE",
"71 623 OFFCURVE",
"71 575 CURVE SMOOTH",
"71 50 LINE SMOOTH",
"71 13 OFFCURVE",
"88 -1 OFFCURVE",
"114 -1 CURVE SMOOTH",
"140 -1 OFFCURVE",
"158 13 OFFCURVE",
"158 50 CURVE SMOOTH",
"158 285 LINE",
"264 285 LINE",
"275 285 LINE",
"350 181 OFFCURVE",
"394 -2 OFFCURVE",
"499 -2 CURVE SMOOTH"
);
},
{
closed = 1;
nodes = (
"107 30 OFFCURVE",
"101 36 OFFCURVE",
"101 45 CURVE SMOOTH",
"101 594 LINE SMOOTH",
"101 603 OFFCURVE",
"106 609 OFFCURVE",
"115 609 CURVE SMOOTH",
"124 609 OFFCURVE",
"130 603 OFFCURVE",
"130 594 CURVE SMOOTH",
"130 45 LINE SMOOTH",
"130 36 OFFCURVE",
"125 30 OFFCURVE",
"116 30 CURVE SMOOTH"
);
},
{
closed = 1;
nodes = (
"368 172 OFFCURVE",
"338 234 OFFCURVE",
"314 276 CURVE SMOOTH",
"305 291 OFFCURVE",
"307 300 OFFCURVE",
"318 302 CURVE SMOOTH",
"325 303 OFFCURVE",
"333 302 OFFCURVE",
"339 291 CURVE SMOOTH",
"363 249 OFFCURVE",
"391 190 OFFCURVE",
"402 165 CURVE SMOOTH",
"407 156 OFFCURVE",
"404 148 OFFCURVE",
"397 146 CURVE SMOOTH",
"389 144 OFFCURVE",
"382 146 OFFCURVE",
"376 157 CURVE SMOOTH"
);
},
{
closed = 1;
nodes = (
"158 570 LINE",
"274 570 LINE SMOOTH",
"407 570 OFFCURVE",
"430 529 OFFCURVE",
"430 467 CURVE SMOOTH",
"430 396 OFFCURVE",
"367 365 OFFCURVE",
"274 365 CURVE SMOOTH",
"158 365 LINE"
);
},
{
closed = 1;
nodes = (
"462 473 OFFCURVE",
"457 478 OFFCURVE",
"456 489 CURVE SMOOTH",
"452 525 OFFCURVE",
"438 552 OFFCURVE",
"413 570 CURVE",
"395 581 OFFCURVE",
"373 590 OFFCURVE",
"344 595 CURVE SMOOTH",
"336 597 OFFCURVE",
"332 601 OFFCURVE",
"332 608 CURVE SMOOTH",
"332 615 OFFCURVE",
"337 619 OFFCURVE",
"346 617 CURVE SMOOTH",
"384 612 OFFCURVE",
"410 601 OFFCURVE",
"431 587 CURVE",
"461 565 OFFCURVE",
"478 532 OFFCURVE",
"482 487 CURVE SMOOTH",
"483 478 OFFCURVE",
"478 473 OFFCURVE",
"470 473 CURVE SMOOTH"
);
}
);
vertWidth = 0;
width = 600;
}
);
note = uni211D;
},
{
glyphname = Upsilontonos;
layers = (
{
anchors = (
{
name = _top;
position = "{127.582, 486.875}";
},
{
name = top;
position = "{376, 670}";
},
{
name = bottom;
position = "{376, 0}";
},
{
name = topleft;
position = "{119, 650}";
}
);
components = (
{
name = acutecomb;
transform = "{0.93969, 0.34202, -0.34202, 0.93969, 40, -59}";
}
);
layerId = "FB41A910-D058-4278-9D39-63B3F9D49349";
paths = (
{
closed = 1;
nodes = (
"333 250 LINE",
"342 224 OFFCURVE",
"355 201 OFFCURVE",
"379 201 CURVE SMOOTH",
"403 201 OFFCURVE",
"416 224 OFFCURVE",
"425 250 CURVE",
"563 580 LINE SMOOTH",
"579 618 OFFCURVE",
"565 638 OFFCURVE",
"540 648 CURVE SMOOTH",
"515 656 OFFCURVE",
"495 654 OFFCURVE",
"479 611 CURVE SMOOTH",
"379 337 LINE",
"279 611 LINE SMOOTH",
"263 654 OFFCURVE",
"243 656 OFFCURVE",
"218 648 CURVE SMOOTH",
"193 638 OFFCURVE",
"179 618 OFFCURVE",
"195 580 CURVE SMOOTH"
);
},
{
closed = 1;
nodes = (
"422 278 LINE SMOOTH",
"422 316 OFFCURVE",
"405 330 OFFCURVE",
"379 330 CURVE SMOOTH",
"353 330 OFFCURVE",
"335 316 OFFCURVE",
"335 278 CURVE SMOOTH",
"335 52 LINE SMOOTH",
"335 14 OFFCURVE",
"352 0 OFFCURVE",
"378 0 CURVE SMOOTH",
"404 0 OFFCURVE",
"422 14 OFFCURVE",
"422 52 CURVE SMOOTH"
);
}
);
vertWidth = 0;
width = 600;
}
);
note = Upsilontonos;
unicode = 038E;
},
{
glyphname = V;
layers = (
{
anchors = (
{
name = bottom;
position = "{300, 0}";
},
{
name = top;
position = "{300, 670}";
}
);
layerId = "FB41A910-D058-4278-9D39-63B3F9D49349";
paths = (
{
closed = 1;
nodes = (
"254 29 LINE SMOOTH",
"264 3 OFFCURVE",
"276 -10 OFFCURVE",
"300 -10 CURVE SMOOTH",
"324 -10 OFFCURVE",
"336 3 OFFCURVE",
"346 29 CURVE SMOOTH",
"554 581 LINE SMOOTH",
"568 618 OFFCURVE",
"556 639 OFFCURVE",
"531 649 CURVE SMOOTH",
"506 657 OFFCURVE",
"484 651 OFFCURVE",
"470 612 CURVE SMOOTH",
"300 146 LINE",
"130 612 LINE SMOOTH",
"116 651 OFFCURVE",
"94 657 OFFCURVE",
"69 649 CURVE SMOOTH",
"44 639 OFFCURVE",
"32 618 OFFCURVE",
"46 581 CURVE SMOOTH"
);
}
);
vertWidth = 0;
width = 600;
}
);
note = V;
unicode = 0056;
},
{
glyphname = W;
layers = (
{
anchors = (
{
name = bottom;
position = "{318, 0}";
},
{
name = top;
position = "{318, 670}";
}
);
layerId = "FB41A910-D058-4278-9D39-63B3F9D49349";
paths = (
{
closed = 1;
nodes = (
"115 30 LINE SMOOTH",
"119 3 OFFCURVE",
"134 -10 OFFCURVE",
"154 -10 CURVE SMOOTH",
"179 -10 OFFCURVE",
"194 6 OFFCURVE",
"203 28 CURVE SMOOTH",
"300 254 LINE",
"397 28 LINE SMOOTH",
"404 11 OFFCURVE",
"421 -10 OFFCURVE",
"446 -10 CURVE SMOOTH",
"466 -10 OFFCURVE",
"481 3 OFFCURVE",
"485 30 CURVE SMOOTH",
"562 596 LINE SMOOTH",
"567 633 OFFCURVE",
"552 649 OFFCURVE",
"527 653 CURVE SMOOTH",
"502 655 OFFCURVE",
"483 644 OFFCURVE",
"478 607 CURVE SMOOTH",
"419 166 LINE",
"346 346 LINE SMOOTH",
"334 376 OFFCURVE",
"319 386 OFFCURVE",
"300 386 CURVE SMOOTH",
"281 386 OFFCURVE",
"266 376 OFFCURVE",
"254 346 CURVE SMOOTH",
"181 166 LINE",
"122 607 LINE SMOOTH",
"117 644 OFFCURVE",
"98 655 OFFCURVE",
"73 653 CURVE SMOOTH",
"48 649 OFFCURVE",
"33 633 OFFCURVE",
"38 596 CURVE SMOOTH"
);
}
);
vertWidth = 0;
width = 600;
}
);
note = W;
unicode = 0057;
},
{
glyphname = X;
layers = (
{
anchors = (
{
name = bottom;
position = "{271, 0}";
},
{
name = top;
position = "{271, 670}";
}
);
layerId = "FB41A910-D058-4278-9D39-63B3F9D49349";
paths = (
{
closed = 1;
nodes = (
"167 620 LINE SMOOTH",
"146 651 OFFCURVE",
"127 656 OFFCURVE",
"105 644 CURVE SMOOTH",
"83 632 OFFCURVE",
"71 610 OFFCURVE",
"92 579 CURVE SMOOTH",
"455 30 LINE SMOOTH",
"476 -1 OFFCURVE",
"495 -6 OFFCURVE",
"517 6 CURVE SMOOTH",
"538 18 OFFCURVE",
"551 40 OFFCURVE",
"530 71 CURVE SMOOTH"
);
},
{
closed = 1;
nodes = (
"339 312 LINE",
"512 579 LINE SMOOTH",
"532 610 OFFCURVE",
"521 632 OFFCURVE",
"499 644 CURVE SMOOTH",
"477 656 OFFCURVE",
"458 651 OFFCURVE",
"437 620 CURVE SMOOTH",
"288 396 LINE"
);
},
{
closed = 1;
nodes = (
"282 386 LINE",
"69 71 LINE SMOOTH",
"48 40 OFFCURVE",
"61 18 OFFCURVE",
"82 6 CURVE SMOOTH",
"104 -6 OFFCURVE",
"122 -1 OFFCURVE",
"144 30 CURVE SMOOTH",
"333 302 LINE"
);
}
);
vertWidth = 0;
width = 600;
}
);
note = X;
unicode = 0058;
},
{
glyphname = Xi;
layers = (
{
layerId = "FB41A910-D058-4278-9D39-63B3F9D49349";
paths = (
{
closed = 1;
nodes = (
"484 571 LINE SMOOTH",
"521 571 OFFCURVE",
"535 588 OFFCURVE",
"535 611 CURVE SMOOTH",
"535 633 OFFCURVE",
"521 651 OFFCURVE",
"484 651 CURVE SMOOTH",
"116 651 LINE SMOOTH",
"79 651 OFFCURVE",
"65 634 OFFCURVE",
"65 612 CURVE SMOOTH",
"65 589 OFFCURVE",
"79 571 OFFCURVE",
"116 571 CURVE SMOOTH"
);
},
{
closed = 1;
nodes = (
"484 301 LINE SMOOTH",
"521 301 OFFCURVE",
"535 318 OFFCURVE",
"535 341 CURVE SMOOTH",
"535 363 OFFCURVE",
"521 381 OFFCURVE",
"484 381 CURVE SMOOTH",
"116 381 LINE SMOOTH",
"79 381 OFFCURVE",
"65 364 OFFCURVE",
"65 342 CURVE SMOOTH",
"65 319 OFFCURVE",
"79 301 OFFCURVE",
"116 301 CURVE SMOOTH"
);
},
{
closed = 1;
nodes = (
"484 0 LINE SMOOTH",
"521 0 OFFCURVE",
"535 17 OFFCURVE",
"535 40 CURVE SMOOTH",
"535 62 OFFCURVE",
"521 80 OFFCURVE",
"484 80 CURVE SMOOTH",
"116 80 LINE SMOOTH",
"79 80 OFFCURVE",
"65 63 OFFCURVE",
"65 41 CURVE SMOOTH",
"65 18 OFFCURVE",
"79 0 OFFCURVE",
"116 0 CURVE SMOOTH"
);
}
);
vertWidth = 0;
width = 600;
}
);
note = Xi;
unicode = 039E;
},
{
glyphname = Y;
layers = (
{
anchors = (
{
name = bottom;
position = "{277, 0}";
},
{
name = top;
position = "{277, 670}";
},
{
name = topleft;
position = "{20, 650}";
}
);
layerId = "FB41A910-D058-4278-9D39-63B3F9D49349";
paths = (
{
closed = 1;
nodes = (
"254 250 LINE",
"263 224 OFFCURVE",
"276 201 OFFCURVE",
"300 201 CURVE SMOOTH",
"324 201 OFFCURVE",
"337 224 OFFCURVE",
"346 250 CURVE",
"534 580 LINE SMOOTH",
"555 617 OFFCURVE",
"536 638 OFFCURVE",
"511 648 CURVE SMOOTH",
"486 656 OFFCURVE",
"471 649 OFFCURVE",
"450 611 CURVE SMOOTH",
"300 337 LINE",
"150 611 LINE SMOOTH",
"129 649 OFFCURVE",
"114 656 OFFCURVE",
"89 648 CURVE SMOOTH",
"64 638 OFFCURVE",
"45 617 OFFCURVE",
"66 580 CURVE SMOOTH"
);
},
{
closed = 1;
nodes = (
"343 278 LINE SMOOTH",
"343 316 OFFCURVE",
"326 330 OFFCURVE",
"300 330 CURVE SMOOTH",
"274 330 OFFCURVE",
"256 316 OFFCURVE",
"256 278 CURVE SMOOTH",
"256 52 LINE SMOOTH",
"256 14 OFFCURVE",
"273 0 OFFCURVE",
"299 0 CURVE SMOOTH",
"325 0 OFFCURVE",
"343 14 OFFCURVE",
"343 52 CURVE SMOOTH"
);
}
);
vertWidth = 0;
width = 600;
}
);
note = Y;
unicode = 0059;
},
{
glyphname = Z;
layers = (
{
anchors = (
{
name = bottom;
position = "{300, 0}";
},
{
name = center;
position = "{300, 325}";
},
{
name = top;
position = "{300, 670}";
}
);
layerId = "FB41A910-D058-4278-9D39-63B3F9D49349";
paths = (
{
closed = 1;
nodes = (
"453 563 LINE SMOOTH",
"490 563 OFFCURVE",
"504 580 OFFCURVE",
"504 606 CURVE SMOOTH",
"504 632 OFFCURVE",
"490 650 OFFCURVE",
"453 650 CURVE SMOOTH",
"116 650 LINE SMOOTH",
"79 650 OFFCURVE",
"65 633 OFFCURVE",
"65 607 CURVE SMOOTH",
"65 581 OFFCURVE",
"79 563 OFFCURVE",
"116 563 CURVE SMOOTH"
);
},
{
closed = 1;
nodes = (
"488 0 LINE SMOOTH",
"525 0 OFFCURVE",
"539 17 OFFCURVE",
"539 43 CURVE SMOOTH",
"539 69 OFFCURVE",
"525 87 OFFCURVE",
"488 87 CURVE SMOOTH",
"106 87 LINE SMOOTH",
"69 87 OFFCURVE",
"55 70 OFFCURVE",
"55 44 CURVE SMOOTH",
"55 18 OFFCURVE",
"69 0 OFFCURVE",
"106 0 CURVE SMOOTH"
);
},
{
closed = 1;
nodes = (
"496 579 LINE SMOOTH",
"518 612 OFFCURVE",
"502 632 OFFCURVE",
"480 644 CURVE SMOOTH",
"457 654 OFFCURVE",
"441 648 OFFCURVE",
"420 616 CURVE SMOOTH",
"61 72 LINE SMOOTH",
"39 39 OFFCURVE",
"54 19 OFFCURVE",
"77 7 CURVE SMOOTH",
"99 -3 OFFCURVE",
"116 3 OFFCURVE",
"137 35 CURVE SMOOTH"
);
}
);
vertWidth = 0;
width = 600;
}
);
note = Z;
unicode = 005A;
},
{
glyphname = a;
layers = (
{
anchors = (
{
name = bottom;
position = "{259, -10}";
},
{
name = ogonek;
position = "{259, 10}";
},
{
name = top;
position = "{296, 483}";
}
);
layerId = "FB41A910-D058-4278-9D39-63B3F9D49349";
paths = (
{
closed = 1;
nodes = (
"312 -10 OFFCURVE",
"362 18 OFFCURVE",
"398 58 CURVE",
"399 13 OFFCURVE",
"446 -11 OFFCURVE",
"480 -11 CURVE SMOOTH",
"506 -11 OFFCURVE",
"517 1 OFFCURVE",
"511 18 CURVE SMOOTH",
"504 34 OFFCURVE",
"481 53 OFFCURVE",
"481 102 CURVE SMOOTH",
"481 281 LINE SMOOTH",
"481 397 OFFCURVE",
"424 483 OFFCURVE",
"296 483 CURVE SMOOTH",
"205 483 OFFCURVE",
"155 457 OFFCURVE",
"132 443 CURVE SMOOTH",
"106 427 OFFCURVE",
"94 406 OFFCURVE",
"108 381 CURVE SMOOTH",
"122 357 OFFCURVE",
"143 355 OFFCURVE",
"165 368 CURVE SMOOTH",
"188 381 OFFCURVE",
"226 404 OFFCURVE",
"294 404 CURVE SMOOTH",
"362 404 OFFCURVE",
"398 373 OFFCURVE",
"398 281 CURVE SMOOTH",
"398 277 LINE",
"364 294 OFFCURVE",
"330 307 OFFCURVE",
"269 307 CURVE SMOOTH",
"164 307 OFFCURVE",
"85 246 OFFCURVE",
"85 152 CURVE SMOOTH",
"85 42 OFFCURVE",
"171 -10 OFFCURVE",
"259 -10 CURVE SMOOTH"
);
},
{
closed = 1;
nodes = (
"225 68 OFFCURVE",
"165 84 OFFCURVE",
"165 152 CURVE SMOOTH",
"165 203 OFFCURVE",
"209 244 OFFCURVE",
"274 244 CURVE SMOOTH",
"331 244 OFFCURVE",
"367 232 OFFCURVE",
"401 209 CURVE",
"401 140 LINE",
"363 91 OFFCURVE",
"312 68 OFFCURVE",
"271 68 CURVE SMOOTH"
);
}
);
vertWidth = 0;
width = 600;
}
);
note = a;
unicode = 0061;
},
{
glyphname = acute;
layers = (
{
layerId = "FB41A910-D058-4278-9D39-63B3F9D49349";
paths = (
{
closed = 1;
nodes = (
"182 576 OFFCURVE",
"186 549 OFFCURVE",
"201 534 CURVE SMOOTH",
"217 518 OFFCURVE",
"244 517 OFFCURVE",
"261 534 CURVE SMOOTH",
"403 676 LINE SMOOTH",
"419 692 OFFCURVE",
"420 718 OFFCURVE",
"402 736 CURVE SMOOTH",
"385 753 OFFCURVE",
"360 754 OFFCURVE",
"344 738 CURVE SMOOTH",
"199 593 LINE SMOOTH"
);
}
);
vertWidth = 0;
width = 600;
}
);
note = acute;
unicode = 00B4;
},
{
glyphname = acutecomb;
layers = (
{
anchors = (
{
name = _top;
position = "{269, 483}";
},
{
name = top;
position = "{288, 926}";
}
);
layerId = "FB41A910-D058-4278-9D39-63B3F9D49349";
paths = (
{
closed = 1;
nodes = (
"197 512 OFFCURVE",
"218 509 OFFCURVE",
"235 521 CURVE SMOOTH",
"363 611 LINE SMOOTH",
"379 622 OFFCURVE",
"382 644 OFFCURVE",
"371 659 CURVE SMOOTH",
"361 674 OFFCURVE",
"341 679 OFFCURVE",
"323 666 CURVE SMOOTH",
"196 576 LINE SMOOTH",
"179 564 OFFCURVE",
"176 543 OFFCURVE",
"187 527 CURVE SMOOTH"
);
}
);
vertWidth = 0;
width = 0;
}
);
note = acutecomb;
unicode = 0301;
},
{
glyphname = acutecomb.case;
layers = (
{
anchors = (
{
name = _top;
position = "{269, 483}";
},
{
name = top;
position = "{288, 926}";
}
);
layerId = "FB41A910-D058-4278-9D39-63B3F9D49349";
paths = (
{
closed = 1;
nodes = (
"182 651 OFFCURVE",
"202 644 OFFCURVE",
"221 652 CURVE SMOOTH",
"365 713 LINE SMOOTH",
"383 721 OFFCURVE",
"390 741 OFFCURVE",
"383 758 CURVE SMOOTH",
"376 775 OFFCURVE",
"357 784 OFFCURVE",
"337 775 CURVE SMOOTH",
"194 714 LINE SMOOTH",
"175 705 OFFCURVE",
"168 686 OFFCURVE",
"175 668 CURVE SMOOTH"
);
}
);
vertWidth = 0;
width = 0;
}
);
note = acutecomb;
},
{
glyphname = ae;
layers = (
{
layerId = "FB41A910-D058-4278-9D39-63B3F9D49349";
paths = (
{
closed = 1;
nodes = (
"234 -10 OFFCURVE",
"284 36 OFFCURVE",
"316 119 CURVE",
"290 119 LINE",
"313 28 OFFCURVE",
"372 -11 OFFCURVE",
"433 -11 CURVE SMOOTH",
"486 -11 OFFCURVE",
"529 18 OFFCURVE",
"553 62 CURVE SMOOTH",
"568 89 OFFCURVE",
"569 115 OFFCURVE",
"553 129 CURVE SMOOTH",
"534 145 OFFCURVE",
"518 132 OFFCURVE",
"504 109 CURVE SMOOTH",
"486 83 OFFCURVE",
"461 69 OFFCURVE",
"432 69 CURVE SMOOTH",
"388 69 OFFCURVE",
"349 117 OFFCURVE",
"351 201 CURVE",
"512 201 LINE SMOOTH",
"558 201 OFFCURVE",
"565 209 OFFCURVE",
"565 240 CURVE SMOOTH",
"565 363 OFFCURVE",
"537 484 OFFCURVE",
"431 484 CURVE SMOOTH",
"359 484 OFFCURVE",
"316 443 OFFCURVE",
"299 381 CURVE",
"313 381 LINE",
"299 441 OFFCURVE",
"281 483 OFFCURVE",
"205 483 CURVE SMOOTH",
"130 483 OFFCURVE",
"95 457 OFFCURVE",
"78 443 CURVE SMOOTH",
"60 427 OFFCURVE",
"50 406 OFFCURVE",
"61 381 CURVE SMOOTH",
"69 363 OFFCURVE",
"91 359 OFFCURVE",
"102 368 CURVE SMOOTH",
"117 381 OFFCURVE",
"155 408 OFFCURVE",
"203 408 CURVE SMOOTH",
"242 408 OFFCURVE",
"253 363 OFFCURVE",
"252 283 CURVE SMOOTH",
"252 279 LINE",
"228 294 OFFCURVE",
"215 307 OFFCURVE",
"172 307 CURVE SMOOTH",
"101 307 OFFCURVE",
"37 246 OFFCURVE",
"37 152 CURVE SMOOTH",
"37 42 OFFCURVE",
"106 -10 OFFCURVE",
"171 -10 CURVE SMOOTH"
);
},
{
closed = 1;
nodes = (
"107 198 OFFCURVE",
"138 239 OFFCURVE",
"179 239 CURVE SMOOTH",
"218 239 OFFCURVE",
"244 221 OFFCURVE",
"262 204 CURVE",
"248 116 OFFCURVE",
"228 73 OFFCURVE",
"169 73 CURVE SMOOTH",
"149 73 OFFCURVE",
"107 89 OFFCURVE",
"107 152 CURVE SMOOTH"
);
},
{
closed = 1;
nodes = (
"347 348 OFFCURVE",
"386 414 OFFCURVE",
"425 414 CURVE SMOOTH",
"468 414 OFFCURVE",
"495 355 OFFCURVE",
"494 272 CURVE",
"348 272 LINE"
);
}
);
vertWidth = 0;
width = 600;
}
);
note = ae;
unicode = 00E6;
},
{
glyphname = afii00208;
layers = (
{
layerId = "FB41A910-D058-4278-9D39-63B3F9D49349";
paths = (
{
closed = 1;
nodes = (
"599 306 LINE",
"600 219 LINE",
"0 219 LINE",
"0 306 LINE",
"0 306 LINE"
);
}
);
vertWidth = 0;
width = 600;
}
);
note = afii00208;
unicode = 2015;
},
{
glyphname = afii10018;
layers = (
{
anchors = (
{
name = bottom;
position = "{295, 0}";
},
{
name = center;
position = "{295, 325}";
},
{
name = top;
position = "{262, 661}";
}
);
layerId = "FB41A910-D058-4278-9D39-63B3F9D49349";
paths = (
{
closed = 1;
nodes = (
"167 291 LINE",
"300 291 LINE SMOOTH",
"418 291 OFFCURVE",
"457 250 OFFCURVE",
"457 191 CURVE SMOOTH",
"457 113 OFFCURVE",
"393 80 OFFCURVE",
"315 80 CURVE SMOOTH",
"167 80 LINE"
);
},
{
closed = 1;
nodes = (
"306 371 CURVE",
"167 371 LINE",
"167 570 LINE",
"384 570 LINE SMOOTH",
"415 570 OFFCURVE",
"432 584 OFFCURVE",
"432 610 CURVE SMOOTH",
"432 636 OFFCURVE",
"415 650 OFFCURVE",
"384 650 CURVE SMOOTH",
"155 650 LINE SMOOTH",
"107 650 OFFCURVE",
"80 623 OFFCURVE",
"80 575 CURVE SMOOTH",
"80 75 LINE SMOOTH",
"80 27 OFFCURVE",
"107 0 OFFCURVE",
"155 0 CURVE SMOOTH",
"315 0 LINE SMOOTH",
"454 0 OFFCURVE",
"544 70 OFFCURVE",
"544 194 CURVE SMOOTH",
"544 271 OFFCURVE",
"490 371 OFFCURVE"
);
}
);
vertWidth = 0;
width = 600;
}
);
note = afii10018;
unicode = 0411;
},
{
glyphname = afii10020;
layers = (
{
layerId = "FB41A910-D058-4278-9D39-63B3F9D49349";
paths = (
{
closed = 1;
nodes = (
"495 570 LINE SMOOTH",
"532 570 OFFCURVE",
"546 586 OFFCURVE",
"546 610 CURVE SMOOTH",
"546 634 OFFCURVE",
"532 650 OFFCURVE",
"495 650 CURVE SMOOTH",
"137 650 LINE SMOOTH",
"100 650 OFFCURVE",
"86 635 OFFCURVE",
"86 611 CURVE SMOOTH",
"86 587 OFFCURVE",
"100 570 OFFCURVE",
"137 570 CURVE SMOOTH"
);
},
{
closed = 1;
nodes = (
"167 598 LINE SMOOTH",
"167 636 OFFCURVE",
"150 650 OFFCURVE",
"124 650 CURVE SMOOTH",
"98 650 OFFCURVE",
"80 636 OFFCURVE",
"80 598 CURVE SMOOTH",
"80 52 LINE SMOOTH",
"80 14 OFFCURVE",
"97 0 OFFCURVE",
"123 0 CURVE SMOOTH",
"149 0 OFFCURVE",
"167 14 OFFCURVE",
"167 52 CURVE SMOOTH"
);
}
);
vertWidth = 0;
width = 600;
}
);
note = afii10020;
unicode = 0413;
},
{
glyphname = afii10021;
layers = (
{
layerId = "FB41A910-D058-4278-9D39-63B3F9D49349";
paths = (
{
closed = 1;
nodes = (
"573 64 OFFCURVE",
"559 81 OFFCURVE",
"522 81 CURVE SMOOTH",
"513 81 LINE",
"513 602 LINE SMOOTH",
"513 633 OFFCURVE",
"496 650 OFFCURVE",
"465 650 CURVE SMOOTH",
"275 650 LINE SMOOTH",
"246 650 OFFCURVE",
"228 635 OFFCURVE",
"222 607 CURVE SMOOTH",
"132 168 LINE SMOOTH",
"118 101 OFFCURVE",
"118 83 OFFCURVE",
"79 83 CURVE SMOOTH",
"72 83 LINE SMOOTH",
"41 83 OFFCURVE",
"24 66 OFFCURVE",
"24 35 CURVE SMOOTH",
"24 -67 LINE SMOOTH",
"24 -87 OFFCURVE",
"39 -103 OFFCURVE",
"61 -103 CURVE SMOOTH",
"83 -103 OFFCURVE",
"99 -88 OFFCURVE",
"99 -69 CURVE SMOOTH",
"99 0 LINE",
"498 0 LINE",
"498 -70 LINE SMOOTH",
"498 -90 OFFCURVE",
"513 -106 OFFCURVE",
"535 -106 CURVE SMOOTH",
"557 -106 OFFCURVE",
"573 -91 OFFCURVE",
"573 -72 CURVE SMOOTH",
"573 41 LINE SMOOTH"
);
},
{
closed = 1;
nodes = (
"201 109 OFFCURVE",
"209 145 OFFCURVE",
"218 189 CURVE SMOOTH",
"297 569 LINE",
"426 569 LINE",
"426 81 LINE",
"191 81 LINE"
);
}
);
vertWidth = 0;
width = 600;
}
);
note = afii10021;
unicode = 0414;
},
{
glyphname = afii10024;
layers = (
{
anchors = (
{
name = bottom;
position = "{426, 0}";
},
{
name = top;
position = "{426, 670}";
}
);
layerId = "FB41A910-D058-4278-9D39-63B3F9D49349";
paths = (
{
closed = 1;
nodes = (
"579 5 OFFCURVE",
"589 22 OFFCURVE",
"582 46 CURVE SMOOTH",
"546 179 OFFCURVE",
"519 282 OFFCURVE",
"432 389 CURVE",
"463 452 OFFCURVE",
"497 545 OFFCURVE",
"534 600 CURVE SMOOTH",
"547 619 OFFCURVE",
"537 638 OFFCURVE",
"519 645 CURVE SMOOTH",
"502 652 OFFCURVE",
"478 648 OFFCURVE",
"462 624 CURVE SMOOTH",
"412 548 OFFCURVE",
"391 434 OFFCURVE",
"344 397 CURVE",
"344 598 LINE SMOOTH",
"344 636 OFFCURVE",
"327 650 OFFCURVE",
"301 650 CURVE SMOOTH",
"300 650 LINE SMOOTH",
"274 650 OFFCURVE",
"257 636 OFFCURVE",
"257 598 CURVE SMOOTH",
"257 396 LINE",
"209 432 OFFCURVE",
"188 548 OFFCURVE",
"138 624 CURVE SMOOTH",
"122 648 OFFCURVE",
"98 652 OFFCURVE",
"81 645 CURVE SMOOTH",
"63 638 OFFCURVE",
"53 619 OFFCURVE",
"66 600 CURVE SMOOTH",
"103 545 OFFCURVE",
"137 452 OFFCURVE",
"168 389 CURVE",
"81 282 OFFCURVE",
"54 179 OFFCURVE",
"18 46 CURVE SMOOTH",
"11 22 OFFCURVE",
"21 5 OFFCURVE",
"45 0 CURVE SMOOTH",
"66 -5 OFFCURVE",
"82 4 OFFCURVE",
"89 27 CURVE SMOOTH",
"134 163 OFFCURVE",
"155 247 OFFCURVE",
"211 324 CURVE",
"257 324 LINE",
"257 52 LINE SMOOTH",
"257 14 OFFCURVE",
"274 0 OFFCURVE",
"300 0 CURVE SMOOTH",
"301 0 LINE SMOOTH",
"327 0 OFFCURVE",
"344 14 OFFCURVE",
"344 52 CURVE SMOOTH",
"344 324 LINE",
"389 324 LINE",
"445 247 OFFCURVE",
"466 163 OFFCURVE",
"511 27 CURVE SMOOTH",
"518 4 OFFCURVE",
"534 -5 OFFCURVE",
"555 0 CURVE SMOOTH"
);
}
);
vertWidth = 0;
width = 600;
}
);
note = afii10024;
unicode = 0416;
},
{
glyphname = afii10025;
layers = (
{
layerId = "FB41A910-D058-4278-9D39-63B3F9D49349";
paths = (
{
closed = 1;
nodes = (
"272 381 OFFCURVE",
"257 369 OFFCURVE",
"257 341 CURVE SMOOTH",
"257 314 OFFCURVE",
"272 302 OFFCURVE",
"299 298 CURVE SMOOTH",
"374 288 OFFCURVE",
"432 260 OFFCURVE",
"432 177 CURVE SMOOTH",
"432 102 OFFCURVE",
"360 79 OFFCURVE",
"295 79 CURVE SMOOTH",
"222 79 OFFCURVE",
"180 111 OFFCURVE",
"152 140 CURVE SMOOTH",
"128 164 OFFCURVE",
"108 168 OFFCURVE",
"88 148 CURVE SMOOTH",
"67 127 OFFCURVE",
"63 104 OFFCURVE",
"84 80 CURVE SMOOTH",
"125 33 OFFCURVE",
"193 -12 OFFCURVE",
"288 -12 CURVE SMOOTH",
"422 -12 OFFCURVE",
"522 50 OFFCURVE",
"522 167 CURVE SMOOTH",
"522 257 OFFCURVE",
"483 323 OFFCURVE",
"395 347 CURVE",
"483 378 OFFCURVE",
"502 449 OFFCURVE",
"502 501 CURVE SMOOTH",
"502 597 OFFCURVE",
"432 659 OFFCURVE",
"317 659 CURVE SMOOTH",
"250 659 OFFCURVE",
"188 634 OFFCURVE",
"149 594 CURVE SMOOTH",
"127 572 OFFCURVE",
"131 548 OFFCURVE",
"151 528 CURVE SMOOTH",
"170 509 OFFCURVE",
"188 515 OFFCURVE",
"213 538 CURVE SMOOTH",
"243 565 OFFCURVE",
"280 574 OFFCURVE",
"324 574 CURVE SMOOTH",
"370 574 OFFCURVE",
"412 561 OFFCURVE",
"412 501 CURVE SMOOTH",
"412 447 OFFCURVE",
"376 394 OFFCURVE",
"299 384 CURVE SMOOTH"
);
}
);
vertWidth = 0;
width = 600;
}
);
note = afii10025;
unicode = 0417;
},
{
glyphname = afii10029;
layers = (
{
layerId = "FB41A910-D058-4278-9D39-63B3F9D49349";
paths = (
{
closed = 1;
nodes = (
"485 569 LINE SMOOTH",
"522 569 OFFCURVE",
"536 586 OFFCURVE",
"536 609 CURVE SMOOTH",
"536 633 OFFCURVE",
"522 650 OFFCURVE",
"485 650 CURVE SMOOTH",
"192 650 LINE SMOOTH",
"155 650 OFFCURVE",
"141 633 OFFCURVE",
"141 610 CURVE SMOOTH",
"141 587 OFFCURVE",
"155 569 OFFCURVE",
"192 569 CURVE SMOOTH"
);
},
{
closed = 1;
nodes = (
"536 598 LINE SMOOTH",
"536 636 OFFCURVE",
"519 650 OFFCURVE",
"493 650 CURVE SMOOTH",
"467 650 OFFCURVE",
"449 636 OFFCURVE",
"449 598 CURVE SMOOTH",
"449 52 LINE SMOOTH",
"449 14 OFFCURVE",
"466 0 OFFCURVE",
"492 0 CURVE SMOOTH",
"518 0 OFFCURVE",
"536 14 OFFCURVE",
"536 52 CURVE SMOOTH"
);
},
{
closed = 1;
nodes = (
"194 650 LINE",
"194 168 LINE SMOOTH",
"194 127 OFFCURVE",
"188 86 OFFCURVE",
"157 86 CURVE SMOOTH",
"136 86 OFFCURVE",
"91 115 OFFCURVE",
"85 118 CURVE SMOOTH",
"63 127 OFFCURVE",
"41 121 OFFCURVE",
"28 97 CURVE SMOOTH",
"17 76 OFFCURVE",
"30 52 OFFCURVE",
"43 43 CURVE SMOOTH",
"67 27 OFFCURVE",
"119 -7 OFFCURVE",
"166 -7 CURVE SMOOTH",
"248 -7 OFFCURVE",
"281 73 OFFCURVE",
"280 154 CURVE SMOOTH",
"277 650 LINE"
);
}
);
vertWidth = 0;
width = 600;
}
);
note = afii10029;
unicode = 041B;
},
{
glyphname = afii10037;
layers = (
{
anchors = (
{
name = bottom;
position = "{284, 0}";
},
{
name = top;
position = "{284, 670}";
}
);
layerId = "FB41A910-D058-4278-9D39-63B3F9D49349";
paths = (
{
closed = 1;
nodes = (
"247 174 LINE",
"242 163 LINE SMOOTH",
"213 99 OFFCURVE",
"202 81 OFFCURVE",
"150 81 CURVE SMOOTH",
"115 81 OFFCURVE",
"99 65 OFFCURVE",
"99 40 CURVE SMOOTH",
"99 15 OFFCURVE",
"125 -2 OFFCURVE",
"160 -2 CURVE SMOOTH",
"273 -2 OFFCURVE",
"307 106 OFFCURVE",
"342 188 CURVE SMOOTH",
"510 580 LINE SMOOTH",
"526 618 OFFCURVE",
"512 638 OFFCURVE",
"487 648 CURVE SMOOTH",
"462 656 OFFCURVE",
"441 652 OFFCURVE",
"426 611 CURVE SMOOTH",
"296 265 LINE",
"176 611 LINE SMOOTH",
"161 654 OFFCURVE",
"140 656 OFFCURVE",
"115 648 CURVE SMOOTH",
"90 638 OFFCURVE",
"76 619 OFFCURVE",
"92 580 CURVE"
);
}
);
vertWidth = 0;
width = 600;
}
);
note = afii10037;
unicode = 0423;
},
{
glyphname = afii10038;
layers = (
{
layerId = "FB41A910-D058-4278-9D39-63B3F9D49349";
paths = (
{
closed = 1;
nodes = (
"468 109 OFFCURVE",
"559 202 OFFCURVE",
"559 334 CURVE SMOOTH",
"559 469 OFFCURVE",
"461 564 OFFCURVE",
"301 564 CURVE SMOOTH",
"137 564 OFFCURVE",
"41 464 OFFCURVE",
"41 337 CURVE SMOOTH",
"41 206 OFFCURVE",
"142 109 OFFCURVE",
"301 109 CURVE SMOOTH"
);
},
{
closed = 1;
nodes = (
"187 189 OFFCURVE",
"126 251 OFFCURVE",
"126 337 CURVE SMOOTH",
"126 421 OFFCURVE",
"185 484 OFFCURVE",
"301 484 CURVE SMOOTH",
"415 484 OFFCURVE",
"474 424 OFFCURVE",
"474 335 CURVE SMOOTH",
"474 248 OFFCURVE",
"419 189 OFFCURVE",
"301 189 CURVE SMOOTH"
);
},
{
closed = 1;
nodes = (
"260 51 LINE SMOOTH",
"260 14 OFFCURVE",
"277 0 OFFCURVE",
"300 0 CURVE SMOOTH",
"323 0 OFFCURVE",
"341 14 OFFCURVE",
"341 51 CURVE SMOOTH",
"341 602 LINE SMOOTH",
"341 639 OFFCURVE",
"324 653 OFFCURVE",
"300 653 CURVE SMOOTH",
"278 653 OFFCURVE",
"260 639 OFFCURVE",
"260 602 CURVE SMOOTH"
);
}
);
vertWidth = 0;
width = 600;
}
);
note = afii10038;
unicode = 0424;
},
{
glyphname = afii10040;
layers = (
{
layerId = "FB41A910-D058-4278-9D39-63B3F9D49349";
paths = (
{
closed = 1;
nodes = (
"44 81 OFFCURVE",
"30 63 OFFCURVE",
"30 40 CURVE SMOOTH",
"30 17 OFFCURVE",
"44 0 OFFCURVE",
"81 0 CURVE SMOOTH",
"518 0 LINE SMOOTH",
"555 0 OFFCURVE",
"569 17 OFFCURVE",
"569 41 CURVE SMOOTH",
"569 64 OFFCURVE",
"555 81 OFFCURVE",
"518 81 CURVE SMOOTH",
"81 81 LINE SMOOTH"
);
},
{
closed = 1;
nodes = (
"188 636 OFFCURVE",
"170 650 OFFCURVE",
"144 650 CURVE SMOOTH",
"118 650 OFFCURVE",
"101 636 OFFCURVE",
"101 598 CURVE SMOOTH",
"101 52 LINE SMOOTH",
"101 14 OFFCURVE",
"119 0 OFFCURVE",
"145 0 CURVE SMOOTH",
"171 0 OFFCURVE",
"188 14 OFFCURVE",
"188 52 CURVE SMOOTH",
"188 598 LINE SMOOTH"
);
},
{
closed = 1;
nodes = (
"468 636 OFFCURVE",
"450 650 OFFCURVE",
"424 650 CURVE SMOOTH",
"398 650 OFFCURVE",
"381 636 OFFCURVE",
"381 598 CURVE SMOOTH",
"381 52 LINE SMOOTH",
"381 14 OFFCURVE",
"399 0 OFFCURVE",
"425 0 CURVE SMOOTH",
"451 0 OFFCURVE",
"468 14 OFFCURVE",
"468 52 CURVE SMOOTH",
"468 598 LINE SMOOTH"
);
},
{
closed = 1;
nodes = (
"569 61 OFFCURVE",
"549 76 OFFCURVE",
"531 76 CURVE SMOOTH",
"511 76 OFFCURVE",
"494 60 OFFCURVE",
"494 38 CURVE SMOOTH",
"494 -70 LINE SMOOTH",
"494 -90 OFFCURVE",
"509 -106 OFFCURVE",
"531 -106 CURVE SMOOTH",
"553 -106 OFFCURVE",
"569 -91 OFFCURVE",
"569 -72 CURVE SMOOTH",
"569 41 LINE SMOOTH"
);
}
);
vertWidth = 0;
width = 600;
}
);
note = afii10040;
unicode = 0426;
},
{
glyphname = afii10041;
layers = (
{
layerId = "FB41A910-D058-4278-9D39-63B3F9D49349";
paths = (
{
closed = 1;
nodes = (
"493 599 LINE SMOOTH",
"493 636 OFFCURVE",
"476 650 OFFCURVE",
"452 650 CURVE SMOOTH",
"428 650 OFFCURVE",
"410 636 OFFCURVE",
"410 599 CURVE SMOOTH",
"410 50 LINE SMOOTH",
"410 13 OFFCURVE",
"427 -1 OFFCURVE",
"452 -1 CURVE SMOOTH",
"475 -1 OFFCURVE",
"493 13 OFFCURVE",
"493 50 CURVE SMOOTH"
);
},
{
closed = 1;
nodes = (
"183 599 LINE SMOOTH",
"183 636 OFFCURVE",
"166 650 OFFCURVE",
"142 650 CURVE SMOOTH",
"118 650 OFFCURVE",
"100 636 OFFCURVE",
"100 599 CURVE SMOOTH",
"100 358 LINE SMOOTH",
"100 268 OFFCURVE",
"143 196 OFFCURVE",
"255 196 CURVE SMOOTH",
"341 196 OFFCURVE",
"411 236 OFFCURVE",
"437 312 CURVE",
"410 390 LINE",
"380 320 OFFCURVE",
"328 279 OFFCURVE",
"267 279 CURVE SMOOTH",
"215 279 OFFCURVE",
"183 296 OFFCURVE",
"183 358 CURVE SMOOTH"
);
}
);
vertWidth = 0;
width = 600;
}
);
note = afii10041;
unicode = 0427;
},
{
glyphname = afii10042;
layers = (
{
layerId = "FB41A910-D058-4278-9D39-63B3F9D49349";
paths = (
{
closed = 1;
nodes = (
"467 -1 LINE SMOOTH",
"504 -1 OFFCURVE",
"518 15 OFFCURVE",
"518 39 CURVE SMOOTH",
"518 63 OFFCURVE",
"504 79 OFFCURVE",
"467 79 CURVE SMOOTH",
"134 79 LINE SMOOTH",
"97 79 OFFCURVE",
"83 64 OFFCURVE",
"83 40 CURVE SMOOTH",
"83 16 OFFCURVE",
"97 -1 OFFCURVE",
"134 -1 CURVE SMOOTH"
);
},
{
closed = 1;
nodes = (
"164 598 LINE SMOOTH",
"164 636 OFFCURVE",
"147 650 OFFCURVE",
"121 650 CURVE SMOOTH",
"95 650 OFFCURVE",
"77 636 OFFCURVE",
"77 598 CURVE SMOOTH",
"77 55 LINE SMOOTH",
"77 17 OFFCURVE",
"94 3 OFFCURVE",
"120 3 CURVE SMOOTH",
"146 3 OFFCURVE",
"164 17 OFFCURVE",
"164 55 CURVE SMOOTH"
);
},
{
closed = 1;
nodes = (
"524 598 LINE SMOOTH",
"524 636 OFFCURVE",
"507 650 OFFCURVE",
"481 650 CURVE SMOOTH",
"455 650 OFFCURVE",
"437 636 OFFCURVE",
"437 598 CURVE SMOOTH",
"437 55 LINE SMOOTH",
"437 17 OFFCURVE",
"454 3 OFFCURVE",
"480 3 CURVE SMOOTH",
"506 3 OFFCURVE",
"524 17 OFFCURVE",
"524 55 CURVE SMOOTH"
);
},
{
closed = 1;
nodes = (
"260 66 LINE SMOOTH",
"260 29 OFFCURVE",
"276 15 OFFCURVE",
"300 15 CURVE SMOOTH",
"324 15 OFFCURVE",
"340 29 OFFCURVE",
"340 66 CURVE SMOOTH",
"340 599 LINE SMOOTH",
"340 636 OFFCURVE",
"325 650 OFFCURVE",
"301 650 CURVE SMOOTH",
"277 650 OFFCURVE",
"260 636 OFFCURVE",
"260 599 CURVE SMOOTH"
);
}
);
vertWidth = 0;
width = 600;
}
);
note = afii10042;
unicode = 0428;
},
{
glyphname = afii10043;
layers = (
{
layerId = "FB41A910-D058-4278-9D39-63B3F9D49349";
paths = (
{
closed = 1;
nodes = (
"452 0 LINE SMOOTH",
"489 0 OFFCURVE",
"503 16 OFFCURVE",
"503 40 CURVE SMOOTH",
"503 64 OFFCURVE",
"489 80 OFFCURVE",
"452 80 CURVE SMOOTH",
"120 80 LINE SMOOTH",
"83 80 OFFCURVE",
"69 65 OFFCURVE",
"69 41 CURVE SMOOTH",
"69 17 OFFCURVE",
"83 0 OFFCURVE",
"120 0 CURVE SMOOTH"
);
},
{
closed = 1;
nodes = (
"150 598 LINE SMOOTH",
"150 636 OFFCURVE",
"133 650 OFFCURVE",
"107 650 CURVE SMOOTH",
"81 650 OFFCURVE",
"63 636 OFFCURVE",
"63 598 CURVE SMOOTH",
"63 56 LINE SMOOTH",
"63 18 OFFCURVE",
"80 4 OFFCURVE",
"106 4 CURVE SMOOTH",
"132 4 OFFCURVE",
"150 18 OFFCURVE",
"150 56 CURVE SMOOTH"
);
},
{
closed = 1;
nodes = (
"509 598 LINE SMOOTH",
"509 636 OFFCURVE",
"492 650 OFFCURVE",
"466 650 CURVE SMOOTH",
"440 650 OFFCURVE",
"422 636 OFFCURVE",
"422 598 CURVE SMOOTH",
"422 56 LINE SMOOTH",
"422 18 OFFCURVE",
"439 4 OFFCURVE",
"465 4 CURVE SMOOTH",
"491 4 OFFCURVE",
"509 18 OFFCURVE",
"509 56 CURVE SMOOTH"
);
},
{
closed = 1;
nodes = (
"246 67 LINE SMOOTH",
"246 30 OFFCURVE",
"262 16 OFFCURVE",
"286 16 CURVE SMOOTH",
"310 16 OFFCURVE",
"326 30 OFFCURVE",
"326 67 CURVE SMOOTH",
"326 599 LINE SMOOTH",
"326 636 OFFCURVE",
"311 650 OFFCURVE",
"287 650 CURVE SMOOTH",
"263 650 OFFCURVE",
"246 636 OFFCURVE",
"246 599 CURVE SMOOTH"
);
},
{
closed = 1;
nodes = (
"97 81 OFFCURVE",
"83 63 OFFCURVE",
"83 40 CURVE SMOOTH",
"83 17 OFFCURVE",
"97 0 OFFCURVE",
"134 0 CURVE SMOOTH",
"510 0 LINE SMOOTH",
"547 0 OFFCURVE",
"561 17 OFFCURVE",
"561 41 CURVE SMOOTH",
"561 64 OFFCURVE",
"547 81 OFFCURVE",
"510 81 CURVE SMOOTH",
"134 81 LINE SMOOTH"
);
},
{
closed = 1;
nodes = (
"561 61 OFFCURVE",
"541 76 OFFCURVE",
"523 76 CURVE SMOOTH",
"503 76 OFFCURVE",
"486 60 OFFCURVE",
"486 38 CURVE SMOOTH",
"486 -70 LINE SMOOTH",
"486 -90 OFFCURVE",
"501 -106 OFFCURVE",
"523 -106 CURVE SMOOTH",
"545 -106 OFFCURVE",
"561 -91 OFFCURVE",
"561 -72 CURVE SMOOTH",
"561 41 LINE SMOOTH"
);
}
);
vertWidth = 0;
width = 600;
}
);
note = afii10043;
unicode = 0429;
},
{
glyphname = afii10044;
layers = (
{
layerId = "FB41A910-D058-4278-9D39-63B3F9D49349";
paths = (
{
closed = 1;
nodes = (
"62 648 OFFCURVE",
"50 632 OFFCURVE",
"50 612 CURVE SMOOTH",
"50 591 OFFCURVE",
"62 576 OFFCURVE",
"95 576 CURVE SMOOTH",
"216 576 LINE SMOOTH",
"249 576 OFFCURVE",
"261 591 OFFCURVE",
"261 612 CURVE SMOOTH",
"261 633 OFFCURVE",
"249 648 OFFCURVE",
"216 648 CURVE SMOOTH",
"95 648 LINE SMOOTH"
);
},
{
closed = 1;
nodes = (
"267 291 LINE",
"330 291 LINE SMOOTH",
"428 291 OFFCURVE",
"467 250 OFFCURVE",
"467 191 CURVE SMOOTH",
"467 113 OFFCURVE",
"403 80 OFFCURVE",
"345 80 CURVE SMOOTH",
"267 80 LINE"
);
},
{
closed = 1;
nodes = (
"554 271 OFFCURVE",
"500 371 OFFCURVE",
"336 371 CURVE SMOOTH",
"267 371 LINE",
"267 600 LINE SMOOTH",
"267 631 OFFCURVE",
"252 648 OFFCURVE",
"224 648 CURVE SMOOTH",
"196 648 OFFCURVE",
"180 631 OFFCURVE",
"180 600 CURVE SMOOTH",
"180 75 LINE SMOOTH",
"180 27 OFFCURVE",
"207 0 OFFCURVE",
"255 0 CURVE SMOOTH",
"345 0 LINE SMOOTH",
"464 0 OFFCURVE",
"554 70 OFFCURVE",
"554 194 CURVE SMOOTH"
);
}
);
vertWidth = 0;
width = 600;
}
);
note = afii10044;
unicode = 042A;
},
{
glyphname = afii10045;
layers = (
{
layerId = "FB41A910-D058-4278-9D39-63B3F9D49349";
paths = (
{
closed = 1;
nodes = (
"491 599 LINE SMOOTH",
"491 637 OFFCURVE",
"474 651 OFFCURVE",
"448 651 CURVE SMOOTH",
"422 651 OFFCURVE",
"404 637 OFFCURVE",
"404 599 CURVE SMOOTH",
"404 60 LINE SMOOTH",
"404 22 OFFCURVE",
"421 8 OFFCURVE",
"447 8 CURVE SMOOTH",
"473 8 OFFCURVE",
"491 22 OFFCURVE",
"491 60 CURVE SMOOTH"
);
},
{
closed = 1;
nodes = (
"98 651 OFFCURVE",
"80 665 OFFCURVE",
"57 665 CURVE SMOOTH",
"32 665 OFFCURVE",
"15 651 OFFCURVE",
"14 614 CURVE SMOOTH",
"15 50 LINE SMOOTH",
"15 13 OFFCURVE",
"33 -1 OFFCURVE",
"57 -1 CURVE SMOOTH",
"72 -1 OFFCURVE",
"84 4 OFFCURVE",
"91 17 CURVE",
"115 1 OFFCURVE",
"142 -10 OFFCURVE",
"183 -10 CURVE SMOOTH",
"235 -10 OFFCURVE",
"342 57 OFFCURVE",
"342 233 CURVE SMOOTH",
"342 387 OFFCURVE",
"255 483 OFFCURVE",
"170 483 CURVE SMOOTH",
"136 483 OFFCURVE",
"121 476 OFFCURVE",
"98 466 CURVE",
"98 614 LINE SMOOTH"
);
},
{
closed = 1;
nodes = (
"258 116 OFFCURVE",
"202 66 OFFCURVE",
"164 66 CURVE SMOOTH",
"137 66 OFFCURVE",
"119 72 OFFCURVE",
"98 84 CURVE",
"98 382 LINE",
"118 396 OFFCURVE",
"136 404 OFFCURVE",
"163 404 CURVE SMOOTH",
"203 404 OFFCURVE",
"258 352 OFFCURVE",
"258 233 CURVE SMOOTH"
);
},
{
closed = 1;
nodes = (
"541 571 LINE SMOOTH",
"578 571 OFFCURVE",
"592 588 OFFCURVE",
"592 611 CURVE SMOOTH",
"592 633 OFFCURVE",
"578 651 OFFCURVE",
"541 651 CURVE SMOOTH",
"354 651 LINE SMOOTH",
"317 651 OFFCURVE",
"303 634 OFFCURVE",
"303 612 CURVE SMOOTH",
"303 589 OFFCURVE",
"317 571 OFFCURVE",
"354 571 CURVE SMOOTH"
);
},
{
closed = 1;
nodes = (
"541 0 LINE SMOOTH",
"578 0 OFFCURVE",
"592 17 OFFCURVE",
"592 40 CURVE SMOOTH",
"592 62 OFFCURVE",
"578 80 OFFCURVE",
"541 80 CURVE SMOOTH",
"354 80 LINE SMOOTH",
"317 80 OFFCURVE",
"303 63 OFFCURVE",
"303 41 CURVE SMOOTH",
"303 18 OFFCURVE",
"317 0 OFFCURVE",
"354 0 CURVE SMOOTH"
);
}
);
vertWidth = 0;
width = 600;
}
);
note = afii10045;
unicode = 042B;
},
{
glyphname = afii10046;
layers = (
{
layerId = "FB41A910-D058-4278-9D39-63B3F9D49349";
paths = (
{
closed = 1;
nodes = (
"187 291 LINE",
"310 291 LINE SMOOTH",
"408 291 OFFCURVE",
"447 250 OFFCURVE",
"447 191 CURVE SMOOTH",
"447 113 OFFCURVE",
"383 80 OFFCURVE",
"325 80 CURVE SMOOTH",
"187 80 LINE"
);
},
{
closed = 1;
nodes = (
"534 271 OFFCURVE",
"480 371 OFFCURVE",
"316 371 CURVE SMOOTH",
"187 371 LINE",
"187 607 LINE SMOOTH",
"187 638 OFFCURVE",
"172 655 OFFCURVE",
"144 655 CURVE SMOOTH",
"116 655 OFFCURVE",
"100 638 OFFCURVE",
"100 607 CURVE SMOOTH",
"100 75 LINE SMOOTH",
"100 27 OFFCURVE",
"127 0 OFFCURVE",
"175 0 CURVE SMOOTH",
"325 0 LINE SMOOTH",
"444 0 OFFCURVE",
"534 70 OFFCURVE",
"534 194 CURVE SMOOTH"
);
}
);
vertWidth = 0;
width = 600;
}
);
note = afii10046;
unicode = 042C;
},
{
glyphname = afii10047;
layers = (
{
layerId = "FB41A910-D058-4278-9D39-63B3F9D49349";
paths = (
{
closed = 1;
nodes = (
"447 -9 OFFCURVE",
"543 132 OFFCURVE",
"543 331 CURVE SMOOTH",
"543 501 OFFCURVE",
"456 658 OFFCURVE",
"280 659 CURVE SMOOTH",
"174 658 OFFCURVE",
"91 601 OFFCURVE",
"70 498 CURVE SMOOTH",
"66 479 OFFCURVE",
"67 460 OFFCURVE",
"91 450 CURVE SMOOTH",
"114 440 OFFCURVE",
"135 451 OFFCURVE",
"143 473 CURVE SMOOTH",
"172 549 OFFCURVE",
"212 573 OFFCURVE",
"280 573 CURVE SMOOTH",
"393 573 OFFCURVE",
"453 483 OFFCURVE",
"453 331 CURVE SMOOTH",
"453 174 OFFCURVE",
"392 77 OFFCURVE",
"280 76 CURVE SMOOTH",
"222 75 OFFCURVE",
"177 96 OFFCURVE",
"123 181 CURVE SMOOTH",
"112 199 OFFCURVE",
"89 208 OFFCURVE",
"69 196 CURVE SMOOTH",
"47 183 OFFCURVE",
"45 163 OFFCURVE",
"55 142 CURVE SMOOTH",
"105 38 OFFCURVE",
"181 -9 OFFCURVE",
"280 -10 CURVE SMOOTH"
);
},
{
closed = 1;
nodes = (
"512 278 OFFCURVE",
"526 296 OFFCURVE",
"526 322 CURVE SMOOTH",
"526 348 OFFCURVE",
"512 365 OFFCURVE",
"474 365 CURVE SMOOTH",
"135 365 LINE SMOOTH",
"97 365 OFFCURVE",
"83 347 OFFCURVE",
"83 321 CURVE SMOOTH",
"83 295 OFFCURVE",
"97 278 OFFCURVE",
"135 278 CURVE SMOOTH",
"474 278 LINE SMOOTH"
);
}
);
vertWidth = 0;
width = 600;
}
);
note = afii10047;
unicode = 042D;
},
{
glyphname = afii10048;
layers = (
{
anchors = (
{
name = bottom;
position = "{301, 0}";
},
{
name = center;
position = "{301, 325}";
},
{
name = ogonek;
position = "{542, 10}";
},
{
name = top;
position = "{301, 690}";
},
{
name = topleft;
position = "{20, 650}";
},
{
name = topright;
position = "{582, 650}";
}
);
layerId = "FB41A910-D058-4278-9D39-63B3F9D49349";
paths = (
{
closed = 1;
nodes = (
"485 -9 OFFCURVE",
"579 132 OFFCURVE",
"579 331 CURVE SMOOTH",
"579 506 OFFCURVE",
"494 663 OFFCURVE",
"376 664 CURVE SMOOTH",
"258 665 OFFCURVE",
"173 506 OFFCURVE",
"173 331 CURVE SMOOTH",
"173 132 OFFCURVE",
"267 -11 OFFCURVE",
"376 -10 CURVE SMOOTH"
);
},
{
closed = 1;
nodes = (
"104 -2 OFFCURVE",
"122 12 OFFCURVE",
"122 50 CURVE SMOOTH",
"122 599 LINE SMOOTH",
"122 637 OFFCURVE",
"105 651 OFFCURVE",
"79 651 CURVE SMOOTH",
"53 651 OFFCURVE",
"35 637 OFFCURVE",
"35 599 CURVE SMOOTH",
"35 50 LINE SMOOTH",
"35 12 OFFCURVE",
"52 -2 OFFCURVE",
"78 -2 CURVE SMOOTH"
);
},
{
closed = 1;
nodes = (
"188 278 LINE SMOOTH",
"226 278 OFFCURVE",
"240 296 OFFCURVE",
"240 322 CURVE SMOOTH",
"240 348 OFFCURVE",
"226 365 OFFCURVE",
"188 365 CURVE SMOOTH",
"121 365 LINE SMOOTH",
"83 365 OFFCURVE",
"69 347 OFFCURVE",
"69 321 CURVE SMOOTH",
"69 295 OFFCURVE",
"83 278 OFFCURVE",
"121 278 CURVE SMOOTH"
);
},
{
closed = 1;
nodes = (
"322 76 OFFCURVE",
"263 170 OFFCURVE",
"263 331 CURVE SMOOTH",
"263 492 OFFCURVE",
"321 578 OFFCURVE",
"376 578 CURVE SMOOTH",
"431 578 OFFCURVE",
"489 492 OFFCURVE",
"489 331 CURVE SMOOTH",
"489 170 OFFCURVE",
"430 76 OFFCURVE",
"376 76 CURVE SMOOTH"
);
}
);
vertWidth = 0;
width = 600;
}
);
note = afii10048;
unicode = 042E;
},
{
glyphname = afii10051;
layers = (
{
layerId = "FB41A910-D058-4278-9D39-63B3F9D49349";
paths = (
{
closed = 1;
nodes = (
"55 649 OFFCURVE",
"40 629 OFFCURVE",
"40 610 CURVE SMOOTH",
"40 589 OFFCURVE",
"57 571 OFFCURVE",
"79 571 CURVE SMOOTH",
"494 571 LINE SMOOTH",
"515 571 OFFCURVE",
"532 587 OFFCURVE",
"532 610 CURVE SMOOTH",
"532 632 OFFCURVE",
"517 649 OFFCURVE",
"496 649 CURVE SMOOTH",
"76 649 LINE SMOOTH"
);
},
{
closed = 1;
nodes = (
"140 50 LINE SMOOTH",
"140 13 OFFCURVE",
"157 -1 OFFCURVE",
"181 -1 CURVE SMOOTH",
"205 -1 OFFCURVE",
"223 13 OFFCURVE",
"223 50 CURVE SMOOTH",
"223 595 LINE SMOOTH",
"223 632 OFFCURVE",
"206 646 OFFCURVE",
"181 646 CURVE SMOOTH",
"158 646 OFFCURVE",
"140 632 OFFCURVE",
"140 595 CURVE SMOOTH"
);
},
{
closed = 1;
nodes = (
"462 160 OFFCURVE",
"424 68 OFFCURVE",
"360 77 CURVE SMOOTH",
"322 82 OFFCURVE",
"299 74 OFFCURVE",
"293 50 CURVE SMOOTH",
"285 17 OFFCURVE",
"311 0 OFFCURVE",
"358 0 CURVE SMOOTH",
"496 0 OFFCURVE",
"545 125 OFFCURVE",
"545 238 CURVE",
"545 372 OFFCURVE",
"500 483 OFFCURVE",
"358 483 CURVE SMOOTH",
"242 483 OFFCURVE",
"192 393 OFFCURVE",
"176 297 CURVE",
"223 286 LINE",
"242 345 OFFCURVE",
"285 404 OFFCURVE",
"356 404 CURVE SMOOTH",
"438 404 OFFCURVE",
"462 337 OFFCURVE",
"462 238 CURVE"
);
}
);
vertWidth = 0;
width = 600;
}
);
note = afii10051;
unicode = 0402;
},
{
glyphname = afii10053;
layers = (
{
anchors = (
{
name = bottom;
position = "{281, 0}";
},
{
name = top;
position = "{291, 677}";
}
);
layerId = "FB41A910-D058-4278-9D39-63B3F9D49349";
paths = (
{
closed = 1;
nodes = (
"415 -9 OFFCURVE",
"491 38 OFFCURVE",
"541 142 CURVE SMOOTH",
"551 163 OFFCURVE",
"549 183 OFFCURVE",
"527 196 CURVE SMOOTH",
"507 208 OFFCURVE",
"484 199 OFFCURVE",
"473 181 CURVE SMOOTH",
"419 96 OFFCURVE",
"374 75 OFFCURVE",
"316 76 CURVE SMOOTH",
"204 77 OFFCURVE",
"143 174 OFFCURVE",
"143 331 CURVE SMOOTH",
"143 483 OFFCURVE",
"203 573 OFFCURVE",
"316 573 CURVE SMOOTH",
"384 573 OFFCURVE",
"424 549 OFFCURVE",
"453 473 CURVE SMOOTH",
"461 451 OFFCURVE",
"482 440 OFFCURVE",
"505 450 CURVE SMOOTH",
"529 460 OFFCURVE",
"530 479 OFFCURVE",
"526 498 CURVE SMOOTH",
"505 601 OFFCURVE",
"422 658 OFFCURVE",
"316 659 CURVE SMOOTH",
"140 658 OFFCURVE",
"53 501 OFFCURVE",
"53 331 CURVE SMOOTH",
"53 132 OFFCURVE",
"149 -9 OFFCURVE",
"316 -10 CURVE SMOOTH"
);
},
{
closed = 1;
nodes = (
"461 278 LINE SMOOTH",
"499 278 OFFCURVE",
"513 295 OFFCURVE",
"513 321 CURVE SMOOTH",
"513 347 OFFCURVE",
"499 365 OFFCURVE",
"461 365 CURVE SMOOTH",
"122 365 LINE SMOOTH",
"84 365 OFFCURVE",
"70 348 OFFCURVE",
"70 322 CURVE SMOOTH",
"70 296 OFFCURVE",
"84 278 OFFCURVE",
"122 278 CURVE SMOOTH"
);
}
);
vertWidth = 0;
width = 600;
}
);
note = afii10053;
unicode = 0404;
},
{
glyphname = afii10055.001;
layers = (
{
anchors = (
{
name = bottom;
position = "{324, 0}";
},
{
name = ogonek;
position = "{515, 10}";
},
{
name = top;
position = "{324, 670}";
},
{
name = topleft;
position = "{104, 650}";
}
);
layerId = "FB41A910-D058-4278-9D39-63B3F9D49349";
paths = (
{
closed = 1;
nodes = (
"343 599 LINE SMOOTH",
"343 637 OFFCURVE",
"326 651 OFFCURVE",
"300 651 CURVE SMOOTH",
"274 651 OFFCURVE",
"256 637 OFFCURVE",
"256 599 CURVE SMOOTH",
"256 50 LINE SMOOTH",
"256 12 OFFCURVE",
"273 -2 OFFCURVE",
"299 -2 CURVE SMOOTH",
"325 -2 OFFCURVE",
"343 12 OFFCURVE",
"343 50 CURVE SMOOTH"
);
}
);
vertWidth = 0;
width = 600;
}
);
note = afii10055;
},
{
glyphname = afii10056;
layers = (
{
anchors = (
{
name = bottom;
position = "{300, 0}";
},
{
name = ogonek;
position = "{491, 10}";
},
{
name = top;
position = "{300, 670}";
},
{
name = topleft;
position = "{80, 650}";
}
);
layerId = "FB41A910-D058-4278-9D39-63B3F9D49349";
paths = (
{
closed = 1;
nodes = (
"479 571 LINE SMOOTH",
"516 571 OFFCURVE",
"530 588 OFFCURVE",
"530 611 CURVE SMOOTH",
"530 633 OFFCURVE",
"516 651 OFFCURVE",
"479 651 CURVE SMOOTH",
"121 651 LINE SMOOTH",
"84 651 OFFCURVE",
"70 634 OFFCURVE",
"70 612 CURVE SMOOTH",
"70 589 OFFCURVE",
"84 571 OFFCURVE",
"121 571 CURVE SMOOTH"
);
},
{
closed = 1;
nodes = (
"344 579 LINE SMOOTH",
"344 617 OFFCURVE",
"327 631 OFFCURVE",
"301 631 CURVE SMOOTH",
"275 631 OFFCURVE",
"257 617 OFFCURVE",
"257 579 CURVE SMOOTH",
"257 80 LINE SMOOTH",
"257 42 OFFCURVE",
"274 28 OFFCURVE",
"300 28 CURVE SMOOTH",
"326 28 OFFCURVE",
"344 42 OFFCURVE",
"344 80 CURVE SMOOTH"
);
},
{
closed = 1;
nodes = (
"479 0 LINE SMOOTH",
"516 0 OFFCURVE",
"530 17 OFFCURVE",
"530 40 CURVE SMOOTH",
"530 62 OFFCURVE",
"516 80 OFFCURVE",
"479 80 CURVE SMOOTH",
"121 80 LINE SMOOTH",
"84 80 OFFCURVE",
"70 63 OFFCURVE",
"70 41 CURVE SMOOTH",
"70 18 OFFCURVE",
"84 0 OFFCURVE",
"121 0 CURVE SMOOTH"
);
},
{
closed = 1;
nodes = (
"162 704 OFFCURVE",
"186 680 OFFCURVE",
"215 680 CURVE SMOOTH",
"244 680 OFFCURVE",
"268 704 OFFCURVE",
"268 733 CURVE SMOOTH",
"268 763 OFFCURVE",
"244 787 OFFCURVE",
"215 787 CURVE SMOOTH",
"186 787 OFFCURVE",
"162 763 OFFCURVE",
"162 733 CURVE SMOOTH"
);
},
{
closed = 1;
nodes = (
"332 704 OFFCURVE",
"356 680 OFFCURVE",
"385 680 CURVE SMOOTH",
"414 680 OFFCURVE",
"438 704 OFFCURVE",
"438 733 CURVE SMOOTH",
"438 763 OFFCURVE",
"414 787 OFFCURVE",
"385 787 CURVE SMOOTH",
"356 787 OFFCURVE",
"332 763 OFFCURVE",
"332 733 CURVE SMOOTH"
);
}
);
vertWidth = 0;
width = 600;
}
);
note = afii10056;
unicode = 0407;
},
{
glyphname = afii10062;
layers = (
{
components = (
{
name = breve;
transform = "{1, 0, 0, 1, 10, 130}";
}
);
layerId = "FB41A910-D058-4278-9D39-63B3F9D49349";
paths = (
{
closed = 1;
nodes = (
"247 174 LINE",
"242 163 LINE SMOOTH",
"213 99 OFFCURVE",
"202 81 OFFCURVE",
"150 81 CURVE SMOOTH",
"115 81 OFFCURVE",
"99 65 OFFCURVE",
"99 40 CURVE SMOOTH",
"99 15 OFFCURVE",
"125 -2 OFFCURVE",
"160 -2 CURVE SMOOTH",
"273 -2 OFFCURVE",
"307 106 OFFCURVE",
"342 188 CURVE SMOOTH",
"510 580 LINE SMOOTH",
"526 618 OFFCURVE",
"512 638 OFFCURVE",
"487 648 CURVE SMOOTH",
"462 656 OFFCURVE",
"441 652 OFFCURVE",
"426 611 CURVE SMOOTH",
"296 265 LINE",
"176 611 LINE SMOOTH",
"161 654 OFFCURVE",
"140 656 OFFCURVE",
"115 648 CURVE SMOOTH",
"90 638 OFFCURVE",
"76 619 OFFCURVE",
"92 580 CURVE"
);
}
);
vertWidth = 0;
width = 600;
}
);
note = afii10062;
unicode = 040E;
},
{
glyphname = afii10066;
layers = (
{
layerId = "FB41A910-D058-4278-9D39-63B3F9D49349";
paths = (
{
closed = 1;
nodes = (
"155 165 OFFCURVE",
"208 72 OFFCURVE",
"309 72 CURVE SMOOTH",
"397 72 OFFCURVE",
"449 136 OFFCURVE",
"449 243 CURVE SMOOTH",
"449 345 OFFCURVE",
"398 402 OFFCURVE",
"307 402 CURVE SMOOTH",
"260 402 OFFCURVE",
"206 372 OFFCURVE",
"167 324 CURVE"
);
},
{
closed = 1;
nodes = (
"356 663 OFFCURVE",
"390 664 OFFCURVE",
"423 674 CURVE SMOOTH",
"453 684 OFFCURVE",
"471 677 OFFCURVE",
"471 649 CURVE",
"471 649 LINE",
"471 625 OFFCURVE",
"462 608 OFFCURVE",
"440 599 CURVE SMOOTH",
"404 585 OFFCURVE",
"371 584 OFFCURVE",
"315 589 CURVE SMOOTH",
"200 600 OFFCURVE",
"181 532 OFFCURVE",
"180 430 CURVE",
"222 466 OFFCURVE",
"267 483 OFFCURVE",
"320 483 CURVE SMOOTH",
"450 483 OFFCURVE",
"532 393 OFFCURVE",
"532 250 CURVE SMOOTH",
"532 91 OFFCURVE",
"444 -11 OFFCURVE",
"306 -11 CURVE SMOOTH",
"162 -11 OFFCURVE",
"80 106 OFFCURVE",
"80 310 CURVE SMOOTH",
"80 577 OFFCURVE",
"146 690 OFFCURVE",
"315 668 CURVE SMOOTH"
);
}
);
vertWidth = 0;
width = 600;
}
);
note = afii10066;
unicode = 0431;
},
{
glyphname = afii10067;
layers = (
{
layerId = "FB41A910-D058-4278-9D39-63B3F9D49349";
paths = (
{
closed = 1;
nodes = (
"202 204 LINE",
"357 204 LINE SMOOTH",
"396 204 OFFCURVE",
"425 175 OFFCURVE",
"425 139 CURVE SMOOTH",
"425 103 OFFCURVE",
"396 75 OFFCURVE",
"357 75 CURVE SMOOTH",
"202 75 LINE"
);
},
{
closed = 1;
nodes = (
"134 438 OFFCURVE",
"120 421 OFFCURVE",
"120 390 CURVE SMOOTH",
"120 66 LINE SMOOTH",
"120 20 OFFCURVE",
"145 0 OFFCURVE",
"191 0 CURVE SMOOTH",
"337 0 LINE SMOOTH",
"449 0 OFFCURVE",
"507 66 OFFCURVE",
"507 139 CURVE SMOOTH",
"507 212 OFFCURVE",
"449 279 OFFCURVE",
"337 279 CURVE SMOOTH",
"202 279 LINE",
"202 390 LINE SMOOTH",
"202 421 OFFCURVE",
"187 438 OFFCURVE",
"161 438 CURVE SMOOTH"
);
},
{
closed = 1;
nodes = (
"308 398 LINE SMOOTH",
"346 398 OFFCURVE",
"375 370 OFFCURVE",
"375 339 CURVE SMOOTH",
"375 308 OFFCURVE",
"346 279 OFFCURVE",
"308 279 CURVE SMOOTH",
"203 279 LINE",
"203 398 LINE"
);
},
{
closed = 1;
nodes = (
"121 204 LINE",
"308 204 LINE SMOOTH",
"399 204 OFFCURVE",
"457 271 OFFCURVE",
"457 339 CURVE SMOOTH",
"457 407 OFFCURVE",
"399 473 OFFCURVE",
"308 473 CURVE SMOOTH",
"192 473 LINE SMOOTH",
"146 473 OFFCURVE",
"121 448 OFFCURVE",
"121 402 CURVE"
);
}
);
vertWidth = 0;
width = 600;
}
);
note = afii10067;
unicode = 0432;
},
{
glyphname = afii10068;
layers = (
{
layerId = "FB41A910-D058-4278-9D39-63B3F9D49349";
paths = (
{
closed = 1;
nodes = (
"120 51 LINE SMOOTH",
"120 14 OFFCURVE",
"137 0 OFFCURVE",
"160 0 CURVE SMOOTH",
"183 0 OFFCURVE",
"201 14 OFFCURVE",
"201 51 CURVE SMOOTH",
"201 422 LINE SMOOTH",
"201 459 OFFCURVE",
"184 473 OFFCURVE",
"160 473 CURVE SMOOTH",
"138 473 OFFCURVE",
"120 459 OFFCURVE",
"120 422 CURVE SMOOTH"
);
},
{
closed = 1;
nodes = (
"160 473 LINE",
"160 392 LINE",
"481 392 LINE SMOOTH",
"518 392 OFFCURVE",
"532 409 OFFCURVE",
"532 433 CURVE SMOOTH",
"532 455 OFFCURVE",
"518 473 OFFCURVE",
"481 473 CURVE SMOOTH"
);
}
);
vertWidth = 0;
width = 600;
}
);
note = afii10068;
unicode = 0433;
},
{
glyphname = afii10069;
layers = (
{
layerId = "FB41A910-D058-4278-9D39-63B3F9D49349";
paths = (
{
closed = 1;
nodes = (
"492 459 OFFCURVE",
"474 473 OFFCURVE",
"452 473 CURVE SMOOTH",
"428 473 OFFCURVE",
"411 459 OFFCURVE",
"411 422 CURVE SMOOTH",
"411 51 LINE SMOOTH",
"411 14 OFFCURVE",
"429 0 OFFCURVE",
"452 0 CURVE SMOOTH",
"475 0 OFFCURVE",
"492 14 OFFCURVE",
"492 51 CURVE SMOOTH",
"492 422 LINE SMOOTH"
);
},
{
closed = 1;
nodes = (
"208 473 OFFCURVE",
"194 455 OFFCURVE",
"194 433 CURVE SMOOTH",
"194 409 OFFCURVE",
"208 392 OFFCURVE",
"245 392 CURVE SMOOTH",
"452 392 LINE",
"452 473 LINE",
"245 473 LINE SMOOTH"
);
},
{
closed = 1;
nodes = (
"134 110 OFFCURVE",
"127 79 OFFCURVE",
"104 66 CURVE SMOOTH",
"87 57 OFFCURVE",
"76 47 OFFCURVE",
"76 29 CURVE SMOOTH",
"77 1 OFFCURVE",
"106 -18 OFFCURVE",
"137 -3 CURVE SMOOTH",
"196 24 OFFCURVE",
"212 88 OFFCURVE",
"227 162 CURVE SMOOTH",
"277 414 LINE SMOOTH",
"284 451 OFFCURVE",
"259 414 OFFCURVE",
"235 414 CURVE SMOOTH",
"211 414 OFFCURVE",
"201 470 OFFCURVE",
"194 433 CURVE SMOOTH",
"144 162 LINE"
);
},
{
closed = 1;
nodes = (
"531 -10 OFFCURVE",
"545 8 OFFCURVE",
"545 30 CURVE SMOOTH",
"545 54 OFFCURVE",
"531 71 OFFCURVE",
"494 71 CURVE SMOOTH",
"106 71 LINE SMOOTH",
"69 71 OFFCURVE",
"55 53 OFFCURVE",
"55 30 CURVE SMOOTH",
"55 7 OFFCURVE",
"69 -10 OFFCURVE",
"106 -10 CURVE SMOOTH",
"494 -10 LINE SMOOTH"
);
},
{
closed = 1;
nodes = (
"545 56 OFFCURVE",
"525 71 OFFCURVE",
"507 71 CURVE SMOOTH",
"487 71 OFFCURVE",
"470 55 OFFCURVE",
"470 33 CURVE SMOOTH",
"470 -75 LINE SMOOTH",
"470 -95 OFFCURVE",
"485 -111 OFFCURVE",
"507 -111 CURVE SMOOTH",
"529 -111 OFFCURVE",
"545 -96 OFFCURVE",
"545 -77 CURVE SMOOTH",
"545 36 LINE SMOOTH"
);
},
{
closed = 1;
nodes = (
"129 56 OFFCURVE",
"109 71 OFFCURVE",
"91 71 CURVE SMOOTH",
"71 71 OFFCURVE",
"54 55 OFFCURVE",
"54 33 CURVE SMOOTH",
"54 -75 LINE SMOOTH",
"54 -95 OFFCURVE",
"69 -111 OFFCURVE",
"91 -111 CURVE SMOOTH",
"113 -111 OFFCURVE",
"129 -96 OFFCURVE",
"129 -77 CURVE SMOOTH",
"129 36 LINE SMOOTH"
);
}
);
vertWidth = 0;
width = 600;
}
);
note = afii10069;
unicode = 0434;
},
{
glyphname = afii10072;
layers = (
{
layerId = "FB41A910-D058-4278-9D39-63B3F9D49349";
paths = (
{
closed = 1;
nodes = (
"557 10 OFFCURVE",
"556 27 OFFCURVE",
"546 64 CURVE SMOOTH",
"519 162 OFFCURVE",
"485 230 OFFCURVE",
"420 276 CURVE",
"463 315 OFFCURVE",
"493 373 OFFCURVE",
"512 420 CURVE SMOOTH",
"524 450 OFFCURVE",
"519 463 OFFCURVE",
"499 472 CURVE SMOOTH",
"479 481 OFFCURVE",
"457 478 OFFCURVE",
"448 452 CURVE SMOOTH",
"430 400 OFFCURVE",
"367 288 OFFCURVE",
"331 287 CURVE",
"331 210 LINE",
"393 210 LINE",
"435 183 OFFCURVE",
"463 107 OFFCURVE",
"475 38 CURVE SMOOTH",
"483 9 OFFCURVE",
"499 -4 OFFCURVE",
"528 3 CURVE SMOOTH"
);
},
{
closed = 1;
nodes = (
"323 -1 OFFCURVE",
"341 12 OFFCURVE",
"341 48 CURVE SMOOTH",
"341 430 LINE SMOOTH",
"341 464 OFFCURVE",
"324 477 OFFCURVE",
"300 477 CURVE SMOOTH",
"276 477 OFFCURVE",
"259 464 OFFCURVE",
"259 430 CURVE SMOOTH",
"259 48 LINE SMOOTH",
"259 12 OFFCURVE",
"275 -1 OFFCURVE",
"299 -1 CURVE SMOOTH"
);
},
{
closed = 1;
nodes = (
"101 -4 OFFCURVE",
"117 9 OFFCURVE",
"125 38 CURVE SMOOTH",
"137 107 OFFCURVE",
"165 183 OFFCURVE",
"207 210 CURVE",
"269 210 LINE",
"269 287 LINE",
"233 288 OFFCURVE",
"170 400 OFFCURVE",
"152 452 CURVE SMOOTH",
"143 478 OFFCURVE",
"121 481 OFFCURVE",
"101 472 CURVE SMOOTH",
"81 463 OFFCURVE",
"76 450 OFFCURVE",
"88 420 CURVE SMOOTH",
"107 373 OFFCURVE",
"137 315 OFFCURVE",
"180 276 CURVE",
"115 230 OFFCURVE",
"81 162 OFFCURVE",
"54 64 CURVE SMOOTH",
"44 27 OFFCURVE",
"43 10 OFFCURVE",
"72 3 CURVE SMOOTH"
);
}
);
vertWidth = 0;
width = 600;
}
);
note = afii10072;
unicode = 0436;
},
{
glyphname = afii10073;
layers = (
{
layerId = "FB41A910-D058-4278-9D39-63B3F9D49349";
paths = (
{
closed = 1;
nodes = (
"418 315 OFFCURVE",
"332 288 OFFCURVE",
"262 288 CURVE SMOOTH",
"232 288 OFFCURVE",
"212 268 OFFCURVE",
"212 246 CURVE SMOOTH",
"212 223 OFFCURVE",
"231 203 OFFCURVE",
"260 203 CURVE SMOOTH",
"342 203 OFFCURVE",
"428 176 OFFCURVE",
"428 137 CURVE SMOOTH",
"428 91 OFFCURVE",
"355 65 OFFCURVE",
"291 65 CURVE SMOOTH",
"231 65 OFFCURVE",
"186 89 OFFCURVE",
"160 103 CURVE SMOOTH",
"135 118 OFFCURVE",
"112 123 OFFCURVE",
"98 98 CURVE SMOOTH",
"80 67 OFFCURVE",
"98 43 OFFCURVE",
"127 25 CURVE SMOOTH",
"152 9 OFFCURVE",
"202 -15 OFFCURVE",
"291 -15 CURVE SMOOTH",
"436 -15 OFFCURVE",
"522 47 OFFCURVE",
"522 127 CURVE SMOOTH",
"522 187 OFFCURVE",
"474 231 OFFCURVE",
"387 244 CURVE",
"454 260 OFFCURVE",
"495 304 OFFCURVE",
"495 352 CURVE SMOOTH",
"495 420 OFFCURVE",
"416 482 OFFCURVE",
"303 482 CURVE SMOOTH",
"214 482 OFFCURVE",
"164 458 OFFCURVE",
"139 442 CURVE SMOOTH",
"110 424 OFFCURVE",
"92 400 OFFCURVE",
"110 369 CURVE SMOOTH",
"124 344 OFFCURVE",
"143 343 OFFCURVE",
"168 360 CURVE SMOOTH",
"194 376 OFFCURVE",
"239 402 OFFCURVE",
"303 402 CURVE SMOOTH",
"367 402 OFFCURVE",
"418 376 OFFCURVE",
"418 342 CURVE SMOOTH"
);
},
{
closed = 1;
nodes = (
"418 315 OFFCURVE",
"332 288 OFFCURVE",
"262 288 CURVE SMOOTH",
"232 288 OFFCURVE",
"212 268 OFFCURVE",
"212 246 CURVE SMOOTH",
"212 223 OFFCURVE",
"231 203 OFFCURVE",
"260 203 CURVE SMOOTH",
"342 203 OFFCURVE",
"428 176 OFFCURVE",
"428 137 CURVE SMOOTH",
"428 91 OFFCURVE",
"355 65 OFFCURVE",
"291 65 CURVE SMOOTH",
"231 65 OFFCURVE",
"186 89 OFFCURVE",
"160 103 CURVE SMOOTH",
"135 118 OFFCURVE",
"112 123 OFFCURVE",
"98 98 CURVE SMOOTH",
"80 67 OFFCURVE",
"98 43 OFFCURVE",
"127 25 CURVE SMOOTH",
"152 9 OFFCURVE",
"202 -15 OFFCURVE",
"291 -15 CURVE SMOOTH",
"436 -15 OFFCURVE",
"522 47 OFFCURVE",
"522 127 CURVE SMOOTH",
"522 187 OFFCURVE",
"474 231 OFFCURVE",
"387 244 CURVE",
"454 260 OFFCURVE",
"495 304 OFFCURVE",
"495 352 CURVE SMOOTH",
"495 420 OFFCURVE",
"416 482 OFFCURVE",
"303 482 CURVE SMOOTH",
"214 482 OFFCURVE",
"164 458 OFFCURVE",
"139 442 CURVE SMOOTH",
"110 424 OFFCURVE",
"92 400 OFFCURVE",
"110 369 CURVE SMOOTH",
"124 344 OFFCURVE",
"143 343 OFFCURVE",
"168 360 CURVE SMOOTH",
"194 376 OFFCURVE",
"239 402 OFFCURVE",
"303 402 CURVE SMOOTH",
"367 402 OFFCURVE",
"418 376 OFFCURVE",
"418 342 CURVE SMOOTH"
);
}
);
vertWidth = 0;
width = 600;
}
);
note = afii10073;
unicode = 0437;
},
{
glyphname = afii10074;
layers = (
{
layerId = "FB41A910-D058-4278-9D39-63B3F9D49349";
paths = (
{
closed = 1;
nodes = (
"162 142 LINE",
"162 426 LINE SMOOTH",
"162 464 OFFCURVE",
"145 478 OFFCURVE",
"119 478 CURVE SMOOTH",
"97 478 OFFCURVE",
"79 464 OFFCURVE",
"79 426 CURVE SMOOTH",
"79 52 LINE SMOOTH",
"79 17 OFFCURVE",
"93 3 OFFCURVE",
"111 0 CURVE",
"130 -6 OFFCURVE",
"145 0 OFFCURVE",
"166 23 CURVE SMOOTH",
"438 327 LINE",
"438 52 LINE SMOOTH",
"438 14 OFFCURVE",
"455 0 OFFCURVE",
"481 0 CURVE SMOOTH",
"503 0 OFFCURVE",
"521 14 OFFCURVE",
"521 52 CURVE SMOOTH",
"521 426 LINE SMOOTH",
"521 461 OFFCURVE",
"507 473 OFFCURVE",
"489 478 CURVE SMOOTH",
"470 483 OFFCURVE",
"454 478 OFFCURVE",
"434 455 CURVE SMOOTH"
);
}
);
vertWidth = 0;
width = 600;
}
);
note = afii10074;
unicode = 0438;
},
{
glyphname = afii10075;
layers = (
{
components = (
{
name = breve;
transform = "{1, 0, 0, 1, 20, -20}";
}
);
layerId = "FB41A910-D058-4278-9D39-63B3F9D49349";
paths = (
{
closed = 1;
nodes = (
"162 142 LINE",
"162 426 LINE SMOOTH",
"162 464 OFFCURVE",
"145 478 OFFCURVE",
"119 478 CURVE SMOOTH",
"97 478 OFFCURVE",
"79 464 OFFCURVE",
"79 426 CURVE SMOOTH",
"79 52 LINE SMOOTH",
"79 17 OFFCURVE",
"93 3 OFFCURVE",
"111 0 CURVE",
"130 -6 OFFCURVE",
"145 0 OFFCURVE",
"166 23 CURVE SMOOTH",
"438 327 LINE",
"438 52 LINE SMOOTH",
"438 14 OFFCURVE",
"455 0 OFFCURVE",
"481 0 CURVE SMOOTH",
"503 0 OFFCURVE",
"521 14 OFFCURVE",
"521 52 CURVE SMOOTH",
"521 426 LINE SMOOTH",
"521 461 OFFCURVE",
"507 473 OFFCURVE",
"489 478 CURVE SMOOTH",
"470 483 OFFCURVE",
"454 478 OFFCURVE",
"434 455 CURVE SMOOTH"
);
}
);
vertWidth = 0;
width = 600;
}
);
note = afii10075;
unicode = 0439;
},
{
glyphname = afii10076;
layers = (
{
layerId = "FB41A910-D058-4278-9D39-63B3F9D49349";
paths = (
{
closed = 1;
nodes = (
"126 51 LINE SMOOTH",
"126 14 OFFCURVE",
"143 0 OFFCURVE",
"167 0 CURVE SMOOTH",
"191 0 OFFCURVE",
"209 14 OFFCURVE",
"209 51 CURVE SMOOTH",
"209 423 LINE SMOOTH",
"209 460 OFFCURVE",
"192 474 OFFCURVE",
"167 474 CURVE SMOOTH",
"144 474 OFFCURVE",
"126 460 OFFCURVE",
"126 423 CURVE SMOOTH"
);
},
{
closed = 1;
nodes = (
"162 128 LINE",
"445 401 LINE SMOOTH",
"470 425 OFFCURVE",
"465 449 OFFCURVE",
"447 464 CURVE SMOOTH",
"430 480 OFFCURVE",
"410 478 OFFCURVE",
"385 455 CURVE SMOOTH",
"162 246 LINE"
);
},
{
closed = 1;
nodes = (
"215 263 LINE",
"417 22 LINE SMOOTH",
"441 -6 OFFCURVE",
"463 -6 OFFCURVE",
"481 10 CURVE SMOOTH",
"500 25 OFFCURVE",
"505 48 OFFCURVE",
"481 76 CURVE SMOOTH",
"270 327 LINE"
);
}
);
vertWidth = 0;
width = 600;
}
);
note = afii10076;
unicode = 043A;
},
{
glyphname = afii10077;
layers = (
{
layerId = "FB41A910-D058-4278-9D39-63B3F9D49349";
paths = (
{
closed = 1;
nodes = (
"496 459 OFFCURVE",
"478 473 OFFCURVE",
"456 473 CURVE SMOOTH",
"432 473 OFFCURVE",
"415 459 OFFCURVE",
"415 422 CURVE SMOOTH",
"415 51 LINE SMOOTH",
"415 14 OFFCURVE",
"433 0 OFFCURVE",
"456 0 CURVE SMOOTH",
"479 0 OFFCURVE",
"496 14 OFFCURVE",
"496 51 CURVE SMOOTH",
"496 422 LINE SMOOTH"
);
},
{
closed = 1;
nodes = (
"122 473 OFFCURVE",
"108 455 OFFCURVE",
"108 433 CURVE SMOOTH",
"108 409 OFFCURVE",
"122 392 OFFCURVE",
"159 392 CURVE SMOOTH",
"456 392 LINE",
"456 473 LINE",
"159 473 LINE SMOOTH"
);
},
{
closed = 1;
nodes = (
"154 120 OFFCURVE",
"141 89 OFFCURVE",
"118 76 CURVE SMOOTH",
"101 67 OFFCURVE",
"90 57 OFFCURVE",
"90 39 CURVE SMOOTH",
"91 11 OFFCURVE",
"120 -12 OFFCURVE",
"151 3 CURVE SMOOTH",
"210 30 OFFCURVE",
"235 98 OFFCURVE",
"241 172 CURVE SMOOTH",
"261 414 LINE SMOOTH",
"264 451 OFFCURVE",
"243 414 OFFCURVE",
"219 414 CURVE SMOOTH",
"195 414 OFFCURVE",
"181 470 OFFCURVE",
"178 433 CURVE SMOOTH",
"158 172 LINE SMOOTH"
);
}
);
vertWidth = 0;
width = 600;
}
);
note = afii10077;
unicode = 043B;
},
{
glyphname = afii10078;
layers = (
{
anchors = (
{
name = bottom;
position = "{270, 0}";
},
{
name = top;
position = "{270, 670}";
}
);
layerId = "FB41A910-D058-4278-9D39-63B3F9D49349";
paths = (
{
closed = 1;
nodes = (
"509 423 LINE SMOOTH",
"506 460 OFFCURVE",
"492 474 OFFCURVE",
"468 474 CURVE SMOOTH",
"447 474 OFFCURVE",
"430 459 OFFCURVE",
"420 432 CURVE SMOOTH",
"300 114 LINE",
"180 432 LINE SMOOTH",
"170 459 OFFCURVE",
"153 474 OFFCURVE",
"132 474 CURVE SMOOTH",
"108 474 OFFCURVE",
"93 460 OFFCURVE",
"90 423 CURVE SMOOTH",
"60 50 LINE SMOOTH",
"57 13 OFFCURVE",
"77 -1 OFFCURVE",
"101 -1 CURVE SMOOTH",
"123 -1 OFFCURVE",
"137 13 OFFCURVE",
"141 50 CURVE SMOOTH",
"161 259 LINE",
"245 48 LINE SMOOTH",
"262 5 OFFCURVE",
"279 -1 OFFCURVE",
"300 -1 CURVE SMOOTH",
"321 -1 OFFCURVE",
"338 4 OFFCURVE",
"355 48 CURVE SMOOTH",
"438 259 LINE",
"458 50 LINE SMOOTH",
"462 13 OFFCURVE",
"475 -1 OFFCURVE",
"497 -1 CURVE SMOOTH",
"521 -1 OFFCURVE",
"542 13 OFFCURVE",
"539 50 CURVE SMOOTH"
);
}
);
vertWidth = 0;
width = 600;
}
);
note = afii10078;
unicode = 043C;
},
{
glyphname = afii10079;
layers = (
{
layerId = "FB41A910-D058-4278-9D39-63B3F9D49349";
paths = (
{
closed = 1;
nodes = (
"100 51 LINE SMOOTH",
"100 14 OFFCURVE",
"117 0 OFFCURVE",
"140 0 CURVE SMOOTH",
"163 0 OFFCURVE",
"181 14 OFFCURVE",
"181 51 CURVE SMOOTH",
"181 422 LINE SMOOTH",
"181 459 OFFCURVE",
"164 473 OFFCURVE",
"140 473 CURVE SMOOTH",
"118 473 OFFCURVE",
"100 459 OFFCURVE",
"100 422 CURVE SMOOTH"
);
},
{
closed = 1;
nodes = (
"160 293 LINE SMOOTH",
"123 293 OFFCURVE",
"109 276 OFFCURVE",
"109 253 CURVE SMOOTH",
"109 230 OFFCURVE",
"123 212 OFFCURVE",
"160 212 CURVE SMOOTH",
"434 212 LINE SMOOTH",
"471 212 OFFCURVE",
"485 229 OFFCURVE",
"485 253 CURVE SMOOTH",
"485 275 OFFCURVE",
"471 293 OFFCURVE",
"434 293 CURVE SMOOTH"
);
},
{
closed = 1;
nodes = (
"419 52 LINE SMOOTH",
"419 15 OFFCURVE",
"436 1 OFFCURVE",
"459 1 CURVE SMOOTH",
"482 1 OFFCURVE",
"500 15 OFFCURVE",
"500 52 CURVE SMOOTH",
"500 423 LINE SMOOTH",
"500 460 OFFCURVE",
"483 474 OFFCURVE",
"459 474 CURVE SMOOTH",
"437 474 OFFCURVE",
"419 460 OFFCURVE",
"419 423 CURVE SMOOTH"
);
}
);
vertWidth = 0;
width = 600;
}
);
note = afii10079;
unicode = 043D;
},
{
glyphname = afii10081;
layers = (
{
layerId = "FB41A910-D058-4278-9D39-63B3F9D49349";
paths = (
{
closed = 1;
nodes = (
"121 51 LINE SMOOTH",
"121 14 OFFCURVE",
"138 0 OFFCURVE",
"161 0 CURVE SMOOTH",
"184 0 OFFCURVE",
"202 14 OFFCURVE",
"202 51 CURVE SMOOTH",
"202 422 LINE SMOOTH",
"202 459 OFFCURVE",
"185 473 OFFCURVE",
"161 473 CURVE SMOOTH",
"139 473 OFFCURVE",
"121 459 OFFCURVE",
"121 422 CURVE SMOOTH"
);
},
{
closed = 1;
nodes = (
"101 473 LINE SMOOTH",
"64 473 OFFCURVE",
"50 456 OFFCURVE",
"50 433 CURVE SMOOTH",
"50 410 OFFCURVE",
"64 392 OFFCURVE",
"101 392 CURVE SMOOTH",
"499 392 LINE SMOOTH",
"536 392 OFFCURVE",
"550 409 OFFCURVE",
"550 433 CURVE SMOOTH",
"550 455 OFFCURVE",
"536 473 OFFCURVE",
"499 473 CURVE SMOOTH"
);
},
{
closed = 1;
nodes = (
"404 52 LINE SMOOTH",
"404 15 OFFCURVE",
"421 1 OFFCURVE",
"444 1 CURVE SMOOTH",
"467 1 OFFCURVE",
"485 15 OFFCURVE",
"485 52 CURVE SMOOTH",
"485 423 LINE SMOOTH",
"485 460 OFFCURVE",
"468 474 OFFCURVE",
"444 474 CURVE SMOOTH",
"422 474 OFFCURVE",
"404 460 OFFCURVE",
"404 423 CURVE SMOOTH"
);
}
);
vertWidth = 0;
width = 600;
}
);
note = afii10081;
unicode = 043F;
},
{
glyphname = afii10084;
layers = (
{
layerId = "FB41A910-D058-4278-9D39-63B3F9D49349";
paths = (
{
closed = 1;
nodes = (
"260 51 LINE SMOOTH",
"260 14 OFFCURVE",
"277 0 OFFCURVE",
"300 0 CURVE SMOOTH",
"323 0 OFFCURVE",
"341 14 OFFCURVE",
"341 51 CURVE SMOOTH",
"341 418 LINE SMOOTH",
"341 455 OFFCURVE",
"324 469 OFFCURVE",
"300 469 CURVE SMOOTH",
"278 469 OFFCURVE",
"260 455 OFFCURVE",
"260 418 CURVE SMOOTH"
);
},
{
closed = 1;
nodes = (
"137 472 LINE SMOOTH",
"100 472 OFFCURVE",
"86 455 OFFCURVE",
"86 433 CURVE SMOOTH",
"86 411 OFFCURVE",
"100 394 OFFCURVE",
"137 394 CURVE SMOOTH",
"463 394 LINE SMOOTH",
"500 394 OFFCURVE",
"514 411 OFFCURVE",
"514 433 CURVE SMOOTH",
"514 455 OFFCURVE",
"500 472 OFFCURVE",
"463 472 CURVE SMOOTH"
);
}
);
vertWidth = 0;
width = 600;
}
);
note = afii10084;
unicode = 0442;
},
{
glyphname = afii10086;
layers = (
{
layerId = "FB41A910-D058-4278-9D39-63B3F9D49349";
paths = (
{
closed = 1;
nodes = (
"490 -31 OFFCURVE",
"591 -6 OFFCURVE",
"591 209 CURVE SMOOTH",
"591 424 OFFCURVE",
"487 455 OFFCURVE",
"438 455 CURVE SMOOTH",
"369 455 OFFCURVE",
"342 413 OFFCURVE",
"333 382 CURVE",
"334 287 LINE",
"344 326 OFFCURVE",
"366 361 OFFCURVE",
"420 361 CURVE SMOOTH",
"474 361 OFFCURVE",
"510 307 OFFCURVE",
"510 209 CURVE SMOOTH",
"510 106 OFFCURVE",
"468 62 OFFCURVE",
"422 62 CURVE SMOOTH",
"386 62 OFFCURVE",
"353 82 OFFCURVE",
"318 132 CURVE",
"318 41 LINE",
"335 9 OFFCURVE",
"366 -31 OFFCURVE",
"433 -31 CURVE SMOOTH"
);
},
{
closed = 1;
nodes = (
"325 -230 OFFCURVE",
"343 -216 OFFCURVE",
"343 -178 CURVE SMOOTH",
"343 448 LINE SMOOTH",
"343 486 OFFCURVE",
"326 500 OFFCURVE",
"300 500 CURVE SMOOTH",
"274 500 OFFCURVE",
"256 486 OFFCURVE",
"256 448 CURVE SMOOTH",
"256 -178 LINE SMOOTH",
"256 -216 OFFCURVE",
"273 -230 OFFCURVE",
"299 -230 CURVE SMOOTH"
);
},
{
closed = 1;
nodes = (
"233 -31 OFFCURVE",
"264 9 OFFCURVE",
"281 41 CURVE",
"281 132 LINE",
"246 82 OFFCURVE",
"213 62 OFFCURVE",
"177 62 CURVE SMOOTH",
"131 62 OFFCURVE",
"89 106 OFFCURVE",
"89 209 CURVE SMOOTH",
"89 307 OFFCURVE",
"125 361 OFFCURVE",
"179 361 CURVE SMOOTH",
"233 361 OFFCURVE",
"255 326 OFFCURVE",
"265 287 CURVE",
"266 382 LINE",
"257 413 OFFCURVE",
"230 455 OFFCURVE",
"161 455 CURVE SMOOTH",
"112 455 OFFCURVE",
"8 424 OFFCURVE",
"8 209 CURVE SMOOTH",
"8 -6 OFFCURVE",
"109 -31 OFFCURVE",
"166 -31 CURVE SMOOTH"
);
}
);
vertWidth = 0;
width = 600;
}
);
note = afii10086;
unicode = 0444;
},
{
glyphname = afii10088;
layers = (
{
layerId = "FB41A910-D058-4278-9D39-63B3F9D49349";
paths = (
{
closed = 1;
nodes = (
"471 423 LINE SMOOTH",
"471 460 OFFCURVE",
"454 474 OFFCURVE",
"431 474 CURVE SMOOTH",
"408 474 OFFCURVE",
"390 460 OFFCURVE",
"390 423 CURVE SMOOTH",
"390 52 LINE SMOOTH",
"390 15 OFFCURVE",
"407 1 OFFCURVE",
"431 1 CURVE SMOOTH",
"453 1 OFFCURVE",
"471 15 OFFCURVE",
"471 52 CURVE SMOOTH"
);
},
{
closed = 1;
nodes = (
"511 1 LINE SMOOTH",
"548 1 OFFCURVE",
"552 18 OFFCURVE",
"552 41 CURVE SMOOTH",
"552 64 OFFCURVE",
"548 82 OFFCURVE",
"511 82 CURVE SMOOTH",
"93 82 LINE SMOOTH",
"56 82 OFFCURVE",
"42 65 OFFCURVE",
"42 41 CURVE SMOOTH",
"42 19 OFFCURVE",
"56 1 OFFCURVE",
"93 1 CURVE SMOOTH"
);
},
{
closed = 1;
nodes = (
"188 422 LINE SMOOTH",
"188 459 OFFCURVE",
"171 473 OFFCURVE",
"148 473 CURVE SMOOTH",
"125 473 OFFCURVE",
"107 459 OFFCURVE",
"107 422 CURVE SMOOTH",
"107 51 LINE SMOOTH",
"107 14 OFFCURVE",
"124 0 OFFCURVE",
"148 0 CURVE SMOOTH",
"170 0 OFFCURVE",
"188 14 OFFCURVE",
"188 51 CURVE SMOOTH"
);
},
{
closed = 1;
nodes = (
"563 31 LINE SMOOTH",
"563 68 OFFCURVE",
"546 82 OFFCURVE",
"523 82 CURVE SMOOTH",
"500 82 OFFCURVE",
"482 68 OFFCURVE",
"482 31 CURVE SMOOTH",
"482 -30 LINE SMOOTH",
"482 -67 OFFCURVE",
"499 -81 OFFCURVE",
"523 -81 CURVE SMOOTH",
"545 -81 OFFCURVE",
"563 -67 OFFCURVE",
"563 -30 CURVE SMOOTH"
);
}
);
vertWidth = 0;
width = 600;
}
);
note = afii10088;
unicode = 0446;
},
{
glyphname = afii10089;
layers = (
{
layerId = "FB41A910-D058-4278-9D39-63B3F9D49349";
paths = (
{
closed = 1;
nodes = (
"488 423 LINE SMOOTH",
"488 460 OFFCURVE",
"471 474 OFFCURVE",
"447 474 CURVE SMOOTH",
"423 474 OFFCURVE",
"405 460 OFFCURVE",
"405 423 CURVE SMOOTH",
"405 50 LINE SMOOTH",
"405 13 OFFCURVE",
"422 -1 OFFCURVE",
"447 -1 CURVE SMOOTH",
"470 -1 OFFCURVE",
"488 13 OFFCURVE",
"488 50 CURVE SMOOTH"
);
},
{
closed = 1;
nodes = (
"178 423 LINE SMOOTH",
"178 460 OFFCURVE",
"161 474 OFFCURVE",
"137 474 CURVE SMOOTH",
"113 474 OFFCURVE",
"95 460 OFFCURVE",
"95 423 CURVE SMOOTH",
"95 282 LINE SMOOTH",
"95 192 OFFCURVE",
"138 120 OFFCURVE",
"250 120 CURVE SMOOTH",
"336 120 OFFCURVE",
"406 160 OFFCURVE",
"432 236 CURVE",
"405 314 LINE",
"375 244 OFFCURVE",
"323 203 OFFCURVE",
"262 203 CURVE SMOOTH",
"210 203 OFFCURVE",
"178 220 OFFCURVE",
"178 282 CURVE SMOOTH"
);
}
);
vertWidth = 0;
width = 600;
}
);
note = afii10089;
unicode = 0447;
},
{
glyphname = afii10090;
layers = (
{
layerId = "FB41A910-D058-4278-9D39-63B3F9D49349";
paths = (
{
closed = 1;
nodes = (
"551 422 LINE SMOOTH",
"551 459 OFFCURVE",
"534 473 OFFCURVE",
"511 473 CURVE SMOOTH",
"488 473 OFFCURVE",
"470 459 OFFCURVE",
"470 422 CURVE SMOOTH",
"470 51 LINE SMOOTH",
"470 14 OFFCURVE",
"487 0 OFFCURVE",
"511 0 CURVE SMOOTH",
"533 0 OFFCURVE",
"551 14 OFFCURVE",
"551 51 CURVE SMOOTH"
);
},
{
closed = 1;
nodes = (
"511 0 LINE",
"511 81 LINE",
"90 81 LINE",
"90 0 LINE"
);
},
{
closed = 1;
nodes = (
"130 422 LINE SMOOTH",
"130 459 OFFCURVE",
"113 473 OFFCURVE",
"90 473 CURVE SMOOTH",
"67 473 OFFCURVE",
"49 459 OFFCURVE",
"49 422 CURVE SMOOTH",
"49 51 LINE SMOOTH",
"49 14 OFFCURVE",
"66 0 OFFCURVE",
"90 0 CURVE SMOOTH",
"112 0 OFFCURVE",
"130 14 OFFCURVE",
"130 51 CURVE SMOOTH"
);
},
{
closed = 1;
nodes = (
"341 423 LINE SMOOTH",
"341 460 OFFCURVE",
"324 474 OFFCURVE",
"301 474 CURVE SMOOTH",
"278 474 OFFCURVE",
"260 460 OFFCURVE",
"260 423 CURVE SMOOTH",
"260 52 LINE SMOOTH",
"260 15 OFFCURVE",
"277 1 OFFCURVE",
"301 1 CURVE SMOOTH",
"323 1 OFFCURVE",
"341 15 OFFCURVE",
"341 52 CURVE SMOOTH"
);
}
);
vertWidth = 0;
width = 600;
}
);
note = afii10090;
unicode = 0448;
},
{
glyphname = afii10091;
layers = (
{
layerId = "FB41A910-D058-4278-9D39-63B3F9D49349";
paths = (
{
closed = 1;
nodes = (
"497 423 LINE SMOOTH",
"497 460 OFFCURVE",
"480 474 OFFCURVE",
"457 474 CURVE SMOOTH",
"434 474 OFFCURVE",
"416 460 OFFCURVE",
"416 423 CURVE SMOOTH",
"416 52 LINE SMOOTH",
"416 15 OFFCURVE",
"433 1 OFFCURVE",
"457 1 CURVE SMOOTH",
"479 1 OFFCURVE",
"497 15 OFFCURVE",
"497 52 CURVE SMOOTH"
);
},
{
closed = 1;
nodes = (
"507 0 LINE",
"507 81 LINE",
"116 81 LINE",
"116 0 LINE"
);
},
{
closed = 1;
nodes = (
"156 422 LINE SMOOTH",
"156 459 OFFCURVE",
"139 473 OFFCURVE",
"116 473 CURVE SMOOTH",
"93 473 OFFCURVE",
"75 459 OFFCURVE",
"75 422 CURVE SMOOTH",
"75 51 LINE SMOOTH",
"75 14 OFFCURVE",
"92 0 OFFCURVE",
"116 0 CURVE SMOOTH",
"138 0 OFFCURVE",
"156 14 OFFCURVE",
"156 51 CURVE SMOOTH"
);
},
{
closed = 1;
nodes = (
"547 30 LINE SMOOTH",
"547 67 OFFCURVE",
"530 81 OFFCURVE",
"507 81 CURVE SMOOTH",
"484 81 OFFCURVE",
"466 67 OFFCURVE",
"466 30 CURVE SMOOTH",
"466 -31 LINE SMOOTH",
"466 -68 OFFCURVE",
"483 -82 OFFCURVE",
"507 -82 CURVE SMOOTH",
"529 -82 OFFCURVE",
"547 -68 OFFCURVE",
"547 -31 CURVE SMOOTH"
);
},
{
closed = 1;
nodes = (
"327 423 LINE SMOOTH",
"327 460 OFFCURVE",
"310 474 OFFCURVE",
"287 474 CURVE SMOOTH",
"264 474 OFFCURVE",
"246 460 OFFCURVE",
"246 423 CURVE SMOOTH",
"246 52 LINE SMOOTH",
"246 15 OFFCURVE",
"263 1 OFFCURVE",
"287 1 CURVE SMOOTH",
"309 1 OFFCURVE",
"327 15 OFFCURVE",
"327 52 CURVE SMOOTH"
);
}
);
vertWidth = 0;
width = 600;
}
);
note = afii10091;
unicode = 0449;
},
{
glyphname = afii10092;
layers = (
{
layerId = "FB41A910-D058-4278-9D39-63B3F9D49349";
paths = (
{
closed = 1;
nodes = (
"252 234 LINE",
"367 234 LINE SMOOTH",
"426 234 OFFCURVE",
"455 205 OFFCURVE",
"455 154 CURVE SMOOTH",
"455 103 OFFCURVE",
"426 75 OFFCURVE",
"367 75 CURVE SMOOTH",
"252 75 LINE"
);
},
{
closed = 1;
nodes = (
"43 410 OFFCURVE",
"59 397 OFFCURVE",
"88 397 CURVE SMOOTH",
"170 397 LINE",
"170 71 LINE SMOOTH",
"170 25 OFFCURVE",
"195 0 OFFCURVE",
"241 0 CURVE SMOOTH",
"367 0 LINE SMOOTH",
"479 0 OFFCURVE",
"537 66 OFFCURVE",
"537 154 CURVE SMOOTH",
"537 242 OFFCURVE",
"479 309 OFFCURVE",
"367 309 CURVE SMOOTH",
"252 309 LINE",
"252 425 LINE SMOOTH",
"252 456 OFFCURVE",
"235 473 OFFCURVE",
"204 473 CURVE SMOOTH",
"88 473 LINE SMOOTH",
"59 473 OFFCURVE",
"43 459 OFFCURVE",
"43 435 CURVE SMOOTH"
);
}
);
vertWidth = 0;
width = 600;
}
);
note = afii10092;
unicode = 044A;
},
{
glyphname = afii10093;
layers = (
{
layerId = "FB41A910-D058-4278-9D39-63B3F9D49349";
paths = (
{
closed = 1;
nodes = (
"163 234 LINE",
"238 234 LINE SMOOTH",
"297 234 OFFCURVE",
"326 205 OFFCURVE",
"326 154 CURVE SMOOTH",
"326 103 OFFCURVE",
"297 75 OFFCURVE",
"238 75 CURVE SMOOTH",
"163 75 LINE"
);
},
{
closed = 1;
nodes = (
"122 475 CURVE SMOOTH",
"96 474 OFFCURVE",
"81 459 OFFCURVE",
"81 431 CURVE SMOOTH",
"81 71 LINE SMOOTH",
"81 25 OFFCURVE",
"106 0 OFFCURVE",
"152 0 CURVE SMOOTH",
"238 0 LINE SMOOTH",
"350 0 OFFCURVE",
"408 66 OFFCURVE",
"408 154 CURVE SMOOTH",
"408 242 OFFCURVE",
"350 309 OFFCURVE",
"238 309 CURVE SMOOTH",
"163 309 LINE",
"163 431 LINE SMOOTH",
"163 459 OFFCURVE",
"148 475 OFFCURVE"
);
},
{
closed = 1;
nodes = (
"438 51 LINE SMOOTH",
"438 14 OFFCURVE",
"455 0 OFFCURVE",
"478 0 CURVE SMOOTH",
"501 0 OFFCURVE",
"519 14 OFFCURVE",
"519 51 CURVE SMOOTH",
"519 422 LINE SMOOTH",
"519 459 OFFCURVE",
"502 473 OFFCURVE",
"478 473 CURVE SMOOTH",
"456 473 OFFCURVE",
"438 459 OFFCURVE",
"438 422 CURVE SMOOTH"
);
}
);
vertWidth = 0;
width = 600;
}
);
note = afii10093;
unicode = 044B;
},
{
glyphname = afii10094;
layers = (
{
layerId = "FB41A910-D058-4278-9D39-63B3F9D49349";
paths = (
{
closed = 1;
nodes = (
"212 234 LINE",
"327 234 LINE SMOOTH",
"386 234 OFFCURVE",
"415 205 OFFCURVE",
"415 154 CURVE SMOOTH",
"415 103 OFFCURVE",
"386 75 OFFCURVE",
"327 75 CURVE SMOOTH",
"212 75 LINE"
);
},
{
closed = 1;
nodes = (
"144 473 OFFCURVE",
"130 456 OFFCURVE",
"130 425 CURVE SMOOTH",
"130 71 LINE SMOOTH",
"130 25 OFFCURVE",
"155 0 OFFCURVE",
"201 0 CURVE SMOOTH",
"327 0 LINE SMOOTH",
"439 0 OFFCURVE",
"497 66 OFFCURVE",
"497 154 CURVE SMOOTH",
"497 242 OFFCURVE",
"439 309 OFFCURVE",
"327 309 CURVE SMOOTH",
"212 309 LINE",
"212 425 LINE SMOOTH",
"212 456 OFFCURVE",
"197 473 OFFCURVE",
"171 473 CURVE SMOOTH"
);
}
);
vertWidth = 0;
width = 600;
}
);
note = afii10094;
unicode = 044C;
},
{
glyphname = afii10095;
layers = (
{
layerId = "FB41A910-D058-4278-9D39-63B3F9D49349";
paths = (
{
closed = 1;
nodes = (
"130 416 OFFCURVE",
"138 404 OFFCURVE",
"162 404 CURVE SMOOTH",
"173 404 OFFCURVE",
"204 404 OFFCURVE",
"216 404 CURVE SMOOTH",
"331 404 OFFCURVE",
"398 357 OFFCURVE",
"398 276 CURVE SMOOTH",
"398 275 LINE",
"399 276 LINE",
"178 276 LINE SMOOTH",
"147 276 OFFCURVE",
"130 262 OFFCURVE",
"130 236 CURVE SMOOTH",
"130 210 OFFCURVE",
"147 196 OFFCURVE",
"178 196 CURVE SMOOTH",
"397 196 LINE",
"398 195 LINE",
"384 115 OFFCURVE",
"328 69 OFFCURVE",
"216 69 CURVE SMOOTH",
"211 69 OFFCURVE",
"206 69 OFFCURVE",
"202 69 CURVE SMOOTH",
"148 69 OFFCURVE",
"130 61 OFFCURVE",
"130 32 CURVE SMOOTH",
"130 5 OFFCURVE",
"141 -6 OFFCURVE",
"163 -9 CURVE SMOOTH",
"173 -10 OFFCURVE",
"204 -11 OFFCURVE",
"216 -11 CURVE SMOOTH",
"385 -11 OFFCURVE",
"486 86 OFFCURVE",
"486 237 CURVE SMOOTH",
"486 384 OFFCURVE",
"389 484 OFFCURVE",
"216 484 CURVE SMOOTH",
"208 484 OFFCURVE",
"180 484 OFFCURVE",
"173 483 CURVE SMOOTH",
"144 480 OFFCURVE",
"130 471 OFFCURVE",
"130 442 CURVE SMOOTH"
);
}
);
vertWidth = 0;
width = 600;
}
);
note = afii10095;
unicode = 044D;
},
{
glyphname = afii10096;
layers = (
{
layerId = "FB41A910-D058-4278-9D39-63B3F9D49349";
paths = (
{
closed = 1;
nodes = (
"479 -11 OFFCURVE",
"570 82 OFFCURVE",
"570 234 CURVE SMOOTH",
"570 389 OFFCURVE",
"472 484 OFFCURVE",
"375 484 CURVE SMOOTH",
"279 484 OFFCURVE",
"182 384 OFFCURVE",
"182 237 CURVE SMOOTH",
"182 86 OFFCURVE",
"279 -11 OFFCURVE",
"372 -11 CURVE SMOOTH"
);
},
{
closed = 1;
nodes = (
"326 69 OFFCURVE",
"267 131 OFFCURVE",
"267 237 CURVE SMOOTH",
"267 341 OFFCURVE",
"326 404 OFFCURVE",
"375 404 CURVE SMOOTH",
"425 404 OFFCURVE",
"485 344 OFFCURVE",
"485 235 CURVE SMOOTH",
"485 128 OFFCURVE",
"425 69 OFFCURVE",
"372 69 CURVE SMOOTH"
);
},
{
closed = 1;
nodes = (
"58 51 LINE SMOOTH",
"58 14 OFFCURVE",
"75 0 OFFCURVE",
"98 0 CURVE SMOOTH",
"121 0 OFFCURVE",
"139 14 OFFCURVE",
"139 51 CURVE SMOOTH",
"139 422 LINE SMOOTH",
"139 459 OFFCURVE",
"122 473 OFFCURVE",
"98 473 CURVE SMOOTH",
"76 473 OFFCURVE",
"58 459 OFFCURVE",
"58 422 CURVE SMOOTH"
);
},
{
closed = 1;
nodes = (
"123 277 LINE SMOOTH",
"86 277 OFFCURVE",
"72 260 OFFCURVE",
"72 237 CURVE SMOOTH",
"72 214 OFFCURVE",
"86 196 OFFCURVE",
"123 196 CURVE SMOOTH",
"204 196 LINE SMOOTH",
"241 196 OFFCURVE",
"255 213 OFFCURVE",
"255 237 CURVE SMOOTH",
"255 259 OFFCURVE",
"241 277 OFFCURVE",
"204 277 CURVE SMOOTH"
);
}
);
vertWidth = 0;
width = 600;
}
);
note = afii10096;
unicode = 044E;
},
{
glyphname = afii10097;
layers = (
{
layerId = "FB41A910-D058-4278-9D39-63B3F9D49349";
paths = (
{
closed = 1;
nodes = (
"400 239 LINE",
"265 239 LINE SMOOTH",
"206 239 OFFCURVE",
"177 268 OFFCURVE",
"177 319 CURVE SMOOTH",
"177 370 OFFCURVE",
"206 398 OFFCURVE",
"265 398 CURVE SMOOTH",
"400 398 LINE"
);
},
{
closed = 1;
nodes = (
"468 0 OFFCURVE",
"482 17 OFFCURVE",
"482 48 CURVE SMOOTH",
"482 402 LINE SMOOTH",
"482 448 OFFCURVE",
"457 473 OFFCURVE",
"411 473 CURVE SMOOTH",
"265 473 LINE SMOOTH",
"153 473 OFFCURVE",
"95 407 OFFCURVE",
"95 319 CURVE SMOOTH",
"95 231 OFFCURVE",
"153 164 OFFCURVE",
"265 164 CURVE SMOOTH",
"400 164 LINE",
"400 48 LINE SMOOTH",
"400 17 OFFCURVE",
"415 0 OFFCURVE",
"441 0 CURVE SMOOTH"
);
},
{
closed = 1;
nodes = (
"214 201 LINE",
"184 136 OFFCURVE",
"156 73 OFFCURVE",
"124 73 CURVE SMOOTH",
"88 73 OFFCURVE",
"80 55 OFFCURVE",
"80 35 CURVE SMOOTH",
"80 16 OFFCURVE",
"82 -2 OFFCURVE",
"133 -2 CURVE SMOOTH",
"210 -2 OFFCURVE",
"253 108 OFFCURVE",
"302 201 CURVE"
);
}
);
vertWidth = 0;
width = 600;
}
);
note = afii10097;
unicode = 044F;
},
{
glyphname = afii10100;
layers = (
{
anchors = (
{
name = _top;
position = "{289, 483}";
},
{
name = top;
position = "{308, 926}";
}
);
components = (
{
name = acutecomb;
transform = "{1, 0, 0, 1, 20, 0}";
}
);
layerId = "FB41A910-D058-4278-9D39-63B3F9D49349";
paths = (
{
closed = 1;
nodes = (
"130 51 LINE SMOOTH",
"130 14 OFFCURVE",
"147 0 OFFCURVE",
"170 0 CURVE SMOOTH",
"193 0 OFFCURVE",
"211 14 OFFCURVE",
"211 51 CURVE SMOOTH",
"211 422 LINE SMOOTH",
"211 459 OFFCURVE",
"194 473 OFFCURVE",
"170 473 CURVE SMOOTH",
"148 473 OFFCURVE",
"130 459 OFFCURVE",
"130 422 CURVE SMOOTH"
);
},
{
closed = 1;
nodes = (
"170 473 LINE",
"170 392 LINE",
"431 392 LINE SMOOTH",
"468 392 OFFCURVE",
"482 409 OFFCURVE",
"482 433 CURVE SMOOTH",
"482 455 OFFCURVE",
"468 473 OFFCURVE",
"431 473 CURVE SMOOTH"
);
}
);
vertWidth = 0;
width = 600;
}
);
note = afii10100;
unicode = 0453;
},
{
glyphname = afii10101;
layers = (
{
layerId = "FB41A910-D058-4278-9D39-63B3F9D49349";
paths = (
{
closed = 1;
nodes = (
"470 471 OFFCURVE",
"456 480 OFFCURVE",
"427 483 CURVE SMOOTH",
"420 484 OFFCURVE",
"392 484 OFFCURVE",
"384 484 CURVE SMOOTH",
"211 484 OFFCURVE",
"114 384 OFFCURVE",
"114 237 CURVE SMOOTH",
"114 86 OFFCURVE",
"215 -11 OFFCURVE",
"384 -11 CURVE SMOOTH",
"396 -11 OFFCURVE",
"427 -10 OFFCURVE",
"437 -9 CURVE SMOOTH",
"459 -6 OFFCURVE",
"470 5 OFFCURVE",
"470 32 CURVE SMOOTH",
"470 61 OFFCURVE",
"452 69 OFFCURVE",
"398 69 CURVE SMOOTH",
"394 69 OFFCURVE",
"389 69 OFFCURVE",
"384 69 CURVE SMOOTH",
"272 69 OFFCURVE",
"216 115 OFFCURVE",
"202 195 CURVE",
"203 196 LINE",
"422 196 LINE SMOOTH",
"453 196 OFFCURVE",
"470 210 OFFCURVE",
"470 236 CURVE SMOOTH",
"470 262 OFFCURVE",
"453 276 OFFCURVE",
"422 276 CURVE SMOOTH",
"201 276 LINE",
"202 275 LINE",
"202 276 LINE SMOOTH",
"202 357 OFFCURVE",
"269 404 OFFCURVE",
"384 404 CURVE SMOOTH",
"396 404 OFFCURVE",
"427 404 OFFCURVE",
"438 404 CURVE SMOOTH",
"462 404 OFFCURVE",
"470 416 OFFCURVE",
"470 442 CURVE SMOOTH"
);
}
);
vertWidth = 0;
width = 600;
}
);
note = afii10101;
unicode = 0454;
},
{
glyphname = afii10145;
layers = (
{
anchors = (
{
name = bottom;
position = "{310, 0}";
},
{
name = center;
position = "{310, 325}";
},
{
name = top;
position = "{310, 670}";
},
{
name = topleft;
position = "{304, 550}";
}
);
layerId = "FB41A910-D058-4278-9D39-63B3F9D49349";
paths = (
{
closed = 1;
nodes = (
"471 -4 LINE SMOOTH",
"508 -4 OFFCURVE",
"522 12 OFFCURVE",
"522 36 CURVE SMOOTH",
"522 60 OFFCURVE",
"508 76 OFFCURVE",
"471 76 CURVE SMOOTH",
"128 76 LINE SMOOTH",
"91 76 OFFCURVE",
"77 61 OFFCURVE",
"77 37 CURVE SMOOTH",
"77 13 OFFCURVE",
"91 -4 OFFCURVE",
"128 -4 CURVE SMOOTH"
);
},
{
closed = 1;
nodes = (
"158 598 LINE SMOOTH",
"158 636 OFFCURVE",
"141 650 OFFCURVE",
"115 650 CURVE SMOOTH",
"89 650 OFFCURVE",
"71 636 OFFCURVE",
"71 598 CURVE SMOOTH",
"71 52 LINE SMOOTH",
"71 14 OFFCURVE",
"88 0 OFFCURVE",
"114 0 CURVE SMOOTH",
"140 0 OFFCURVE",
"158 14 OFFCURVE",
"158 52 CURVE SMOOTH"
);
},
{
closed = 1;
nodes = (
"528 598 LINE SMOOTH",
"528 636 OFFCURVE",
"511 650 OFFCURVE",
"485 650 CURVE SMOOTH",
"459 650 OFFCURVE",
"441 636 OFFCURVE",
"441 598 CURVE SMOOTH",
"441 52 LINE SMOOTH",
"441 14 OFFCURVE",
"458 0 OFFCURVE",
"484 0 CURVE SMOOTH",
"510 0 OFFCURVE",
"528 14 OFFCURVE",
"528 52 CURVE SMOOTH"
);
},
{
closed = 1;
nodes = (
"260 -55 LINE SMOOTH",
"260 -92 OFFCURVE",
"276 -106 OFFCURVE",
"300 -106 CURVE SMOOTH",
"324 -106 OFFCURVE",
"340 -92 OFFCURVE",
"340 -55 CURVE SMOOTH",
"340 128 LINE SMOOTH",
"340 165 OFFCURVE",
"325 179 OFFCURVE",
"301 179 CURVE SMOOTH",
"277 179 OFFCURVE",
"260 165 OFFCURVE",
"260 128 CURVE SMOOTH"
);
}
);
vertWidth = 0;
width = 599;
}
);
note = afii10145;
unicode = 040F;
},
{
glyphname = alpha;
layers = (
{
layerId = "FB41A910-D058-4278-9D39-63B3F9D49349";
paths = (
{
closed = 1;
nodes = (
"153 352 OFFCURVE",
"229 392 OFFCURVE",
"289 392 CURVE SMOOTH",
"354 392 OFFCURVE",
"392 363 OFFCURVE",
"419 329 CURVE",
"419 167 LINE",
"402 120 OFFCURVE",
"354 78 OFFCURVE",
"289 78 CURVE SMOOTH",
"229 78 OFFCURVE",
"153 112 OFFCURVE",
"153 232 CURVE SMOOTH"
);
},
{
closed = 1;
nodes = (
"425 13 OFFCURVE",
"472 -11 OFFCURVE",
"506 -11 CURVE SMOOTH",
"532 -11 OFFCURVE",
"543 1 OFFCURVE",
"537 18 CURVE SMOOTH",
"530 34 OFFCURVE",
"507 53 OFFCURVE",
"507 102 CURVE SMOOTH",
"507 420 LINE SMOOTH",
"507 465 OFFCURVE",
"490 480 OFFCURVE",
"472 480 CURVE SMOOTH",
"455 480 OFFCURVE",
"437 463 OFFCURVE",
"424 439 CURVE",
"391 461 OFFCURVE",
"338 479 OFFCURVE",
"283 479 CURVE SMOOTH",
"171 479 OFFCURVE",
"65 385 OFFCURVE",
"65 232 CURVE SMOOTH",
"65 79 OFFCURVE",
"171 -10 OFFCURVE",
"273 -10 CURVE SMOOTH",
"339 -10 OFFCURVE",
"396 20 OFFCURVE",
"424 71 CURVE",
"424 58 LINE SMOOTH"
);
}
);
vertWidth = 0;
width = 600;
}
);
note = alpha;
unicode = 03B1;
},
{
glyphname = alphatonos;
layers = (
{
anchors = (
{
name = _top;
position = "{289, 483}";
},
{
name = top;
position = "{308, 926}";
}
);
components = (
{
name = acutecomb;
transform = "{1, 0, 0, 1, 20, 0}";
}
);
layerId = "FB41A910-D058-4278-9D39-63B3F9D49349";
paths = (
{
closed = 1;
nodes = (
"153 352 OFFCURVE",
"229 392 OFFCURVE",
"289 392 CURVE SMOOTH",
"354 392 OFFCURVE",
"392 363 OFFCURVE",
"419 329 CURVE",
"419 167 LINE",
"402 120 OFFCURVE",
"354 78 OFFCURVE",
"289 78 CURVE SMOOTH",
"229 78 OFFCURVE",
"153 112 OFFCURVE",
"153 232 CURVE SMOOTH"
);
},
{
closed = 1;
nodes = (
"425 13 OFFCURVE",
"472 -11 OFFCURVE",
"506 -11 CURVE SMOOTH",
"532 -11 OFFCURVE",
"543 1 OFFCURVE",
"537 18 CURVE SMOOTH",
"530 34 OFFCURVE",
"507 53 OFFCURVE",
"507 102 CURVE SMOOTH",
"507 420 LINE SMOOTH",
"507 465 OFFCURVE",
"490 480 OFFCURVE",
"472 480 CURVE SMOOTH",
"455 480 OFFCURVE",
"437 463 OFFCURVE",
"424 439 CURVE",
"391 461 OFFCURVE",
"338 479 OFFCURVE",
"283 479 CURVE SMOOTH",
"171 479 OFFCURVE",
"65 385 OFFCURVE",
"65 232 CURVE SMOOTH",
"65 79 OFFCURVE",
"171 -10 OFFCURVE",
"273 -10 CURVE SMOOTH",
"339 -10 OFFCURVE",
"396 20 OFFCURVE",
"424 71 CURVE",
"424 58 LINE SMOOTH"
);
}
);
vertWidth = 0;
width = 600;
}
);
note = alphatonos;
unicode = 03AC;
},
{
glyphname = ampersand;
layers = (
{
layerId = "FB41A910-D058-4278-9D39-63B3F9D49349";
paths = (
{
closed = 1;
nodes = (
"525 175 LINE",
"543 153 OFFCURVE",
"540 131 OFFCURVE",
"516 114 CURVE SMOOTH",
"478 86 LINE",
"496 63 LINE SMOOTH",
"514 40 OFFCURVE",
"512 18 OFFCURVE",
"489 2 CURVE",
"489 2 LINE",
"466 -14 OFFCURVE",
"444 -11 OFFCURVE",
"427 12 CURVE SMOOTH",
"408 38 LINE",
"369 9 OFFCURVE",
"323.667 -11 OFFCURVE",
"263 -11 CURVE SMOOTH",
"158 -11 OFFCURVE",
"56 38 OFFCURVE",
"56 150 CURVE SMOOTH",
"56 210 OFFCURVE",
"103.333 280.333 OFFCURVE",
"198 361 CURVE",
"176 389 OFFCURVE",
"110 465 OFFCURVE",
"110 540 CURVE SMOOTH",
"110 632 OFFCURVE",
"193 683 OFFCURVE",
"285 683 CURVE SMOOTH",
"356 683 OFFCURVE",
"452 645 OFFCURVE",
"452 554 CURVE SMOOTH",
"452 488 OFFCURVE",
"404 422 OFFCURVE",
"319 357 CURVE",
"438 166 LINE",
"462 183 LINE SMOOTH",
"485 200 OFFCURVE",
"507 197 OFFCURVE",
"525 175 CURVE"
);
},
{
closed = 1;
nodes = (
"360 583 OFFCURVE",
"320 605 OFFCURVE",
"281 605 CURVE SMOOTH",
"249 605 OFFCURVE",
"205 583 OFFCURVE",
"205 533 CURVE SMOOTH",
"205 485 OFFCURVE",
"251 433 OFFCURVE",
"266 417 CURVE",
"298 437 OFFCURVE",
"360 495 OFFCURVE",
"360 543 CURVE SMOOTH"
);
},
{
closed = 1;
nodes = (
"199.333 254.667 OFFCURVE",
"148.333 195.333 OFFCURVE",
"151 146 CURVE",
"148.333 96.667 OFFCURVE",
"195.667 71 OFFCURVE",
"249 71 CURVE SMOOTH",
"297.667 71 OFFCURVE",
"331 87 OFFCURVE",
"359 111 CURVE",
"250 288 LINE",
"250 288 LINE"
);
}
);
vertWidth = 0;
width = 600;
}
);
note = ampersand;
unicode = 0026;
},
{
glyphname = anoteleia;
layers = (
{
layerId = "FB41A910-D058-4278-9D39-63B3F9D49349";
paths = (
{
closed = 1;
nodes = (
"349 230 OFFCURVE",
"387 268 OFFCURVE",
"387 314 CURVE",
"387 360 OFFCURVE",
"349 397 OFFCURVE",
"303 397 CURVE",
"257 397 OFFCURVE",
"219 360 OFFCURVE",
"219 314 CURVE",
"219 268 OFFCURVE",
"257 230 OFFCURVE",
"303 230 CURVE"
);
}
);
vertWidth = 0;
width = 600;
}
);
note = anoteleia;
unicode = 0387;
},
{
glyphname = aogonek;
layers = (
{
anchors = (
{
name = bottom;
position = "{259, -10}";
},
{
name = ogonek;
position = "{259, 10}";
},
{
name = top;
position = "{296, 483}";
}
);
layerId = "FB41A910-D058-4278-9D39-63B3F9D49349";
paths = (
{
closed = 1;
nodes = (
"333 -10 OFFCURVE",
"393 31 OFFCURVE",
"429 85 CURVE",
"487 95 LINE",
"487 165 OFFCURVE",
"482 315 OFFCURVE",
"412 304 CURVE",
"423 269 LINE",
"382 290 OFFCURVE",
"349 307 OFFCURVE",
"279 307 CURVE SMOOTH",
"174 307 OFFCURVE",
"95 246 OFFCURVE",
"95 152 CURVE SMOOTH",
"95 42 OFFCURVE",
"181 -10 OFFCURVE",
"269 -10 CURVE SMOOTH"
);
},
{
closed = 1;
nodes = (
"235 68 OFFCURVE",
"175 84 OFFCURVE",
"175 152 CURVE SMOOTH",
"175 203 OFFCURVE",
"219 244 OFFCURVE",
"284 244 CURVE SMOOTH",
"341 244 OFFCURVE",
"377 232 OFFCURVE",
"411 209 CURVE",
"411 140 LINE",
"373 91 OFFCURVE",
"322 68 OFFCURVE",
"281 68 CURVE SMOOTH"
);
},
{
closed = 1;
nodes = (
"372 404 OFFCURVE",
"408 373 OFFCURVE",
"408 281 CURVE SMOOTH",
"408 50 LINE",
"409 21 LINE",
"375 -26 OFFCURVE",
"365 -46 OFFCURVE",
"365 -86 CURVE SMOOTH",
"365 -136 OFFCURVE",
"409 -177 OFFCURVE",
"478 -153 CURVE SMOOTH",
"505 -144 OFFCURVE",
"513 -127 OFFCURVE",
"511 -110 CURVE SMOOTH",
"509 -95 OFFCURVE",
"497 -84 OFFCURVE",
"479 -91 CURVE SMOOTH",
"442 -106 OFFCURVE",
"429 -94 OFFCURVE",
"429 -75 CURVE SMOOTH",
"429 -56 OFFCURVE",
"455 -11 OFFCURVE",
"484 17 CURVE SMOOTH",
"487 20 OFFCURVE",
"488 23 OFFCURVE",
"488 26 CURVE SMOOTH",
"491 281 LINE SMOOTH",
"491 397 OFFCURVE",
"434 483 OFFCURVE",
"306 483 CURVE SMOOTH",
"159 483 OFFCURVE",
"263 404 OFFCURVE",
"304 404 CURVE SMOOTH"
);
},
{
closed = 1;
nodes = (
"198 381 OFFCURVE",
"236 404 OFFCURVE",
"304 404 CURVE",
"306 483 LINE",
"215 483 OFFCURVE",
"165 457 OFFCURVE",
"142 443 CURVE SMOOTH",
"116 427 OFFCURVE",
"104 406 OFFCURVE",
"118 381 CURVE SMOOTH",
"132 357 OFFCURVE",
"153 355 OFFCURVE",
"175 368 CURVE SMOOTH"
);
}
);
vertWidth = 0;
width = 600;
}
);
note = "";
unicode = 0105;
},
{
glyphname = approxequal;
layers = (
{
layerId = "FB41A910-D058-4278-9D39-63B3F9D49349";
paths = (
{
closed = 1;
nodes = (
"534 449 OFFCURVE",
"530 482 OFFCURVE",
"506 499 CURVE SMOOTH",
"483 516 OFFCURVE",
"460 506 OFFCURVE",
"437 488 CURVE SMOOTH",
"419 474 OFFCURVE",
"401 464 OFFCURVE",
"392 462 CURVE SMOOTH",
"317 442 OFFCURVE",
"255 536 OFFCURVE",
"152 509 CURVE SMOOTH",
"122 501 OFFCURVE",
"98 487 OFFCURVE",
"82 471 CURVE SMOOTH",
"56 445 OFFCURVE",
"53 413 OFFCURVE",
"76 394 CURVE SMOOTH",
"95 378 OFFCURVE",
"121 375 OFFCURVE",
"139 393 CURVE SMOOTH",
"143 397 OFFCURVE",
"156 407 OFFCURVE",
"172 413 CURVE SMOOTH",
"249 439 OFFCURVE",
"326 348 OFFCURVE",
"413 366 CURVE SMOOTH",
"441 372 OFFCURVE",
"486 402 OFFCURVE",
"509 423 CURVE SMOOTH"
);
},
{
closed = 1;
nodes = (
"534 209 OFFCURVE",
"530 242 OFFCURVE",
"506 259 CURVE SMOOTH",
"483 276 OFFCURVE",
"460 266 OFFCURVE",
"437 248 CURVE SMOOTH",
"419 234 OFFCURVE",
"401 224 OFFCURVE",
"392 222 CURVE SMOOTH",
"317 202 OFFCURVE",
"255 296 OFFCURVE",
"152 269 CURVE SMOOTH",
"122 261 OFFCURVE",
"98 247 OFFCURVE",
"82 231 CURVE SMOOTH",
"56 205 OFFCURVE",
"53 173 OFFCURVE",
"76 154 CURVE SMOOTH",
"95 138 OFFCURVE",
"121 135 OFFCURVE",
"139 153 CURVE SMOOTH",
"143 157 OFFCURVE",
"156 167 OFFCURVE",
"172 173 CURVE SMOOTH",
"249 199 OFFCURVE",
"326 108 OFFCURVE",
"413 126 CURVE SMOOTH",
"441 132 OFFCURVE",
"486 162 OFFCURVE",
"509 183 CURVE SMOOTH"
);
}
);
vertWidth = 0;
width = 600;
}
);
note = approxequal;
unicode = 2248;
},
{
glyphname = arrowboth;
layers = (
{
layerId = "FB41A910-D058-4278-9D39-63B3F9D49349";
paths = (
{
closed = 1;
nodes = (
"399 280 LINE",
"372 255 OFFCURVE",
"354 227 OFFCURVE",
"344 184 CURVE SMOOTH",
"341 172 OFFCURVE",
"350 165 OFFCURVE",
"360 173 CURVE SMOOTH",
"435 231 OFFCURVE",
"502 270 OFFCURVE",
"572 299 CURVE SMOOTH",
"596 309 OFFCURVE",
"596 337 OFFCURVE",
"572 347 CURVE SMOOTH",
"502 376 OFFCURVE",
"435 413 OFFCURVE",
"360 473 CURVE SMOOTH",
"350 480 OFFCURVE",
"341 474 OFFCURVE",
"344 462 CURVE SMOOTH",
"354 419 OFFCURVE",
"372 391 OFFCURVE",
"399 366 CURVE",
"201 366 LINE",
"228 391 OFFCURVE",
"246 419 OFFCURVE",
"256 462 CURVE SMOOTH",
"259 474 OFFCURVE",
"250 480 OFFCURVE",
"240 473 CURVE SMOOTH",
"165 413 OFFCURVE",
"98 376 OFFCURVE",
"28 347 CURVE SMOOTH",
"4 337 OFFCURVE",
"4 309 OFFCURVE",
"28 299 CURVE SMOOTH",
"98 270 OFFCURVE",
"165 231 OFFCURVE",
"240 173 CURVE SMOOTH",
"250 165 OFFCURVE",
"259 172 OFFCURVE",
"256 184 CURVE SMOOTH",
"246 227 OFFCURVE",
"228 255 OFFCURVE",
"201 280 CURVE"
);
}
);
vertWidth = 0;
width = 600;
}
);
note = arrowboth;
unicode = 2194;
},
{
glyphname = arrowdblleft;
layers = (
{
layerId = "FB41A910-D058-4278-9D39-63B3F9D49349";
paths = (
{
closed = 1;
nodes = (
"285 432 LINE SMOOTH",
"303 449 OFFCURVE",
"303 467 OFFCURVE",
"285 485 CURVE SMOOTH",
"266 504 OFFCURVE",
"246 504 OFFCURVE",
"226 485 CURVE SMOOTH",
"5 264 LINE",
"226 43 LINE SMOOTH",
"246 24 OFFCURVE",
"266 24 OFFCURVE",
"285 43 CURVE SMOOTH",
"303 61 OFFCURVE",
"303 79 OFFCURVE",
"285 96 CURVE SMOOTH",
"235 146 LINE",
"515 146 LINE SMOOTH",
"542 146 OFFCURVE",
"557 160 OFFCURVE",
"557 186 CURVE",
"557 186 LINE",
"557 211 OFFCURVE",
"542 225 OFFCURVE",
"515 225 CURVE SMOOTH",
"156 225 LINE",
"117 264 LINE",
"157 304 LINE",
"515 304 LINE SMOOTH",
"542 304 OFFCURVE",
"557 318 OFFCURVE",
"557 344 CURVE",
"557 344 LINE",
"557 369 OFFCURVE",
"542 383 OFFCURVE",
"515 383 CURVE SMOOTH",
"236 383 LINE",
"236 383 LINE"
);
}
);
vertWidth = 0;
width = 600;
}
);
note = arrowdblleft;
unicode = 21D0;
},
{
glyphname = arrowdown;
layers = (
{
layerId = "FB41A910-D058-4278-9D39-63B3F9D49349";
paths = (
{
closed = 1;
nodes = (
"328 646 OFFCURVE",
"343 630 OFFCURVE",
"343 602 CURVE SMOOTH",
"343 196 LINE",
"368 223 OFFCURVE",
"396 241 OFFCURVE",
"439 251 CURVE SMOOTH",
"451 254 OFFCURVE",
"457 245 OFFCURVE",
"450 235 CURVE SMOOTH",
"390 160 OFFCURVE",
"353 93 OFFCURVE",
"324 23 CURVE SMOOTH",
"314 -1 OFFCURVE",
"286 -1 OFFCURVE",
"276 23 CURVE SMOOTH",
"247 93 OFFCURVE",
"208 160 OFFCURVE",
"150 235 CURVE SMOOTH",
"142 245 OFFCURVE",
"149 254 OFFCURVE",
"161 251 CURVE SMOOTH",
"204 241 OFFCURVE",
"232 223 OFFCURVE",
"257 196 CURVE",
"257 602 LINE SMOOTH",
"257 630 OFFCURVE",
"272 646 OFFCURVE",
"300 646 CURVE SMOOTH"
);
}
);
vertWidth = 0;
width = 600;
}
);
note = arrowdown;
unicode = 2193;
},
{
glyphname = arrowleft;
layers = (
{
layerId = "FB41A910-D058-4278-9D39-63B3F9D49349";
paths = (
{
closed = 1;
nodes = (
"556 295 OFFCURVE",
"540 280 OFFCURVE",
"512 280 CURVE SMOOTH",
"226 280 LINE",
"253 255 OFFCURVE",
"271 227 OFFCURVE",
"281 184 CURVE SMOOTH",
"284 172 OFFCURVE",
"275 165 OFFCURVE",
"265 173 CURVE SMOOTH",
"190 231 OFFCURVE",
"123 270 OFFCURVE",
"53 299 CURVE SMOOTH",
"29 309 OFFCURVE",
"29 337 OFFCURVE",
"53 347 CURVE SMOOTH",
"123 376 OFFCURVE",
"190 413 OFFCURVE",
"265 473 CURVE SMOOTH",
"275 480 OFFCURVE",
"284 474 OFFCURVE",
"281 462 CURVE SMOOTH",
"271 419 OFFCURVE",
"253 391 OFFCURVE",
"226 366 CURVE",
"512 366 LINE SMOOTH",
"540 366 OFFCURVE",
"556 351 OFFCURVE",
"556 323 CURVE SMOOTH"
);
}
);
vertWidth = 0;
width = 600;
}
);
note = arrowleft;
unicode = 2190;
},
{
glyphname = arrowright;
layers = (
{
layerId = "FB41A910-D058-4278-9D39-63B3F9D49349";
paths = (
{
closed = 1;
nodes = (
"44 351 OFFCURVE",
"60 366 OFFCURVE",
"88 366 CURVE SMOOTH",
"374 366 LINE",
"347 391 OFFCURVE",
"329 419 OFFCURVE",
"319 462 CURVE SMOOTH",
"316 474 OFFCURVE",
"325 480 OFFCURVE",
"335 473 CURVE SMOOTH",
"410 413 OFFCURVE",
"477 376 OFFCURVE",
"547 347 CURVE SMOOTH",
"571 337 OFFCURVE",
"571 309 OFFCURVE",
"547 299 CURVE SMOOTH",
"477 270 OFFCURVE",
"410 231 OFFCURVE",
"335 173 CURVE SMOOTH",
"325 165 OFFCURVE",
"316 172 OFFCURVE",
"319 184 CURVE SMOOTH",
"329 227 OFFCURVE",
"347 255 OFFCURVE",
"374 280 CURVE",
"88 280 LINE SMOOTH",
"60 280 OFFCURVE",
"44 295 OFFCURVE",
"44 323 CURVE SMOOTH"
);
}
);
vertWidth = 0;
width = 600;
}
);
note = arrowright;
unicode = 2192;
},
{
glyphname = arrowup;
layers = (
{
layerId = "FB41A910-D058-4278-9D39-63B3F9D49349";
paths = (
{
closed = 1;
nodes = (
"272 -1 OFFCURVE",
"257 15 OFFCURVE",
"257 43 CURVE SMOOTH",
"257 449 LINE",
"232 422 OFFCURVE",
"204 404 OFFCURVE",
"161 394 CURVE SMOOTH",
"149 391 OFFCURVE",
"142 400 OFFCURVE",
"150 410 CURVE SMOOTH",
"208 485 OFFCURVE",
"247 552 OFFCURVE",
"276 622 CURVE SMOOTH",
"286 646 OFFCURVE",
"314 646 OFFCURVE",
"324 622 CURVE SMOOTH",
"353 552 OFFCURVE",
"390 485 OFFCURVE",
"450 410 CURVE SMOOTH",
"457 400 OFFCURVE",
"451 391 OFFCURVE",
"439 394 CURVE SMOOTH",
"396 404 OFFCURVE",
"368 422 OFFCURVE",
"343 449 CURVE",
"343 43 LINE SMOOTH",
"343 15 OFFCURVE",
"328 -1 OFFCURVE",
"300 -1 CURVE SMOOTH"
);
}
);
vertWidth = 0;
width = 600;
}
);
note = arrowup;
unicode = 2191;
},
{
glyphname = arrowupdn;
layers = (
{
layerId = "FB41A910-D058-4278-9D39-63B3F9D49349";
paths = (
{
closed = 1;
nodes = (
"257 194 LINE",
"232 221 OFFCURVE",
"204 239 OFFCURVE",
"161 249 CURVE SMOOTH",
"149 252 OFFCURVE",
"142 243 OFFCURVE",
"150 233 CURVE SMOOTH",
"208 158 OFFCURVE",
"247 91 OFFCURVE",
"276 21 CURVE SMOOTH",
"286 -3 OFFCURVE",
"314 -3 OFFCURVE",
"324 21 CURVE SMOOTH",
"353 91 OFFCURVE",
"390 158 OFFCURVE",
"450 233 CURVE SMOOTH",
"457 243 OFFCURVE",
"451 252 OFFCURVE",
"439 249 CURVE SMOOTH",
"396 239 OFFCURVE",
"368 221 OFFCURVE",
"343 194 CURVE",
"343 451 LINE",
"368 424 OFFCURVE",
"396 406 OFFCURVE",
"439 396 CURVE SMOOTH",
"451 393 OFFCURVE",
"457 402 OFFCURVE",
"450 412 CURVE SMOOTH",
"390 487 OFFCURVE",
"353 554 OFFCURVE",
"324 624 CURVE SMOOTH",
"314 648 OFFCURVE",
"286 648 OFFCURVE",
"276 624 CURVE SMOOTH",
"247 554 OFFCURVE",
"208 487 OFFCURVE",
"150 412 CURVE SMOOTH",
"142 402 OFFCURVE",
"149 393 OFFCURVE",
"161 396 CURVE SMOOTH",
"204 406 OFFCURVE",
"232 424 OFFCURVE",
"257 451 CURVE"
);
}
);
vertWidth = 0;
width = 600;
}
);
note = arrowupdn;
unicode = 2195;
},
{
glyphname = asciicircum;
layers = (
{
layerId = "FB41A910-D058-4278-9D39-63B3F9D49349";
paths = (
{
closed = 1;
nodes = (
"437 413 OFFCURVE",
"460 409 OFFCURVE",
"478 419 CURVE SMOOTH",
"498 431 OFFCURVE",
"510 459 OFFCURVE",
"494 478 CURVE SMOOTH",
"338 662 LINE SMOOTH",
"315 689 OFFCURVE",
"279 688 OFFCURVE",
"256 661 CURVE SMOOTH",
"98 475 LINE SMOOTH",
"82 456 OFFCURVE",
"95 431 OFFCURVE",
"115 419 CURVE SMOOTH",
"137 407 OFFCURVE",
"158 415 OFFCURVE",
"174 434 CURVE SMOOTH",
"297 579 LINE",
"421 432 LINE SMOOTH"
);
}
);
vertWidth = 0;
width = 600;
}
);
note = asciicircum;
unicode = 005E;
},
{
glyphname = asciicircum.001;
layers = (
{
layerId = "FB41A910-D058-4278-9D39-63B3F9D49349";
paths = (
{
closed = 1;
nodes = (
"437 413 OFFCURVE",
"460 409 OFFCURVE",
"478 419 CURVE SMOOTH",
"498 431 OFFCURVE",
"510 459 OFFCURVE",
"494 478 CURVE SMOOTH",
"338 662 LINE SMOOTH",
"315 689 OFFCURVE",
"279 688 OFFCURVE",
"256 661 CURVE SMOOTH",
"98 475 LINE SMOOTH",
"82 456 OFFCURVE",
"95 431 OFFCURVE",
"115 419 CURVE SMOOTH",
"137 407 OFFCURVE",
"158 415 OFFCURVE",
"174 434 CURVE SMOOTH",
"297 579 LINE",
"421 432 LINE SMOOTH"
);
}
);
vertWidth = 0;
width = 600;
}
);
note = asciicircum;
},
{
glyphname = asciitilde;
layers = (
{
layerId = "FB41A910-D058-4278-9D39-63B3F9D49349";
paths = (
{
closed = 1;
nodes = (
"333 331 OFFCURVE",
"309 431 OFFCURVE",
"198 431 CURVE SMOOTH",
"118 431 OFFCURVE",
"55 382 OFFCURVE",
"55 298 CURVE SMOOTH",
"55 261 OFFCURVE",
"73 246 OFFCURVE",
"93 246 CURVE SMOOTH",
"118 246 OFFCURVE",
"133 261 OFFCURVE",
"133 294 CURVE SMOOTH",
"133 333 OFFCURVE",
"165 350 OFFCURVE",
"200 348 CURVE SMOOTH",
"283 343 OFFCURVE",
"306 246 OFFCURVE",
"412 246 CURVE SMOOTH",
"482 246 OFFCURVE",
"545 308 OFFCURVE",
"545 387 CURVE SMOOTH",
"545 418 OFFCURVE",
"532 431 OFFCURVE",
"507 431 CURVE SMOOTH",
"482 431 OFFCURVE",
"467 416 OFFCURVE",
"467 383 CURVE SMOOTH",
"467 353 OFFCURVE",
"448 331 OFFCURVE",
"403 331 CURVE SMOOTH"
);
}
);
vertWidth = 0;
width = 600;
}
);
note = asciitilde;
unicode = 007E;
},
{
glyphname = asterisk;
layers = (
{
layerId = "FB41A910-D058-4278-9D39-63B3F9D49349";
paths = (
{
closed = 1;
nodes = (
"346 535 OFFCURVE",
"322 554 OFFCURVE",
"299 554 CURVE SMOOTH",
"274 554 OFFCURVE",
"252 533 OFFCURVE",
"252 507 CURVE SMOOTH",
"252 400 LINE",
"145 439 LINE SMOOTH",
"122 448 OFFCURVE",
"96 429 OFFCURVE",
"90 407 CURVE SMOOTH",
"82 383 OFFCURVE",
"96 357 OFFCURVE",
"119 349 CURVE SMOOTH",
"223 310 LINE",
"153 220 LINE SMOOTH",
"139 199 OFFCURVE",
"148 170 OFFCURVE",
"167 157 CURVE SMOOTH",
"188 143 OFFCURVE",
"217 147 OFFCURVE",
"231 167 CURVE SMOOTH",
"299 255 LINE",
"367 167 LINE SMOOTH",
"381 147 OFFCURVE",
"410 143 OFFCURVE",
"431 157 CURVE SMOOTH",
"450 170 OFFCURVE",
"459 199 OFFCURVE",
"445 220 CURVE SMOOTH",
"375 310 LINE",
"479 349 LINE SMOOTH",
"502 357 OFFCURVE",
"516 383 OFFCURVE",
"508 407 CURVE SMOOTH",
"502 429 OFFCURVE",
"476 448 OFFCURVE",
"453 439 CURVE SMOOTH",
"346 400 LINE",
"346 510 LINE SMOOTH"
);
}
);
vertWidth = 0;
width = 600;
}
);
note = asterisk;
unicode = 002A;
},
{
glyphname = at;
layers = (
{
layerId = "FB41A910-D058-4278-9D39-63B3F9D49349";
paths = (
{
closed = 1;
nodes = (
"388 407 LINE",
"366 407 OFFCURVE",
"354 393 OFFCURVE",
"354 368 CURVE SMOOTH",
"354 364 OFFCURVE",
"354 330 OFFCURVE",
"354 326 CURVE SMOOTH",
"350 285 OFFCURVE",
"329 266 OFFCURVE",
"294 266 CURVE SMOOTH",
"269 266 OFFCURVE",
"241 286 OFFCURVE",
"241 334 CURVE SMOOTH",
"241 371 OFFCURVE",
"255 428 OFFCURVE",
"343 429 CURVE SMOOTH",
"375 429 OFFCURVE",
"386 440 OFFCURVE",
"385 460 CURVE SMOOTH",
"384 485 OFFCURVE",
"361 494 OFFCURVE",
"339 494 CURVE SMOOTH",
"208 495 OFFCURVE",
"170 405 OFFCURVE",
"170 334 CURVE SMOOTH",
"170 231 OFFCURVE",
"243 196 OFFCURVE",
"287 196 CURVE SMOOTH",
"330 196 OFFCURVE",
"362 223 OFFCURVE",
"377 259 CURVE",
"366 289 LINE",
"367 241 LINE",
"369 190 OFFCURVE",
"420 177 OFFCURVE",
"455 177 CURVE SMOOTH",
"548 177 OFFCURVE",
"581 300 OFFCURVE",
"581 365 CURVE SMOOTH",
"581 521 OFFCURVE",
"512 659 OFFCURVE",
"313 659 CURVE SMOOTH",
"107 659 OFFCURVE",
"20 501 OFFCURVE",
"20 331 CURVE SMOOTH",
"20 132 OFFCURVE",
"116 -10 OFFCURVE",
"323 -10 CURVE SMOOTH",
"406 -10 OFFCURVE",
"472 12 OFFCURVE",
"519 46 CURVE SMOOTH",
"546 66 OFFCURVE",
"550 88 OFFCURVE",
"533 108 CURVE SMOOTH",
"514 129 OFFCURVE",
"494 130 OFFCURVE",
"467 111 CURVE SMOOTH",
"437 90 OFFCURVE",
"391 72 OFFCURVE",
"323 72 CURVE SMOOTH",
"168 72 OFFCURVE",
"101 170 OFFCURVE",
"101 331 CURVE SMOOTH",
"101 488 OFFCURVE",
"161 578 OFFCURVE",
"313 578 CURVE SMOOTH",
"468 578 OFFCURVE",
"503 471 OFFCURVE",
"503 364 CURVE SMOOTH",
"503 321 OFFCURVE",
"490 245 OFFCURVE",
"452 245 CURVE SMOOTH",
"431 245 OFFCURVE",
"422 279 OFFCURVE",
"422 315 CURVE SMOOTH",
"422 368 LINE SMOOTH",
"422 393 OFFCURVE",
"410 407 OFFCURVE",
"388 407 CURVE"
);
}
);
vertWidth = 0;
width = 600;
}
);
note = at;
unicode = 0040;
},
{
glyphname = b;
layers = (
{
layerId = "FB41A910-D058-4278-9D39-63B3F9D49349";
paths = (
{
closed = 1;
nodes = (
"196 651 OFFCURVE",
"178 665 OFFCURVE",
"155 665 CURVE SMOOTH",
"130 665 OFFCURVE",
"113 651 OFFCURVE",
"113 614 CURVE SMOOTH",
"113 50 LINE SMOOTH",
"113 13 OFFCURVE",
"131 -1 OFFCURVE",
"155 -1 CURVE SMOOTH",
"179 -1 OFFCURVE",
"196 13 OFFCURVE",
"196 50 CURVE SMOOTH",
"196 614 LINE SMOOTH"
);
},
{
closed = 1;
nodes = (
"441 116 OFFCURVE",
"385 66 OFFCURVE",
"327 66 CURVE SMOOTH",
"263 66 OFFCURVE",
"220 101 OFFCURVE",
"178 167 CURVE",
"178 72 LINE",
"212 26 OFFCURVE",
"253 -10 OFFCURVE",
"346 -10 CURVE SMOOTH",
"428 -10 OFFCURVE",
"535 57 OFFCURVE",
"535 233 CURVE SMOOTH",
"535 387 OFFCURVE",
"448 483 OFFCURVE",
"343 483 CURVE SMOOTH",
"243 483 OFFCURVE",
"190 430 OFFCURVE",
"175 382 CURVE",
"196 288 LINE",
"214 353 OFFCURVE",
"259 404 OFFCURVE",
"326 404 CURVE SMOOTH",
"386 404 OFFCURVE",
"441 352 OFFCURVE",
"441 233 CURVE SMOOTH"
);
}
);
vertWidth = 0;
width = 600;
}
);
note = b;
unicode = 0062;
},
{
glyphname = backslash;
layers = (
{
layerId = "FB41A910-D058-4278-9D39-63B3F9D49349";
paths = (
{
closed = 1;
nodes = (
"416 -76 LINE SMOOTH",
"429 -103 OFFCURVE",
"456 -114 OFFCURVE",
"481 -102 CURVE SMOOTH",
"505 -91 OFFCURVE",
"515 -63 OFFCURVE",
"502 -36 CURVE SMOOTH",
"132 720 LINE SMOOTH",
"119 746 OFFCURVE",
"92 757 OFFCURVE",
"67 746 CURVE SMOOTH",
"43 734 OFFCURVE",
"33 706 OFFCURVE",
"46 679 CURVE SMOOTH"
);
}
);
vertWidth = 0;
width = 600;
}
);
note = backslash;
unicode = 005C;
},
{
glyphname = bar;
layers = (
{
layerId = "FB41A910-D058-4278-9D39-63B3F9D49349";
paths = (
{
closed = 1;
nodes = (
"274 -113 OFFCURVE",
"256 -91 OFFCURVE",
"256 -62 CURVE SMOOTH",
"256 703 LINE SMOOTH",
"256 732 OFFCURVE",
"275 754 OFFCURVE",
"300 754 CURVE SMOOTH",
"325 754 OFFCURVE",
"343 732 OFFCURVE",
"343 703 CURVE SMOOTH",
"343 -62 LINE SMOOTH",
"343 -91 OFFCURVE",
"325 -113 OFFCURVE",
"300 -113 CURVE SMOOTH"
);
}
);
vertWidth = 0;
width = 600;
}
);
note = bar;
unicode = 007C;
},
{
glyphname = beta;
layers = (
{
layerId = "FB41A910-D058-4278-9D39-63B3F9D49349";
paths = (
{
closed = 1;
nodes = (
"181 22 OFFCURVE",
"251 0 OFFCURVE",
"305 0 CURVE SMOOTH",
"418 0 OFFCURVE",
"515 60 OFFCURVE",
"515 174 CURVE SMOOTH",
"515 253 OFFCURVE",
"477 317 OFFCURVE",
"391 341 CURVE",
"477 371 OFFCURVE",
"496 441 OFFCURVE",
"496 492 CURVE SMOOTH",
"496 586 OFFCURVE",
"427 646 OFFCURVE",
"305 646 CURVE SMOOTH",
"198 646 OFFCURVE",
"101 582 OFFCURVE",
"101 418 CURVE SMOOTH",
"101 -196 LINE SMOOTH",
"101 -224 OFFCURVE",
"117 -240 OFFCURVE",
"142 -240 CURVE SMOOTH",
"169 -240 OFFCURVE",
"182 -224 OFFCURVE",
"182 -196 CURVE SMOOTH",
"182 428 LINE SMOOTH",
"182 528 OFFCURVE",
"237 567 OFFCURVE",
"312 567 CURVE SMOOTH",
"372 567 OFFCURVE",
"413 544 OFFCURVE",
"413 492 CURVE SMOOTH",
"413 439 OFFCURVE",
"378 387 OFFCURVE",
"287 377 CURVE SMOOTH",
"261 374 OFFCURVE",
"236 362 OFFCURVE",
"236 335 CURVE SMOOTH",
"236 309 OFFCURVE",
"261 296 OFFCURVE",
"287 293 CURVE SMOOTH",
"379 283 OFFCURVE",
"435 256 OFFCURVE",
"435 184 CURVE SMOOTH",
"435 106 OFFCURVE",
"355 84 OFFCURVE",
"293 84 CURVE SMOOTH",
"239 84 OFFCURVE",
"173 110 OFFCURVE",
"152 122 CURVE",
"152 44 LINE"
);
}
);
vertWidth = 0;
width = 600;
}
);
note = beta;
unicode = 03B2;
},
{
glyphname = block;
layers = (
{
layerId = "FB41A910-D058-4278-9D39-63B3F9D49349";
paths = (
{
closed = 1;
nodes = (
"599 -239 LINE",
"0 -239 LINE",
"0 910 LINE",
"599 910 LINE",
"599 910 LINE"
);
}
);
vertWidth = 0;
width = 600;
}
);
note = block;
unicode = 2588;
},
{
glyphname = braceleft;
layers = (
{
layerId = "FB41A910-D058-4278-9D39-63B3F9D49349";
paths = (
{
closed = 1;
nodes = (
"327 288 OFFCURVE",
"326 222 OFFCURVE",
"331 157 CURVE SMOOTH",
"338 62 OFFCURVE",
"321 -20 OFFCURVE",
"389 -27 CURVE SMOOTH",
"425 -31 OFFCURVE",
"441 -43 OFFCURVE",
"441 -70 CURVE SMOOTH",
"441 -97 OFFCURVE",
"425 -110 OFFCURVE",
"389 -110 CURVE SMOOTH",
"292 -110 OFFCURVE",
"254 -28 OFFCURVE",
"250 80 CURVE SMOOTH",
"246 180 OFFCURVE",
"262 277 OFFCURVE",
"143 295 CURVE",
"128 299 OFFCURVE",
"120 310 OFFCURVE",
"120 324 CURVE SMOOTH",
"120 338 OFFCURVE",
"128 349 OFFCURVE",
"143 353 CURVE",
"262 371 OFFCURVE",
"246 468 OFFCURVE",
"250 568 CURVE SMOOTH",
"254 676 OFFCURVE",
"292 758 OFFCURVE",
"389 758 CURVE SMOOTH",
"425 758 OFFCURVE",
"441 745 OFFCURVE",
"441 718 CURVE SMOOTH",
"441 691 OFFCURVE",
"425 679 OFFCURVE",
"389 675 CURVE SMOOTH",
"321 668 OFFCURVE",
"337 586 OFFCURVE",
"331 491 CURVE SMOOTH",
"326 426 OFFCURVE",
"327 360 OFFCURVE",
"263 324 CURVE"
);
}
);
vertWidth = 0;
width = 600;
}
);
note = braceleft;
unicode = 007B;
},
